<svg width="432" height="280" viewBox="0 0 432 280" fill="none" xmlns="http://www.w3.org/2000/svg">
<path d="M0 16C0 7.16344 7.16344 0 16 0H416C424.837 0 432 7.16344 432 16V264C432 272.837 424.837 280 416 280H16C7.16343 280 0 272.837 0 264V16Z" fill="#F7F9FB"/>
<path d="M24.5568 30.3643V28.8182H32.6804V30.3643H29.5334V39H27.7038V30.3643H24.5568ZM33.3739 39V31.3636H35.119V32.6364H35.1985C35.3377 32.1955 35.5763 31.8558 35.9144 31.6172C36.2558 31.3752 36.6452 31.2543 37.0827 31.2543C37.1822 31.2543 37.2932 31.2592 37.4158 31.2692C37.5418 31.2758 37.6462 31.2874 37.729 31.304V32.9595C37.6528 32.933 37.5318 32.9098 37.3661 32.8899C37.2037 32.8667 37.0463 32.8551 36.8938 32.8551C36.5657 32.8551 36.2707 32.9264 36.0089 33.0689C35.7504 33.2081 35.5465 33.402 35.3974 33.6506C35.2482 33.8991 35.1737 34.1858 35.1737 34.5107V39H33.3739ZM41.4441 39.1342C40.8442 39.1342 40.3072 38.9801 39.8333 38.6719C39.3593 38.3636 38.9848 37.9162 38.7097 37.3295C38.4346 36.7429 38.2971 36.0303 38.2971 35.1918C38.2971 34.3433 38.4363 33.6274 38.7147 33.044C38.9964 32.4574 39.3759 32.0149 39.8532 31.7166C40.3304 31.415 40.8624 31.2642 41.449 31.2642C41.8965 31.2642 42.2644 31.3404 42.5527 31.4929C42.8411 31.642 43.0698 31.8227 43.2388 32.0348C43.4078 32.2436 43.5388 32.4408 43.6316 32.6264H43.7061V31.3636H45.5108V39H43.7409V37.7969H43.6316C43.5388 37.9825 43.4045 38.1797 43.2289 38.3885C43.0532 38.594 42.8212 38.7696 42.5328 38.9155C42.2445 39.0613 41.8816 39.1342 41.4441 39.1342ZM41.9462 37.6577C42.3274 37.6577 42.6522 37.5549 42.9206 37.3494C43.1891 37.1406 43.3929 36.8506 43.5321 36.4794C43.6713 36.1082 43.7409 35.6757 43.7409 35.1818C43.7409 34.688 43.6713 34.2588 43.5321 33.8942C43.3962 33.5296 43.1941 33.2462 42.9256 33.044C42.6605 32.8419 42.334 32.7408 41.9462 32.7408C41.5452 32.7408 41.2104 32.8452 40.9419 33.054C40.6735 33.2628 40.4713 33.5511 40.3354 33.919C40.1995 34.2869 40.1316 34.7079 40.1316 35.1818C40.1316 35.6591 40.1995 36.085 40.3354 36.4595C40.4746 36.8307 40.6784 37.1241 40.9469 37.3395C41.2187 37.5516 41.5518 37.6577 41.9462 37.6577ZM51.2965 31.3636V32.7557H46.7823V31.3636H51.2965ZM47.9109 39V30.6428C47.9109 30.129 48.0169 29.7015 48.229 29.3601C48.4445 29.0187 48.7328 28.7635 49.0941 28.5945C49.4554 28.4254 49.8564 28.3409 50.2972 28.3409C50.6088 28.3409 50.8855 28.3658 51.1275 28.4155C51.3694 28.4652 51.5484 28.5099 51.6644 28.5497L51.3065 29.9418C51.2302 29.9186 51.1341 29.8954 51.0181 29.8722C50.9021 29.8456 50.7728 29.8324 50.6303 29.8324C50.2956 29.8324 50.0586 29.9136 49.9194 30.076C49.7835 30.2351 49.7156 30.4638 49.7156 30.7621V39H47.9109ZM56.5739 31.3636V32.7557H52.0597V31.3636H56.5739ZM53.1882 39V30.6428C53.1882 30.129 53.2943 29.7015 53.5064 29.3601C53.7218 29.0187 54.0102 28.7635 54.3714 28.5945C54.7327 28.4254 55.1338 28.3409 55.5746 28.3409C55.8861 28.3409 56.1629 28.3658 56.4048 28.4155C56.6468 28.4652 56.8258 28.5099 56.9418 28.5497L56.5838 29.9418C56.5076 29.9186 56.4115 29.8954 56.2955 29.8722C56.1795 29.8456 56.0502 29.8324 55.9077 29.8324C55.5729 29.8324 55.3359 29.9136 55.1967 30.076C55.0608 30.2351 54.9929 30.4638 54.9929 30.7621V39H53.1882ZM57.9833 39V31.3636H59.783V39H57.9833ZM58.8881 30.2798C58.6031 30.2798 58.3578 30.1854 58.1523 29.9964C57.9469 29.8042 57.8441 29.5739 57.8441 29.3054C57.8441 29.0336 57.9469 28.8033 58.1523 28.6143C58.3578 28.4221 58.6031 28.326 58.8881 28.326C59.1765 28.326 59.4218 28.4221 59.6239 28.6143C59.8294 28.8033 59.9322 29.0336 59.9322 29.3054C59.9322 29.5739 59.8294 29.8042 59.6239 29.9964C59.4218 30.1854 59.1765 30.2798 58.8881 30.2798ZM64.9647 39.1491C64.2024 39.1491 63.5478 38.9818 63.0009 38.647C62.4573 38.3123 62.0381 37.8499 61.7431 37.2599C61.4514 36.6667 61.3056 35.9839 61.3056 35.2116C61.3056 34.4361 61.4547 33.7517 61.753 33.1584C62.0513 32.5618 62.4722 32.0978 63.0158 31.7663C63.5627 31.4316 64.209 31.2642 64.9547 31.2642C65.5745 31.2642 66.123 31.3786 66.6003 31.6072C67.0809 31.8326 67.4637 32.1525 67.7488 32.5668C68.0338 32.9777 68.1962 33.4583 68.236 34.0085H66.5158C66.4462 33.6406 66.2805 33.334 66.0186 33.0888C65.7601 32.8402 65.4138 32.7159 64.9796 32.7159C64.6117 32.7159 64.2885 32.8153 64.0101 33.0142C63.7317 33.2098 63.5146 33.4915 63.3588 33.8594C63.2064 34.2273 63.1301 34.6681 63.1301 35.1818C63.1301 35.7022 63.2064 36.1496 63.3588 36.5241C63.5113 36.8954 63.7251 37.1821 64.0002 37.3842C64.2786 37.5831 64.6051 37.6825 64.9796 37.6825C65.2447 37.6825 65.4817 37.6328 65.6905 37.5334C65.9026 37.4306 66.08 37.2831 66.2225 37.0909C66.365 36.8987 66.4628 36.665 66.5158 36.3899H68.236C68.1929 36.9302 68.0338 37.4091 67.7587 37.8267C67.4836 38.241 67.1091 38.5658 66.6351 38.8011C66.1612 39.0331 65.6043 39.1491 64.9647 39.1491ZM73.266 39V28.8182H75.0657V32.6264H75.1403C75.2331 32.4408 75.364 32.2436 75.533 32.0348C75.7021 31.8227 75.9308 31.642 76.2191 31.4929C76.5075 31.3404 76.8754 31.2642 77.3228 31.2642C77.9128 31.2642 78.4447 31.415 78.9187 31.7166C79.396 32.0149 79.7738 32.4574 80.0522 33.044C80.3339 33.6274 80.4748 34.3433 80.4748 35.1918C80.4748 36.0303 80.3372 36.7429 80.0621 37.3295C79.7871 37.9162 79.4125 38.3636 78.9386 38.6719C78.4646 38.9801 77.9277 39.1342 77.3278 39.1342C76.8903 39.1342 76.5273 39.0613 76.239 38.9155C75.9506 38.7696 75.7186 38.594 75.543 38.3885C75.3706 38.1797 75.2364 37.9825 75.1403 37.7969H75.0359V39H73.266ZM75.0309 35.1818C75.0309 35.6757 75.1005 36.1082 75.2397 36.4794C75.3822 36.8506 75.5861 37.1406 75.8512 37.3494C76.1197 37.5549 76.4445 37.6577 76.8256 37.6577C77.2234 37.6577 77.5565 37.5516 77.8249 37.3395C78.0934 37.1241 78.2956 36.8307 78.4315 36.4595C78.5707 36.085 78.6403 35.6591 78.6403 35.1818C78.6403 34.7079 78.5723 34.2869 78.4364 33.919C78.3005 33.5511 78.0984 33.2628 77.8299 33.054C77.5614 32.8452 77.2267 32.7408 76.8256 32.7408C76.4412 32.7408 76.1147 32.8419 75.8462 33.044C75.5778 33.2462 75.3739 33.5296 75.2347 33.8942C75.0988 34.2588 75.0309 34.688 75.0309 35.1818ZM82.8636 41.8636C82.6184 41.8636 82.3913 41.8438 82.1825 41.804C81.977 41.7675 81.813 41.7244 81.6903 41.6747L82.108 40.2727C82.3698 40.349 82.6035 40.3854 82.8089 40.3821C83.0144 40.3788 83.1951 40.3142 83.3509 40.1882C83.5099 40.0656 83.6442 39.8601 83.7536 39.5717L83.9077 39.1591L81.1385 31.3636H83.0476L84.8075 37.1307H84.8871L86.652 31.3636H88.5661L85.5085 39.9247C85.366 40.3291 85.1771 40.6754 84.9418 40.9638C84.7064 41.2554 84.4181 41.4775 84.0767 41.63C83.7386 41.7857 83.3343 41.8636 82.8636 41.8636ZM96.8139 39H93.3636V28.8182H96.8835C97.8944 28.8182 98.7628 29.022 99.4886 29.4297C100.218 29.834 100.778 30.4157 101.169 31.1747C101.56 31.9337 101.756 32.8419 101.756 33.8991C101.756 34.9598 101.558 35.8712 101.164 36.6335C100.773 37.3958 100.208 37.9808 99.4688 38.3885C98.733 38.7962 97.848 39 96.8139 39ZM95.2081 37.4041H96.7244C97.4337 37.4041 98.0253 37.2749 98.4993 37.0163C98.9732 36.7545 99.3295 36.3651 99.5682 35.848C99.8068 35.3277 99.9261 34.678 99.9261 33.8991C99.9261 33.1203 99.8068 32.474 99.5682 31.9602C99.3295 31.4432 98.9766 31.0571 98.5092 30.8018C98.0452 30.5433 97.4685 30.4141 96.7791 30.4141H95.2081V37.4041ZM106.809 39.1491C106.044 39.1491 105.382 38.9901 104.826 38.6719C104.272 38.3504 103.846 37.8963 103.548 37.3097C103.25 36.7197 103.1 36.0253 103.1 35.2266C103.1 34.4411 103.25 33.7517 103.548 33.1584C103.85 32.5618 104.27 32.0978 104.811 31.7663C105.351 31.4316 105.986 31.2642 106.715 31.2642C107.185 31.2642 107.63 31.3404 108.047 31.4929C108.468 31.642 108.839 31.8741 109.161 32.1889C109.486 32.5038 109.741 32.9048 109.926 33.392C110.112 33.8759 110.205 34.4527 110.205 35.1222V35.674H103.946V34.4609H108.48C108.476 34.1162 108.402 33.8097 108.256 33.5412C108.11 33.2694 107.906 33.0556 107.645 32.8999C107.386 32.7441 107.084 32.6662 106.74 32.6662C106.372 32.6662 106.049 32.7557 105.77 32.9347C105.492 33.1103 105.275 33.3423 105.119 33.6307C104.967 33.9157 104.889 34.2289 104.885 34.5703V35.6293C104.885 36.0734 104.967 36.4545 105.129 36.7727C105.291 37.0876 105.518 37.3295 105.81 37.4986C106.102 37.6643 106.443 37.7472 106.834 37.7472C107.096 37.7472 107.333 37.7107 107.545 37.6378C107.757 37.5616 107.941 37.4505 108.097 37.3047C108.253 37.1589 108.37 36.9782 108.45 36.7628L110.13 36.9517C110.024 37.3958 109.822 37.7836 109.524 38.1151C109.229 38.4432 108.851 38.6984 108.39 38.8807C107.93 39.0597 107.403 39.1491 106.809 39.1491ZM118.33 31.3636L115.61 39H113.622L110.902 31.3636H112.821L114.576 37.0362H114.656L116.416 31.3636H118.33ZM119.575 39V31.3636H121.375V39H119.575ZM120.48 30.2798C120.195 30.2798 119.95 30.1854 119.744 29.9964C119.539 29.8042 119.436 29.5739 119.436 29.3054C119.436 29.0336 119.539 28.8033 119.744 28.6143C119.95 28.4221 120.195 28.326 120.48 28.326C120.768 28.326 121.014 28.4221 121.216 28.6143C121.421 28.8033 121.524 29.0336 121.524 29.3054C121.524 29.5739 121.421 29.8042 121.216 29.9964C121.014 30.1854 120.768 30.2798 120.48 30.2798ZM126.556 39.1491C125.794 39.1491 125.14 38.9818 124.593 38.647C124.049 38.3123 123.63 37.8499 123.335 37.2599C123.043 36.6667 122.897 35.9839 122.897 35.2116C122.897 34.4361 123.047 33.7517 123.345 33.1584C123.643 32.5618 124.064 32.0978 124.608 31.7663C125.154 31.4316 125.801 31.2642 126.547 31.2642C127.166 31.2642 127.715 31.3786 128.192 31.6072C128.673 31.8326 129.056 32.1525 129.341 32.5668C129.626 32.9777 129.788 33.4583 129.828 34.0085H128.108C128.038 33.6406 127.872 33.334 127.61 33.0888C127.352 32.8402 127.006 32.7159 126.571 32.7159C126.203 32.7159 125.88 32.8153 125.602 33.0142C125.324 33.2098 125.106 33.4915 124.951 33.8594C124.798 34.2273 124.722 34.6681 124.722 35.1818C124.722 35.7022 124.798 36.1496 124.951 36.5241C125.103 36.8954 125.317 37.1821 125.592 37.3842C125.87 37.5831 126.197 37.6825 126.571 37.6825C126.837 37.6825 127.074 37.6328 127.282 37.5334C127.494 37.4306 127.672 37.2831 127.814 37.0909C127.957 36.8987 128.055 36.665 128.108 36.3899H129.828C129.785 36.9302 129.626 37.4091 129.35 37.8267C129.075 38.241 128.701 38.5658 128.227 38.8011C127.753 39.0331 127.196 39.1491 126.556 39.1491ZM134.686 39.1491C133.921 39.1491 133.259 38.9901 132.703 38.6719C132.149 38.3504 131.723 37.8963 131.425 37.3097C131.127 36.7197 130.977 36.0253 130.977 35.2266C130.977 34.4411 131.127 33.7517 131.425 33.1584C131.727 32.5618 132.147 32.0978 132.688 31.7663C133.228 31.4316 133.863 31.2642 134.592 31.2642C135.062 31.2642 135.507 31.3404 135.924 31.4929C136.345 31.642 136.716 31.8741 137.038 32.1889C137.363 32.5038 137.618 32.9048 137.803 33.392C137.989 33.8759 138.082 34.4527 138.082 35.1222V35.674H131.823V34.4609H136.357C136.353 34.1162 136.279 33.8097 136.133 33.5412C135.987 33.2694 135.783 33.0556 135.521 32.8999C135.263 32.7441 134.961 32.6662 134.617 32.6662C134.249 32.6662 133.926 32.7557 133.647 32.9347C133.369 33.1103 133.152 33.3423 132.996 33.6307C132.843 33.9157 132.766 34.2289 132.762 34.5703V35.6293C132.762 36.0734 132.843 36.4545 133.006 36.7727C133.168 37.0876 133.395 37.3295 133.687 37.4986C133.979 37.6643 134.32 37.7472 134.711 37.7472C134.973 37.7472 135.21 37.7107 135.422 37.6378C135.634 37.5616 135.818 37.4505 135.974 37.3047C136.13 37.1589 136.247 36.9782 136.327 36.7628L138.007 36.9517C137.901 37.3958 137.699 37.7836 137.401 38.1151C137.106 38.4432 136.728 38.6984 136.267 38.8807C135.807 39.0597 135.28 39.1491 134.686 39.1491Z" fill="#1C1C1C"/>
<path d="M24.9038 70.8182H25.9776C26.0089 71.1136 26.1097 71.3636 26.2802 71.5682C26.4535 71.7699 26.6779 71.9233 26.9535 72.0284C27.229 72.1307 27.5344 72.1818 27.8697 72.1818C28.2333 72.1818 28.56 72.1207 28.8498 71.9986C29.1396 71.8764 29.3697 71.6946 29.5401 71.4531C29.7106 71.2088 29.7958 70.9062 29.7958 70.5455C29.7958 70.2301 29.7219 69.9375 29.5742 69.6676C29.4265 69.3949 29.1893 69.1747 28.8626 69.0071C28.5359 68.8395 28.1026 68.7557 27.5629 68.7557H26.864V67.9034L29.0458 65.2784V65.2102H25.3299V64.2727H30.4947V65.0398L28.1594 67.8693V67.9375C28.5344 67.9545 28.8839 68.0312 29.2077 68.1676C29.5344 68.304 29.8185 68.4886 30.06 68.7216C30.3043 68.9545 30.4947 69.2259 30.631 69.5355C30.7674 69.8452 30.8356 70.1818 30.8356 70.5455C30.8356 71.0426 30.7077 71.4858 30.4521 71.875C30.1992 72.2614 29.8484 72.5653 29.3995 72.7869C28.9535 73.0085 28.4379 73.1193 27.8526 73.1193C27.3356 73.1193 26.8597 73.0284 26.4251 72.8466C25.9904 72.6648 25.6367 72.402 25.364 72.0582C25.0913 71.7145 24.9379 71.3011 24.9038 70.8182ZM35.4219 73.1193C34.7798 73.1193 34.233 72.9446 33.7812 72.5952C33.3295 72.2429 32.9844 71.733 32.7457 71.0653C32.5071 70.3949 32.3878 69.5852 32.3878 68.6364C32.3878 67.6932 32.5071 66.8878 32.7457 66.2202C32.9872 65.5497 33.3338 65.0384 33.7855 64.6861C34.2401 64.331 34.7855 64.1534 35.4219 64.1534C36.0582 64.1534 36.6023 64.331 37.054 64.6861C37.5085 65.0384 37.8551 65.5497 38.0938 66.2202C38.3352 66.8878 38.456 67.6932 38.456 68.6364C38.456 69.5852 38.3366 70.3949 38.098 71.0653C37.8594 71.733 37.5142 72.2429 37.0625 72.5952C36.6108 72.9446 36.0639 73.1193 35.4219 73.1193ZM35.4219 72.1818C36.0582 72.1818 36.5526 71.875 36.9048 71.2614C37.2571 70.6477 37.4332 69.7727 37.4332 68.6364C37.4332 67.8807 37.3523 67.2372 37.1903 66.706C37.0313 66.1747 36.8011 65.7699 36.5 65.4915C36.2017 65.2131 35.8423 65.0739 35.4219 65.0739C34.7912 65.0739 34.2983 65.3849 33.9432 66.0071C33.5881 66.6264 33.4105 67.5028 33.4105 68.6364C33.4105 69.392 33.4901 70.0341 33.6491 70.5625C33.8082 71.0909 34.0369 71.4929 34.3352 71.7685C34.6364 72.044 34.9986 72.1818 35.4219 72.1818ZM40.2287 73V64.2727H41.2855V68.6023H41.3878L45.3082 64.2727H46.6889L43.0241 68.2102L46.6889 73H45.4105L42.3764 68.9432L41.2855 70.1705V73H40.2287Z" fill="#1C1C1C" fill-opacity="0.4"/>
<path d="M25.3097 122V121.233L28.1903 118.08C28.5284 117.71 28.8068 117.389 29.0256 117.116C29.2443 116.841 29.4063 116.582 29.5114 116.341C29.6193 116.097 29.6733 115.841 29.6733 115.574C29.6733 115.267 29.5994 115.001 29.4517 114.777C29.3068 114.553 29.108 114.379 28.8551 114.257C28.6023 114.135 28.3182 114.074 28.0028 114.074C27.6676 114.074 27.375 114.143 27.125 114.283C26.8778 114.419 26.6861 114.611 26.5497 114.858C26.4162 115.105 26.3494 115.395 26.3494 115.727H25.3438C25.3438 115.216 25.4616 114.767 25.6974 114.381C25.9332 113.994 26.2543 113.693 26.6605 113.477C27.0696 113.261 27.5284 113.153 28.0369 113.153C28.5483 113.153 29.0014 113.261 29.3963 113.477C29.7912 113.693 30.1009 113.984 30.3253 114.351C30.5497 114.717 30.6619 115.125 30.6619 115.574C30.6619 115.895 30.6037 116.209 30.4872 116.516C30.3736 116.82 30.1747 117.159 29.8906 117.534C29.6094 117.906 29.2188 118.361 28.7188 118.898L26.7585 120.994V121.062H30.8153V122H25.3097ZM35.4219 122.119C34.7798 122.119 34.233 121.945 33.7812 121.595C33.3295 121.243 32.9844 120.733 32.7457 120.065C32.5071 119.395 32.3878 118.585 32.3878 117.636C32.3878 116.693 32.5071 115.888 32.7457 115.22C32.9872 114.55 33.3338 114.038 33.7855 113.686C34.2401 113.331 34.7855 113.153 35.4219 113.153C36.0582 113.153 36.6023 113.331 37.054 113.686C37.5085 114.038 37.8551 114.55 38.0938 115.22C38.3352 115.888 38.456 116.693 38.456 117.636C38.456 118.585 38.3366 119.395 38.098 120.065C37.8594 120.733 37.5142 121.243 37.0625 121.595C36.6108 121.945 36.0639 122.119 35.4219 122.119ZM35.4219 121.182C36.0582 121.182 36.5526 120.875 36.9048 120.261C37.2571 119.648 37.4332 118.773 37.4332 117.636C37.4332 116.881 37.3523 116.237 37.1903 115.706C37.0313 115.175 36.8011 114.77 36.5 114.491C36.2017 114.213 35.8423 114.074 35.4219 114.074C34.7912 114.074 34.2983 114.385 33.9432 115.007C33.5881 115.626 33.4105 116.503 33.4105 117.636C33.4105 118.392 33.4901 119.034 33.6491 119.562C33.8082 120.091 34.0369 120.493 34.3352 120.768C34.6364 121.044 34.9986 121.182 35.4219 121.182ZM40.2287 122V113.273H41.2855V117.602H41.3878L45.3082 113.273H46.6889L43.0241 117.21L46.6889 122H45.4105L42.3764 117.943L41.2855 119.17V122H40.2287Z" fill="#1C1C1C" fill-opacity="0.4"/>
<path d="M30.0739 162.273V171H29.017V163.807H28.9489C28.9091 163.886 28.8068 163.977 28.642 164.08C28.4773 164.179 28.2642 164.267 28.0028 164.344C27.7415 164.418 27.4432 164.455 27.108 164.455V163.568C27.446 163.568 27.7386 163.507 27.9858 163.385C28.233 163.263 28.4389 163.119 28.6037 162.955C28.7713 162.79 28.8977 162.641 28.983 162.507C29.071 162.374 29.1222 162.295 29.1364 162.273H30.0739ZM35.4219 171.119C34.7798 171.119 34.233 170.945 33.7812 170.595C33.3295 170.243 32.9844 169.733 32.7457 169.065C32.5071 168.395 32.3878 167.585 32.3878 166.636C32.3878 165.693 32.5071 164.888 32.7457 164.22C32.9872 163.55 33.3338 163.038 33.7855 162.686C34.2401 162.331 34.7855 162.153 35.4219 162.153C36.0582 162.153 36.6023 162.331 37.054 162.686C37.5085 163.038 37.8551 163.55 38.0938 164.22C38.3352 164.888 38.456 165.693 38.456 166.636C38.456 167.585 38.3366 168.395 38.098 169.065C37.8594 169.733 37.5142 170.243 37.0625 170.595C36.6108 170.945 36.0639 171.119 35.4219 171.119ZM35.4219 170.182C36.0582 170.182 36.5526 169.875 36.9048 169.261C37.2571 168.648 37.4332 167.773 37.4332 166.636C37.4332 165.881 37.3523 165.237 37.1903 164.706C37.0313 164.175 36.8011 163.77 36.5 163.491C36.2017 163.213 35.8423 163.074 35.4219 163.074C34.7912 163.074 34.2983 163.385 33.9432 164.007C33.5881 164.626 33.4105 165.503 33.4105 166.636C33.4105 167.392 33.4901 168.034 33.6491 168.562C33.8082 169.091 34.0369 169.493 34.3352 169.768C34.6364 170.044 34.9986 170.182 35.4219 170.182ZM40.2287 171V162.273H41.2855V166.602H41.3878L45.3082 162.273H46.6889L43.0241 166.21L46.6889 171H45.4105L42.3764 166.943L41.2855 168.17V171H40.2287Z" fill="#1C1C1C" fill-opacity="0.4"/>
<path d="M43.25 220.119C42.608 220.119 42.0611 219.945 41.6094 219.595C41.1577 219.243 40.8125 218.733 40.5739 218.065C40.3352 217.395 40.2159 216.585 40.2159 215.636C40.2159 214.693 40.3352 213.888 40.5739 213.22C40.8153 212.55 41.1619 212.038 41.6136 211.686C42.0682 211.331 42.6136 211.153 43.25 211.153C43.8864 211.153 44.4304 211.331 44.8821 211.686C45.3366 212.038 45.6832 212.55 45.9219 213.22C46.1634 213.888 46.2841 214.693 46.2841 215.636C46.2841 216.585 46.1648 217.395 45.9261 218.065C45.6875 218.733 45.3423 219.243 44.8906 219.595C44.4389 219.945 43.892 220.119 43.25 220.119ZM43.25 219.182C43.8864 219.182 44.3807 218.875 44.733 218.261C45.0852 217.648 45.2614 216.773 45.2614 215.636C45.2614 214.881 45.1804 214.237 45.0185 213.706C44.8594 213.175 44.6293 212.77 44.3281 212.491C44.0298 212.213 43.6705 212.074 43.25 212.074C42.6193 212.074 42.1264 212.385 41.7713 213.007C41.4162 213.626 41.2386 214.503 41.2386 215.636C41.2386 216.392 41.3182 217.034 41.4773 217.562C41.6364 218.091 41.8651 218.493 42.1634 218.768C42.4645 219.044 42.8267 219.182 43.25 219.182Z" fill="#1C1C1C" fill-opacity="0.4"/>
<path d="M77.7717 251V242.273H78.8285V250.062H82.8853V251H77.7717ZM84.3853 251V244.455H85.391V251H84.3853ZM84.8967 243.364C84.7006 243.364 84.5316 243.297 84.3896 243.163C84.2504 243.03 84.1808 242.869 84.1808 242.682C84.1808 242.494 84.2504 242.334 84.3896 242.2C84.5316 242.067 84.7006 242 84.8967 242C85.0927 242 85.2603 242.067 85.3995 242.2C85.5415 242.334 85.6126 242.494 85.6126 242.682C85.6126 242.869 85.5415 243.03 85.3995 243.163C85.2603 243.297 85.0927 243.364 84.8967 243.364ZM88.2386 247.062V251H87.233V244.455H88.2045V245.477H88.2898C88.4432 245.145 88.6761 244.878 88.9886 244.676C89.3011 244.472 89.7045 244.369 90.1989 244.369C90.642 244.369 91.0298 244.46 91.3622 244.642C91.6946 244.821 91.9531 245.094 92.1378 245.46C92.3224 245.824 92.4148 246.284 92.4148 246.841V251H91.4091V246.909C91.4091 246.395 91.2756 245.994 91.0085 245.707C90.7415 245.418 90.375 245.273 89.9091 245.273C89.5881 245.273 89.3011 245.342 89.0483 245.482C88.7983 245.621 88.6009 245.824 88.456 246.091C88.3111 246.358 88.2386 246.682 88.2386 247.062ZM98.3775 248.324V244.455H99.3832V251H98.3775V249.892H98.3093C98.1559 250.224 97.9173 250.507 97.5934 250.74C97.2695 250.97 96.8604 251.085 96.3661 251.085C95.957 251.085 95.5934 250.996 95.2752 250.817C94.957 250.635 94.707 250.362 94.5252 249.999C94.3434 249.632 94.2525 249.17 94.2525 248.614V244.455H95.2582V248.545C95.2582 249.023 95.3917 249.403 95.6587 249.688C95.9286 249.972 96.2724 250.114 96.69 250.114C96.94 250.114 97.1942 250.05 97.4528 249.922C97.7141 249.794 97.9329 249.598 98.109 249.334C98.288 249.07 98.3775 248.733 98.3775 248.324ZM101.975 244.455L103.543 247.131L105.112 244.455H106.271L104.157 247.727L106.271 251H105.112L103.543 248.46L101.975 251H100.816L102.896 247.727L100.816 244.455H101.975Z" fill="#1C1C1C" fill-opacity="0.4"/>
<path d="M137.891 242.273H139.152L142.118 249.517H142.22L145.186 242.273H146.448V251H145.459V244.369H145.374L142.646 251H141.692L138.965 244.369H138.879V251H137.891V242.273ZM150.902 251.136C150.356 251.136 149.875 250.999 149.457 250.723C149.04 250.445 148.713 250.053 148.477 249.547C148.241 249.038 148.123 248.438 148.123 247.744C148.123 247.057 148.241 246.46 148.477 245.955C148.713 245.449 149.041 245.058 149.461 244.783C149.882 244.507 150.368 244.369 150.919 244.369C151.345 244.369 151.682 244.44 151.929 244.582C152.179 244.722 152.369 244.881 152.5 245.06C152.633 245.236 152.737 245.381 152.811 245.494H152.896V244.455H153.902V251H152.93V249.994H152.811C152.737 250.114 152.632 250.264 152.496 250.446C152.359 250.625 152.165 250.786 151.912 250.928C151.659 251.067 151.322 251.136 150.902 251.136ZM151.038 250.233C151.442 250.233 151.782 250.128 152.061 249.918C152.339 249.705 152.551 249.411 152.696 249.036C152.841 248.658 152.913 248.222 152.913 247.727C152.913 247.239 152.842 246.811 152.7 246.445C152.558 246.075 152.348 245.788 152.069 245.584C151.791 245.376 151.447 245.273 151.038 245.273C150.612 245.273 150.257 245.382 149.973 245.601C149.692 245.817 149.48 246.111 149.338 246.483C149.199 246.852 149.129 247.267 149.129 247.727C149.129 248.193 149.2 248.616 149.342 248.997C149.487 249.375 149.7 249.676 149.981 249.901C150.265 250.122 150.618 250.233 151.038 250.233ZM158.542 251.136C157.929 251.136 157.4 250.991 156.957 250.702C156.514 250.412 156.173 250.013 155.934 249.504C155.696 248.996 155.577 248.415 155.577 247.761C155.577 247.097 155.699 246.51 155.943 246.001C156.19 245.49 156.534 245.091 156.974 244.804C157.417 244.514 157.934 244.369 158.525 244.369C158.986 244.369 159.4 244.455 159.77 244.625C160.139 244.795 160.442 245.034 160.677 245.341C160.913 245.648 161.059 246.006 161.116 246.415H160.111C160.034 246.116 159.863 245.852 159.599 245.622C159.338 245.389 158.986 245.273 158.542 245.273C158.15 245.273 157.807 245.375 157.511 245.58C157.219 245.781 156.99 246.067 156.825 246.436C156.663 246.803 156.582 247.233 156.582 247.727C156.582 248.233 156.662 248.673 156.821 249.048C156.983 249.423 157.21 249.714 157.503 249.922C157.798 250.129 158.145 250.233 158.542 250.233C158.804 250.233 159.041 250.188 159.254 250.097C159.467 250.006 159.648 249.875 159.795 249.705C159.943 249.534 160.048 249.33 160.111 249.091H161.116C161.059 249.477 160.919 249.825 160.694 250.135C160.473 250.442 160.179 250.686 159.812 250.868C159.449 251.047 159.025 251.136 158.542 251.136Z" fill="#1C1C1C" fill-opacity="0.4"/>
<path d="M197.85 251V244.455H198.856V251H197.85ZM198.362 243.364C198.165 243.364 197.996 243.297 197.854 243.163C197.715 243.03 197.646 242.869 197.646 242.682C197.646 242.494 197.715 242.334 197.854 242.2C197.996 242.067 198.165 242 198.362 242C198.558 242 198.725 242.067 198.864 242.2C199.006 242.334 199.077 242.494 199.077 242.682C199.077 242.869 199.006 243.03 198.864 243.163C198.725 243.297 198.558 243.364 198.362 243.364ZM208.198 246.636C208.198 247.557 208.032 248.352 207.699 249.023C207.367 249.693 206.911 250.21 206.331 250.574C205.752 250.938 205.09 251.119 204.346 251.119C203.601 251.119 202.939 250.938 202.36 250.574C201.78 250.21 201.324 249.693 200.992 249.023C200.659 248.352 200.493 247.557 200.493 246.636C200.493 245.716 200.659 244.92 200.992 244.25C201.324 243.58 201.78 243.062 202.36 242.699C202.939 242.335 203.601 242.153 204.346 242.153C205.09 242.153 205.752 242.335 206.331 242.699C206.911 243.062 207.367 243.58 207.699 244.25C208.032 244.92 208.198 245.716 208.198 246.636ZM207.175 246.636C207.175 245.881 207.049 245.243 206.796 244.723C206.546 244.203 206.206 243.81 205.777 243.543C205.351 243.276 204.874 243.142 204.346 243.142C203.817 243.142 203.338 243.276 202.909 243.543C202.483 243.81 202.144 244.203 201.891 244.723C201.641 245.243 201.516 245.881 201.516 246.636C201.516 247.392 201.641 248.03 201.891 248.55C202.144 249.07 202.483 249.463 202.909 249.73C203.338 249.997 203.817 250.131 204.346 250.131C204.874 250.131 205.351 249.997 205.777 249.73C206.206 249.463 206.546 249.07 206.796 248.55C207.049 248.03 207.175 247.392 207.175 246.636ZM214.748 244.455C214.696 244.023 214.489 243.688 214.125 243.449C213.762 243.21 213.316 243.091 212.787 243.091C212.401 243.091 212.063 243.153 211.773 243.278C211.486 243.403 211.262 243.575 211.1 243.794C210.941 244.013 210.861 244.261 210.861 244.54C210.861 244.773 210.917 244.973 211.027 245.141C211.141 245.305 211.286 245.443 211.462 245.554C211.638 245.662 211.823 245.751 212.016 245.822C212.209 245.891 212.387 245.946 212.549 245.989L213.435 246.227C213.662 246.287 213.915 246.369 214.194 246.474C214.475 246.58 214.743 246.723 214.999 246.905C215.257 247.084 215.471 247.314 215.638 247.595C215.806 247.876 215.89 248.222 215.89 248.631C215.89 249.102 215.766 249.528 215.519 249.909C215.275 250.29 214.917 250.592 214.445 250.817C213.976 251.041 213.407 251.153 212.736 251.153C212.111 251.153 211.57 251.053 211.113 250.851C210.658 250.649 210.3 250.368 210.039 250.007C209.78 249.646 209.634 249.227 209.6 248.75H210.691C210.719 249.08 210.83 249.352 211.023 249.568C211.219 249.781 211.466 249.94 211.765 250.045C212.066 250.148 212.39 250.199 212.736 250.199C213.14 250.199 213.502 250.134 213.823 250.003C214.144 249.869 214.398 249.685 214.586 249.449C214.773 249.21 214.867 248.932 214.867 248.614C214.867 248.324 214.786 248.088 214.624 247.906C214.462 247.724 214.249 247.577 213.985 247.463C213.721 247.349 213.435 247.25 213.128 247.165L212.054 246.858C211.373 246.662 210.833 246.382 210.435 246.018C210.037 245.655 209.838 245.179 209.838 244.591C209.838 244.102 209.971 243.676 210.235 243.312C210.502 242.946 210.86 242.662 211.309 242.46C211.76 242.256 212.265 242.153 212.821 242.153C213.384 242.153 213.884 242.254 214.321 242.456C214.759 242.655 215.105 242.928 215.361 243.274C215.62 243.621 215.756 244.014 215.77 244.455H214.748Z" fill="#1C1C1C" fill-opacity="0.4"/>
<path d="M241.058 251L238.672 242.273H239.746L241.569 249.381H241.655L243.513 242.273H244.706L246.564 249.381H246.649L248.473 242.273H249.547L247.16 251H246.069L244.143 244.045H244.075L242.149 251H241.058ZM250.727 251V244.455H251.733V251H250.727ZM251.238 243.364C251.042 243.364 250.873 243.297 250.731 243.163C250.592 243.03 250.523 242.869 250.523 242.682C250.523 242.494 250.592 242.334 250.731 242.2C250.873 242.067 251.042 242 251.238 242C251.434 242 251.602 242.067 251.741 242.2C251.883 242.334 251.954 242.494 251.954 242.682C251.954 242.869 251.883 243.03 251.741 243.163C251.602 243.297 251.434 243.364 251.238 243.364ZM254.58 247.062V251H253.575V244.455H254.546V245.477H254.632C254.785 245.145 255.018 244.878 255.33 244.676C255.643 244.472 256.046 244.369 256.541 244.369C256.984 244.369 257.372 244.46 257.704 244.642C258.036 244.821 258.295 245.094 258.48 245.46C258.664 245.824 258.757 246.284 258.757 246.841V251H257.751V246.909C257.751 246.395 257.617 245.994 257.35 245.707C257.083 245.418 256.717 245.273 256.251 245.273C255.93 245.273 255.643 245.342 255.39 245.482C255.14 245.621 254.943 245.824 254.798 246.091C254.653 246.358 254.58 246.682 254.58 247.062ZM263.066 251.136C262.52 251.136 262.039 250.999 261.621 250.723C261.204 250.445 260.877 250.053 260.641 249.547C260.405 249.038 260.287 248.438 260.287 247.744C260.287 247.057 260.405 246.46 260.641 245.955C260.877 245.449 261.205 245.058 261.626 244.783C262.046 244.507 262.532 244.369 263.083 244.369C263.509 244.369 263.846 244.44 264.093 244.582C264.343 244.722 264.533 244.881 264.664 245.06C264.797 245.236 264.901 245.381 264.975 245.494H265.06V242.273H266.066V251H265.094V249.994H264.975C264.901 250.114 264.796 250.264 264.66 250.446C264.523 250.625 264.329 250.786 264.076 250.928C263.823 251.067 263.486 251.136 263.066 251.136ZM263.202 250.233C263.606 250.233 263.947 250.128 264.225 249.918C264.503 249.705 264.715 249.411 264.86 249.036C265.005 248.658 265.077 248.222 265.077 247.727C265.077 247.239 265.006 246.811 264.864 246.445C264.722 246.075 264.512 245.788 264.233 245.584C263.955 245.376 263.611 245.273 263.202 245.273C262.776 245.273 262.421 245.382 262.137 245.601C261.856 245.817 261.644 246.111 261.502 246.483C261.363 246.852 261.293 247.267 261.293 247.727C261.293 248.193 261.364 248.616 261.506 248.997C261.651 249.375 261.864 249.676 262.145 249.901C262.43 250.122 262.782 250.233 263.202 250.233ZM270.706 251.136C270.116 251.136 269.597 250.996 269.151 250.714C268.708 250.433 268.361 250.04 268.111 249.534C267.864 249.028 267.741 248.437 267.741 247.761C267.741 247.08 267.864 246.484 268.111 245.976C268.361 245.467 268.708 245.072 269.151 244.791C269.597 244.51 270.116 244.369 270.706 244.369C271.297 244.369 271.814 244.51 272.258 244.791C272.704 245.072 273.05 245.467 273.297 245.976C273.547 246.484 273.672 247.08 273.672 247.761C273.672 248.437 273.547 249.028 273.297 249.534C273.05 250.04 272.704 250.433 272.258 250.714C271.814 250.996 271.297 251.136 270.706 251.136ZM270.706 250.233C271.155 250.233 271.525 250.118 271.814 249.888C272.104 249.658 272.319 249.355 272.458 248.98C272.597 248.605 272.667 248.199 272.667 247.761C272.667 247.324 272.597 246.916 272.458 246.538C272.319 246.161 272.104 245.855 271.814 245.622C271.525 245.389 271.155 245.273 270.706 245.273C270.258 245.273 269.888 245.389 269.599 245.622C269.309 245.855 269.094 246.161 268.955 246.538C268.816 246.916 268.746 247.324 268.746 247.761C268.746 248.199 268.816 248.605 268.955 248.98C269.094 249.355 269.309 249.658 269.599 249.888C269.888 250.118 270.258 250.233 270.706 250.233ZM276.468 251L274.474 244.455H275.53L276.945 249.466H277.013L278.411 244.455H279.485L280.866 249.449H280.934L282.349 244.455H283.405L281.411 251H280.422L278.991 245.972H278.888L277.456 251H276.468ZM289.371 245.92L288.468 246.176C288.411 246.026 288.327 245.879 288.216 245.737C288.108 245.592 287.961 245.473 287.773 245.379C287.586 245.286 287.346 245.239 287.053 245.239C286.653 245.239 286.319 245.331 286.052 245.516C285.787 245.697 285.655 245.929 285.655 246.21C285.655 246.46 285.746 246.658 285.928 246.803C286.11 246.947 286.394 247.068 286.78 247.165L287.752 247.403C288.337 247.545 288.773 247.763 289.06 248.055C289.347 248.345 289.491 248.719 289.491 249.176C289.491 249.551 289.383 249.886 289.167 250.182C288.954 250.477 288.655 250.71 288.272 250.881C287.888 251.051 287.442 251.136 286.934 251.136C286.266 251.136 285.714 250.991 285.276 250.702C284.839 250.412 284.562 249.989 284.445 249.432L285.4 249.193C285.491 249.545 285.662 249.81 285.915 249.986C286.171 250.162 286.505 250.25 286.917 250.25C287.385 250.25 287.758 250.151 288.033 249.952C288.312 249.75 288.451 249.509 288.451 249.227C288.451 249 288.371 248.81 288.212 248.656C288.053 248.5 287.809 248.384 287.479 248.307L286.388 248.051C285.789 247.909 285.349 247.689 285.067 247.391C284.789 247.089 284.65 246.713 284.65 246.261C284.65 245.892 284.753 245.565 284.961 245.281C285.171 244.997 285.456 244.774 285.817 244.612C286.181 244.45 286.593 244.369 287.053 244.369C287.701 244.369 288.209 244.511 288.579 244.795C288.951 245.08 289.215 245.455 289.371 245.92Z" fill="#1C1C1C" fill-opacity="0.4"/>
<path d="M301.01 251H299.903L303.107 242.273H304.198L307.403 251H306.295L303.687 243.653H303.618L301.01 251ZM301.42 247.591H305.885V248.528H301.42V247.591ZM309.631 247.062V251H308.626V244.455H309.597V245.477H309.682C309.836 245.145 310.069 244.878 310.381 244.676C310.694 244.472 311.097 244.369 311.591 244.369C312.035 244.369 312.422 244.46 312.755 244.642C313.087 244.821 313.346 245.094 313.53 245.46C313.715 245.824 313.807 246.284 313.807 246.841V251H312.802V246.909C312.802 246.395 312.668 245.994 312.401 245.707C312.134 245.418 311.768 245.273 311.302 245.273C310.981 245.273 310.694 245.342 310.441 245.482C310.191 245.621 309.993 245.824 309.849 246.091C309.704 246.358 309.631 246.682 309.631 247.062ZM318.117 251.136C317.571 251.136 317.09 250.999 316.672 250.723C316.254 250.445 315.928 250.053 315.692 249.547C315.456 249.038 315.338 248.438 315.338 247.744C315.338 247.057 315.456 246.46 315.692 245.955C315.928 245.449 316.256 245.058 316.676 244.783C317.097 244.507 317.583 244.369 318.134 244.369C318.56 244.369 318.896 244.44 319.144 244.582C319.394 244.722 319.584 244.881 319.715 245.06C319.848 245.236 319.952 245.381 320.026 245.494H320.111V242.273H321.117V251H320.145V249.994H320.026C319.952 250.114 319.847 250.264 319.71 250.446C319.574 250.625 319.379 250.786 319.127 250.928C318.874 251.067 318.537 251.136 318.117 251.136ZM318.253 250.233C318.656 250.233 318.997 250.128 319.276 249.918C319.554 249.705 319.766 249.411 319.911 249.036C320.056 248.658 320.128 248.222 320.128 247.727C320.128 247.239 320.057 246.811 319.915 246.445C319.773 246.075 319.563 245.788 319.284 245.584C319.006 245.376 318.662 245.273 318.253 245.273C317.827 245.273 317.472 245.382 317.188 245.601C316.906 245.817 316.695 246.111 316.553 246.483C316.414 246.852 316.344 247.267 316.344 247.727C316.344 248.193 316.415 248.616 316.557 248.997C316.702 249.375 316.915 249.676 317.196 249.901C317.48 250.122 317.833 250.233 318.253 250.233ZM323.098 251V244.455H324.07V245.443H324.138C324.257 245.119 324.473 244.857 324.786 244.655C325.098 244.453 325.45 244.352 325.843 244.352C325.916 244.352 326.009 244.354 326.119 244.357C326.23 244.359 326.314 244.364 326.371 244.369V245.392C326.337 245.384 326.259 245.371 326.137 245.354C326.017 245.334 325.891 245.324 325.757 245.324C325.439 245.324 325.155 245.391 324.905 245.524C324.658 245.655 324.462 245.837 324.317 246.07C324.175 246.3 324.104 246.562 324.104 246.858V251H323.098ZM330.023 251.136C329.432 251.136 328.914 250.996 328.468 250.714C328.024 250.433 327.678 250.04 327.428 249.534C327.181 249.028 327.057 248.437 327.057 247.761C327.057 247.08 327.181 246.484 327.428 245.976C327.678 245.467 328.024 245.072 328.468 244.791C328.914 244.51 329.432 244.369 330.023 244.369C330.614 244.369 331.131 244.51 331.574 244.791C332.02 245.072 332.367 245.467 332.614 245.976C332.864 246.484 332.989 247.08 332.989 247.761C332.989 248.437 332.864 249.028 332.614 249.534C332.367 250.04 332.02 250.433 331.574 250.714C331.131 250.996 330.614 251.136 330.023 251.136ZM330.023 250.233C330.472 250.233 330.841 250.118 331.131 249.888C331.421 249.658 331.635 249.355 331.774 248.98C331.914 248.605 331.983 248.199 331.983 247.761C331.983 247.324 331.914 246.916 331.774 246.538C331.635 246.161 331.421 245.855 331.131 245.622C330.841 245.389 330.472 245.273 330.023 245.273C329.574 245.273 329.205 245.389 328.915 245.622C328.625 245.855 328.411 246.161 328.271 246.538C328.132 246.916 328.063 247.324 328.063 247.761C328.063 248.199 328.132 248.605 328.271 248.98C328.411 249.355 328.625 249.658 328.915 249.888C329.205 250.118 329.574 250.233 330.023 250.233ZM334.524 251V244.455H335.53V251H334.524ZM335.035 243.364C334.839 243.364 334.67 243.297 334.528 243.163C334.389 243.03 334.319 242.869 334.319 242.682C334.319 242.494 334.389 242.334 334.528 242.2C334.67 242.067 334.839 242 335.035 242C335.231 242 335.399 242.067 335.538 242.2C335.68 242.334 335.751 242.494 335.751 242.682C335.751 242.869 335.68 243.03 335.538 243.163C335.399 243.297 335.231 243.364 335.035 243.364ZM339.843 251.136C339.298 251.136 338.816 250.999 338.399 250.723C337.981 250.445 337.654 250.053 337.419 249.547C337.183 249.038 337.065 248.438 337.065 247.744C337.065 247.057 337.183 246.46 337.419 245.955C337.654 245.449 337.982 245.058 338.403 244.783C338.823 244.507 339.309 244.369 339.86 244.369C340.286 244.369 340.623 244.44 340.87 244.582C341.12 244.722 341.311 244.881 341.441 245.06C341.575 245.236 341.678 245.381 341.752 245.494H341.838V242.273H342.843V251H341.872V249.994H341.752C341.678 250.114 341.573 250.264 341.437 250.446C341.301 250.625 341.106 250.786 340.853 250.928C340.6 251.067 340.264 251.136 339.843 251.136ZM339.98 250.233C340.383 250.233 340.724 250.128 341.002 249.918C341.281 249.705 341.492 249.411 341.637 249.036C341.782 248.658 341.855 248.222 341.855 247.727C341.855 247.239 341.784 246.811 341.642 246.445C341.499 246.075 341.289 245.788 341.011 245.584C340.732 245.376 340.389 245.273 339.98 245.273C339.553 245.273 339.198 245.382 338.914 245.601C338.633 245.817 338.421 246.111 338.279 246.483C338.14 246.852 338.07 247.267 338.07 247.727C338.07 248.193 338.142 248.616 338.284 248.997C338.428 249.375 338.642 249.676 338.923 249.901C339.207 250.122 339.559 250.233 339.98 250.233Z" fill="#1C1C1C" fill-opacity="0.4"/>
<path d="M371.581 246.636C371.581 247.557 371.414 248.352 371.082 249.023C370.75 249.693 370.294 250.21 369.714 250.574C369.135 250.938 368.473 251.119 367.728 251.119C366.984 251.119 366.322 250.938 365.743 250.574C365.163 250.21 364.707 249.693 364.375 249.023C364.042 248.352 363.876 247.557 363.876 246.636C363.876 245.716 364.042 244.92 364.375 244.25C364.707 243.58 365.163 243.062 365.743 242.699C366.322 242.335 366.984 242.153 367.728 242.153C368.473 242.153 369.135 242.335 369.714 242.699C370.294 243.062 370.75 243.58 371.082 244.25C371.414 244.92 371.581 245.716 371.581 246.636ZM370.558 246.636C370.558 245.881 370.431 245.243 370.179 244.723C369.929 244.203 369.589 243.81 369.16 243.543C368.734 243.276 368.257 243.142 367.728 243.142C367.2 243.142 366.721 243.276 366.292 243.543C365.866 243.81 365.527 244.203 365.274 244.723C365.024 245.243 364.899 245.881 364.899 246.636C364.899 247.392 365.024 248.03 365.274 248.55C365.527 249.07 365.866 249.463 366.292 249.73C366.721 249.997 367.2 250.131 367.728 250.131C368.257 250.131 368.734 249.997 369.16 249.73C369.589 249.463 369.929 249.07 370.179 248.55C370.431 248.03 370.558 247.392 370.558 246.636ZM376.068 244.455V245.307H372.676V244.455H376.068ZM373.664 242.886H374.67V249.125C374.67 249.409 374.711 249.622 374.794 249.764C374.879 249.903 374.987 249.997 375.118 250.045C375.251 250.091 375.392 250.114 375.539 250.114C375.65 250.114 375.741 250.108 375.812 250.097C375.883 250.082 375.94 250.071 375.983 250.062L376.187 250.966C376.119 250.991 376.024 251.017 375.902 251.043C375.779 251.071 375.625 251.085 375.437 251.085C375.153 251.085 374.875 251.024 374.602 250.902C374.332 250.78 374.108 250.594 373.929 250.344C373.752 250.094 373.664 249.778 373.664 249.398V242.886ZM378.727 247.062V251H377.721V242.273H378.727V245.477H378.812C378.966 245.139 379.196 244.871 379.502 244.672C379.812 244.47 380.224 244.369 380.738 244.369C381.184 244.369 381.575 244.459 381.91 244.638C382.245 244.814 382.505 245.085 382.69 245.452C382.877 245.815 382.971 246.278 382.971 246.841V251H381.966V246.909C381.966 246.389 381.831 245.987 381.561 245.703C381.294 245.416 380.923 245.273 380.449 245.273C380.119 245.273 379.824 245.342 379.562 245.482C379.304 245.621 379.099 245.824 378.949 246.091C378.801 246.358 378.727 246.682 378.727 247.062ZM387.555 251.136C386.925 251.136 386.381 250.997 385.923 250.719C385.469 250.438 385.118 250.045 384.871 249.543C384.626 249.037 384.504 248.449 384.504 247.778C384.504 247.108 384.626 246.517 384.871 246.006C385.118 245.491 385.462 245.091 385.902 244.804C386.345 244.514 386.862 244.369 387.453 244.369C387.794 244.369 388.131 244.426 388.463 244.54C388.795 244.653 389.098 244.838 389.371 245.094C389.643 245.347 389.861 245.682 390.023 246.099C390.185 246.517 390.266 247.031 390.266 247.642V248.068H385.22V247.199H389.243C389.243 246.83 389.169 246.5 389.021 246.21C388.876 245.92 388.669 245.692 388.399 245.524C388.132 245.357 387.817 245.273 387.453 245.273C387.053 245.273 386.706 245.372 386.413 245.571C386.124 245.767 385.901 246.023 385.744 246.338C385.588 246.653 385.51 246.991 385.51 247.352V247.932C385.51 248.426 385.595 248.845 385.766 249.189C385.939 249.53 386.179 249.79 386.486 249.969C386.793 250.145 387.149 250.233 387.555 250.233C387.82 250.233 388.058 250.196 388.271 250.122C388.487 250.045 388.673 249.932 388.83 249.781C388.986 249.628 389.107 249.437 389.192 249.21L390.163 249.483C390.061 249.812 389.889 250.102 389.648 250.352C389.406 250.599 389.108 250.793 388.753 250.932C388.398 251.068 387.999 251.136 387.555 251.136ZM391.795 251V244.455H392.767V245.443H392.835C392.955 245.119 393.17 244.857 393.483 244.655C393.795 244.453 394.148 244.352 394.54 244.352C394.614 244.352 394.706 244.354 394.817 244.357C394.928 244.359 395.011 244.364 395.068 244.369V245.392C395.034 245.384 394.956 245.371 394.834 245.354C394.714 245.334 394.588 245.324 394.455 245.324C394.136 245.324 393.852 245.391 393.602 245.524C393.355 245.655 393.159 245.837 393.014 246.07C392.872 246.3 392.801 246.562 392.801 246.858V251H391.795Z" fill="#1C1C1C" fill-opacity="0.4"/>
<path d="M77.75 156.8C77.75 152.32 77.75 150.079 78.6219 148.368C79.3889 146.863 80.6128 145.639 82.1181 144.872C83.8294 144 86.0696 144 90.55 144H92.95C97.4304 144 99.6706 144 101.382 144.872C102.887 145.639 104.111 146.863 104.878 148.368C105.75 150.079 105.75 152.32 105.75 156.8V165H77.75V156.8Z" fill="#95A4FC"/>
<rect x="77.75" y="165" width="28" height="21" fill="#95A4FC"/>
<rect x="77.75" y="186" width="28" height="21" fill="#95A4FC"/>
<path d="M77.75 207H105.75V215.2C105.75 219.68 105.75 221.921 104.878 223.632C104.111 225.137 102.887 226.361 101.382 227.128C99.6706 228 97.4304 228 92.95 228H90.55C86.0696 228 83.8294 228 82.1181 227.128C80.6128 226.361 79.3889 225.137 78.6219 223.632C77.75 221.921 77.75 219.68 77.75 215.2V207Z" fill="#95A4FC"/>
<path d="M135.25 93.8C135.25 89.3196 135.25 87.0794 136.122 85.3681C136.889 83.8628 138.113 82.6389 139.618 81.8719C141.329 81 143.57 81 148.05 81H150.45C154.93 81 157.171 81 158.882 81.8719C160.387 82.6389 161.611 83.8628 162.378 85.3681C163.25 87.0794 163.25 89.3196 163.25 93.8V102H135.25V93.8Z" fill="#BAEDBD"/>
<rect x="135.25" y="102" width="28" height="21" fill="#BAEDBD"/>
<rect x="135.25" y="123" width="28" height="21" fill="#BAEDBD"/>
<rect x="135.25" y="144" width="28" height="21" fill="#BAEDBD"/>
<rect x="135.25" y="165" width="28" height="21" fill="#BAEDBD"/>
<rect x="135.25" y="186" width="28" height="21" fill="#BAEDBD"/>
<path d="M135.25 207H163.25V215.2C163.25 219.68 163.25 221.921 162.378 223.632C161.611 225.137 160.387 226.361 158.882 227.128C157.171 228 154.93 228 150.45 228H148.05C143.57 228 141.329 228 139.618 227.128C138.113 226.361 136.889 225.137 136.122 223.632C135.25 221.921 135.25 219.68 135.25 215.2V207Z" fill="#BAEDBD"/>
<path d="M192.75 135.8C192.75 131.32 192.75 129.079 193.622 127.368C194.389 125.863 195.613 124.639 197.118 123.872C198.829 123 201.07 123 205.55 123H207.95C212.43 123 214.671 123 216.382 123.872C217.887 124.639 219.111 125.863 219.878 127.368C220.75 129.079 220.75 131.32 220.75 135.8V144H192.75V135.8Z" fill="#1C1C1C"/>
<rect x="192.75" y="144" width="28" height="21" fill="#1C1C1C"/>
<rect x="192.75" y="165" width="28" height="21" fill="#1C1C1C"/>
<rect x="192.75" y="186" width="28" height="21" fill="#1C1C1C"/>
<path d="M192.75 207H220.75V215.2C220.75 219.68 220.75 221.921 219.878 223.632C219.111 225.137 217.887 226.361 216.382 227.128C214.671 228 212.43 228 207.95 228H205.55C201.07 228 198.829 228 197.118 227.128C195.613 226.361 194.389 225.137 193.622 223.632C192.75 221.921 192.75 219.68 192.75 215.2V207Z" fill="#1C1C1C"/>
<path d="M250.25 72.8C250.25 68.3196 250.25 66.0794 251.122 64.3681C251.889 62.8628 253.113 61.6389 254.618 60.8719C256.329 60 258.57 60 263.05 60H265.45C269.93 60 272.171 60 273.882 60.8719C275.387 61.6389 276.611 62.8628 277.378 64.3681C278.25 66.0794 278.25 68.3196 278.25 72.8V81H250.25V72.8Z" fill="#B1E3FF"/>
<rect x="250.25" y="81" width="28" height="21" fill="#B1E3FF"/>
<rect x="250.25" y="102" width="28" height="21" fill="#B1E3FF"/>
<rect x="250.25" y="123" width="28" height="21" fill="#B1E3FF"/>
<rect x="250.25" y="144" width="28" height="21" fill="#B1E3FF"/>
<rect x="250.25" y="165" width="28" height="21" fill="#B1E3FF"/>
<rect x="250.25" y="186" width="28" height="21" fill="#B1E3FF"/>
<path d="M250.25 207H278.25V215.2C278.25 219.68 278.25 221.921 277.378 223.632C276.611 225.137 275.387 226.361 273.882 227.128C272.171 228 269.93 228 265.45 228H263.05C258.57 228 256.329 228 254.618 227.128C253.113 226.361 251.889 225.137 251.122 223.632C250.25 221.921 250.25 219.68 250.25 215.2V207Z" fill="#B1E3FF"/>
<path d="M307.75 177.8C307.75 173.32 307.75 171.079 308.622 169.368C309.389 167.863 310.613 166.639 312.118 165.872C313.829 165 316.07 165 320.55 165H322.95C327.43 165 329.671 165 331.382 165.872C332.887 166.639 334.111 167.863 334.878 169.368C335.75 171.079 335.75 173.32 335.75 177.8V186H307.75V177.8Z" fill="#A8C5DA"/>
<rect x="307.75" y="186" width="28" height="21" fill="#A8C5DA"/>
<path d="M307.75 207H335.75V215.2C335.75 219.68 335.75 221.921 334.878 223.632C334.111 225.137 332.887 226.361 331.382 227.128C329.671 228 327.43 228 322.95 228H320.55C316.07 228 313.829 228 312.118 227.128C310.613 226.361 309.389 225.137 308.622 223.632C307.75 221.921 307.75 219.68 307.75 215.2V207Z" fill="#A8C5DA"/>
<path d="M365.25 114.8C365.25 110.32 365.25 108.079 366.122 106.368C366.889 104.863 368.113 103.639 369.618 102.872C371.329 102 373.57 102 378.05 102H380.45C384.93 102 387.171 102 388.882 102.872C390.387 103.639 391.611 104.863 392.378 106.368C393.25 108.079 393.25 110.32 393.25 114.8V123H365.25V114.8Z" fill="#A1E3CB"/>
<rect x="365.25" y="123" width="28" height="21" fill="#A1E3CB"/>
<rect x="365.25" y="144" width="28" height="21" fill="#A1E3CB"/>
<rect x="365.25" y="165" width="28" height="21" fill="#A1E3CB"/>
<rect x="365.25" y="186" width="28" height="21" fill="#A1E3CB"/>
<path d="M365.25 207H393.25V215.2C393.25 219.68 393.25 221.921 392.378 223.632C391.611 225.137 390.387 226.361 388.882 227.128C387.171 228 384.93 228 380.45 228H378.05C373.57 228 371.329 228 369.618 227.128C368.113 226.361 366.889 225.137 366.122 223.632C365.25 221.921 365.25 219.68 365.25 215.2V207Z" fill="#A1E3CB"/>
</svg>
