<svg width="432" height="280" viewBox="0 0 432 280" fill="none" xmlns="http://www.w3.org/2000/svg">
<path d="M0 16C0 7.16344 7.16344 0 16 0H416C424.837 0 432 7.16344 432 16V264C432 272.837 424.837 280 416 280H16C7.16343 280 0 272.837 0 264V16Z" fill="#F7F9FB"/>
<path d="M24.5568 30.3643V28.8182H32.6804V30.3643H29.5334V39H27.7038V30.3643H24.5568ZM33.3739 39V31.3636H35.119V32.6364H35.1985C35.3377 32.1955 35.5763 31.8558 35.9144 31.6172C36.2558 31.3752 36.6452 31.2543 37.0827 31.2543C37.1822 31.2543 37.2932 31.2592 37.4158 31.2692C37.5418 31.2758 37.6462 31.2874 37.729 31.304V32.9595C37.6528 32.933 37.5318 32.9098 37.3661 32.8899C37.2037 32.8667 37.0463 32.8551 36.8938 32.8551C36.5657 32.8551 36.2707 32.9264 36.0089 33.0689C35.7504 33.2081 35.5465 33.402 35.3974 33.6506C35.2482 33.8991 35.1737 34.1858 35.1737 34.5107V39H33.3739ZM41.4441 39.1342C40.8442 39.1342 40.3072 38.9801 39.8333 38.6719C39.3593 38.3636 38.9848 37.9162 38.7097 37.3295C38.4346 36.7429 38.2971 36.0303 38.2971 35.1918C38.2971 34.3433 38.4363 33.6274 38.7147 33.044C38.9964 32.4574 39.3759 32.0149 39.8532 31.7166C40.3304 31.415 40.8624 31.2642 41.449 31.2642C41.8965 31.2642 42.2644 31.3404 42.5527 31.4929C42.8411 31.642 43.0698 31.8227 43.2388 32.0348C43.4078 32.2436 43.5388 32.4408 43.6316 32.6264H43.7061V31.3636H45.5108V39H43.7409V37.7969H43.6316C43.5388 37.9825 43.4045 38.1797 43.2289 38.3885C43.0532 38.594 42.8212 38.7696 42.5328 38.9155C42.2445 39.0613 41.8816 39.1342 41.4441 39.1342ZM41.9462 37.6577C42.3274 37.6577 42.6522 37.5549 42.9206 37.3494C43.1891 37.1406 43.3929 36.8506 43.5321 36.4794C43.6713 36.1082 43.7409 35.6757 43.7409 35.1818C43.7409 34.688 43.6713 34.2588 43.5321 33.8942C43.3962 33.5296 43.1941 33.2462 42.9256 33.044C42.6605 32.8419 42.334 32.7408 41.9462 32.7408C41.5452 32.7408 41.2104 32.8452 40.9419 33.054C40.6735 33.2628 40.4713 33.5511 40.3354 33.919C40.1995 34.2869 40.1316 34.7079 40.1316 35.1818C40.1316 35.6591 40.1995 36.085 40.3354 36.4595C40.4746 36.8307 40.6784 37.1241 40.9469 37.3395C41.2187 37.5516 41.5518 37.6577 41.9462 37.6577ZM51.2965 31.3636V32.7557H46.7823V31.3636H51.2965ZM47.9109 39V30.6428C47.9109 30.129 48.0169 29.7015 48.229 29.3601C48.4445 29.0187 48.7328 28.7635 49.0941 28.5945C49.4554 28.4254 49.8564 28.3409 50.2972 28.3409C50.6088 28.3409 50.8855 28.3658 51.1275 28.4155C51.3694 28.4652 51.5484 28.5099 51.6644 28.5497L51.3065 29.9418C51.2302 29.9186 51.1341 29.8954 51.0181 29.8722C50.9021 29.8456 50.7728 29.8324 50.6303 29.8324C50.2956 29.8324 50.0586 29.9136 49.9194 30.076C49.7835 30.2351 49.7156 30.4638 49.7156 30.7621V39H47.9109ZM56.5739 31.3636V32.7557H52.0597V31.3636H56.5739ZM53.1882 39V30.6428C53.1882 30.129 53.2943 29.7015 53.5064 29.3601C53.7218 29.0187 54.0102 28.7635 54.3714 28.5945C54.7327 28.4254 55.1338 28.3409 55.5746 28.3409C55.8861 28.3409 56.1629 28.3658 56.4048 28.4155C56.6468 28.4652 56.8258 28.5099 56.9418 28.5497L56.5838 29.9418C56.5076 29.9186 56.4115 29.8954 56.2955 29.8722C56.1795 29.8456 56.0502 29.8324 55.9077 29.8324C55.5729 29.8324 55.3359 29.9136 55.1967 30.076C55.0608 30.2351 54.9929 30.4638 54.9929 30.7621V39H53.1882ZM57.9833 39V31.3636H59.783V39H57.9833ZM58.8881 30.2798C58.6031 30.2798 58.3578 30.1854 58.1523 29.9964C57.9469 29.8042 57.8441 29.5739 57.8441 29.3054C57.8441 29.0336 57.9469 28.8033 58.1523 28.6143C58.3578 28.4221 58.6031 28.326 58.8881 28.326C59.1765 28.326 59.4218 28.4221 59.6239 28.6143C59.8294 28.8033 59.9322 29.0336 59.9322 29.3054C59.9322 29.5739 59.8294 29.8042 59.6239 29.9964C59.4218 30.1854 59.1765 30.2798 58.8881 30.2798ZM64.9647 39.1491C64.2024 39.1491 63.5478 38.9818 63.0009 38.647C62.4573 38.3123 62.0381 37.8499 61.7431 37.2599C61.4514 36.6667 61.3056 35.9839 61.3056 35.2116C61.3056 34.4361 61.4547 33.7517 61.753 33.1584C62.0513 32.5618 62.4722 32.0978 63.0158 31.7663C63.5627 31.4316 64.209 31.2642 64.9547 31.2642C65.5745 31.2642 66.123 31.3786 66.6003 31.6072C67.0809 31.8326 67.4637 32.1525 67.7488 32.5668C68.0338 32.9777 68.1962 33.4583 68.236 34.0085H66.5158C66.4462 33.6406 66.2805 33.334 66.0186 33.0888C65.7601 32.8402 65.4138 32.7159 64.9796 32.7159C64.6117 32.7159 64.2885 32.8153 64.0101 33.0142C63.7317 33.2098 63.5146 33.4915 63.3588 33.8594C63.2064 34.2273 63.1301 34.6681 63.1301 35.1818C63.1301 35.7022 63.2064 36.1496 63.3588 36.5241C63.5113 36.8954 63.7251 37.1821 64.0002 37.3842C64.2786 37.5831 64.6051 37.6825 64.9796 37.6825C65.2447 37.6825 65.4817 37.6328 65.6905 37.5334C65.9026 37.4306 66.08 37.2831 66.2225 37.0909C66.365 36.8987 66.4628 36.665 66.5158 36.3899H68.236C68.1929 36.9302 68.0338 37.4091 67.7587 37.8267C67.4836 38.241 67.1091 38.5658 66.6351 38.8011C66.1612 39.0331 65.6043 39.1491 64.9647 39.1491ZM73.266 39V28.8182H75.0657V32.6264H75.1403C75.2331 32.4408 75.364 32.2436 75.533 32.0348C75.7021 31.8227 75.9308 31.642 76.2191 31.4929C76.5075 31.3404 76.8754 31.2642 77.3228 31.2642C77.9128 31.2642 78.4447 31.415 78.9187 31.7166C79.396 32.0149 79.7738 32.4574 80.0522 33.044C80.3339 33.6274 80.4748 34.3433 80.4748 35.1918C80.4748 36.0303 80.3372 36.7429 80.0621 37.3295C79.7871 37.9162 79.4125 38.3636 78.9386 38.6719C78.4646 38.9801 77.9277 39.1342 77.3278 39.1342C76.8903 39.1342 76.5273 39.0613 76.239 38.9155C75.9506 38.7696 75.7186 38.594 75.543 38.3885C75.3706 38.1797 75.2364 37.9825 75.1403 37.7969H75.0359V39H73.266ZM75.0309 35.1818C75.0309 35.6757 75.1005 36.1082 75.2397 36.4794C75.3822 36.8506 75.5861 37.1406 75.8512 37.3494C76.1197 37.5549 76.4445 37.6577 76.8256 37.6577C77.2234 37.6577 77.5565 37.5516 77.8249 37.3395C78.0934 37.1241 78.2956 36.8307 78.4315 36.4595C78.5707 36.085 78.6403 35.6591 78.6403 35.1818C78.6403 34.7079 78.5723 34.2869 78.4364 33.919C78.3005 33.5511 78.0984 33.2628 77.8299 33.054C77.5614 32.8452 77.2267 32.7408 76.8256 32.7408C76.4412 32.7408 76.1147 32.8419 75.8462 33.044C75.5778 33.2462 75.3739 33.5296 75.2347 33.8942C75.0988 34.2588 75.0309 34.688 75.0309 35.1818ZM82.8636 41.8636C82.6184 41.8636 82.3913 41.8438 82.1825 41.804C81.977 41.7675 81.813 41.7244 81.6903 41.6747L82.108 40.2727C82.3698 40.349 82.6035 40.3854 82.8089 40.3821C83.0144 40.3788 83.1951 40.3142 83.3509 40.1882C83.5099 40.0656 83.6442 39.8601 83.7536 39.5717L83.9077 39.1591L81.1385 31.3636H83.0476L84.8075 37.1307H84.8871L86.652 31.3636H88.5661L85.5085 39.9247C85.366 40.3291 85.1771 40.6754 84.9418 40.9638C84.7064 41.2554 84.4181 41.4775 84.0767 41.63C83.7386 41.7857 83.3343 41.8636 82.8636 41.8636ZM93.3636 39V28.8182H95.2081V37.4538H99.6925V39H93.3636ZM104.545 39.1491C103.799 39.1491 103.153 38.9851 102.606 38.657C102.059 38.3288 101.635 37.8698 101.333 37.2798C101.035 36.6899 100.886 36.0005 100.886 35.2116C100.886 34.4228 101.035 33.7318 101.333 33.1385C101.635 32.5452 102.059 32.0845 102.606 31.7564C103.153 31.4283 103.799 31.2642 104.545 31.2642C105.29 31.2642 105.937 31.4283 106.484 31.7564C107.031 32.0845 107.453 32.5452 107.751 33.1385C108.053 33.7318 108.204 34.4228 108.204 35.2116C108.204 36.0005 108.053 36.6899 107.751 37.2798C107.453 37.8698 107.031 38.3288 106.484 38.657C105.937 38.9851 105.29 39.1491 104.545 39.1491ZM104.555 37.7074C104.959 37.7074 105.297 37.5964 105.569 37.3743C105.841 37.1489 106.043 36.8473 106.175 36.4695C106.311 36.0916 106.379 35.6707 106.379 35.2067C106.379 34.7393 106.311 34.3168 106.175 33.9389C106.043 33.5578 105.841 33.2545 105.569 33.0291C105.297 32.8037 104.959 32.6911 104.555 32.6911C104.14 32.6911 103.796 32.8037 103.521 33.0291C103.249 33.2545 103.045 33.5578 102.909 33.9389C102.777 34.3168 102.71 34.7393 102.71 35.2067C102.71 35.6707 102.777 36.0916 102.909 36.4695C103.045 36.8473 103.249 37.1489 103.521 37.3743C103.796 37.5964 104.14 37.7074 104.555 37.7074ZM113.062 39.1491C112.3 39.1491 111.645 38.9818 111.099 38.647C110.555 38.3123 110.136 37.8499 109.841 37.2599C109.549 36.6667 109.403 35.9839 109.403 35.2116C109.403 34.4361 109.552 33.7517 109.851 33.1584C110.149 32.5618 110.57 32.0978 111.113 31.7663C111.66 31.4316 112.307 31.2642 113.052 31.2642C113.672 31.2642 114.221 31.3786 114.698 31.6072C115.179 31.8326 115.561 32.1525 115.846 32.5668C116.131 32.9777 116.294 33.4583 116.334 34.0085H114.613C114.544 33.6406 114.378 33.334 114.116 33.0888C113.858 32.8402 113.511 32.7159 113.077 32.7159C112.709 32.7159 112.386 32.8153 112.108 33.0142C111.829 33.2098 111.612 33.4915 111.456 33.8594C111.304 34.2273 111.228 34.6681 111.228 35.1818C111.228 35.7022 111.304 36.1496 111.456 36.5241C111.609 36.8954 111.823 37.1821 112.098 37.3842C112.376 37.5831 112.703 37.6825 113.077 37.6825C113.342 37.6825 113.579 37.6328 113.788 37.5334C114 37.4306 114.178 37.2831 114.32 37.0909C114.463 36.8987 114.56 36.665 114.613 36.3899H116.334C116.291 36.9302 116.131 37.4091 115.856 37.8267C115.581 38.241 115.207 38.5658 114.733 38.8011C114.259 39.0331 113.702 39.1491 113.062 39.1491ZM120.645 39.1342C120.045 39.1342 119.508 38.9801 119.034 38.6719C118.56 38.3636 118.186 37.9162 117.911 37.3295C117.636 36.7429 117.498 36.0303 117.498 35.1918C117.498 34.3433 117.637 33.6274 117.916 33.044C118.198 32.4574 118.577 32.0149 119.054 31.7166C119.532 31.415 120.064 31.2642 120.65 31.2642C121.098 31.2642 121.466 31.3404 121.754 31.4929C122.042 31.642 122.271 31.8227 122.44 32.0348C122.609 32.2436 122.74 32.4408 122.833 32.6264H122.907V31.3636H124.712V39H122.942V37.7969H122.833C122.74 37.9825 122.606 38.1797 122.43 38.3885C122.254 38.594 122.022 38.7696 121.734 38.9155C121.446 39.0613 121.083 39.1342 120.645 39.1342ZM121.147 37.6577C121.529 37.6577 121.853 37.5549 122.122 37.3494C122.39 37.1406 122.594 36.8506 122.733 36.4794C122.873 36.1082 122.942 35.6757 122.942 35.1818C122.942 34.688 122.873 34.2588 122.733 33.8942C122.597 33.5296 122.395 33.2462 122.127 33.044C121.862 32.8419 121.535 32.7408 121.147 32.7408C120.746 32.7408 120.412 32.8452 120.143 33.054C119.875 33.2628 119.672 33.5511 119.537 33.919C119.401 34.2869 119.333 34.7079 119.333 35.1818C119.333 35.6591 119.401 36.085 119.537 36.4595C119.676 36.8307 119.88 37.1241 120.148 37.3395C120.42 37.5516 120.753 37.6577 121.147 37.6577ZM130.443 31.3636V32.7557H126.053V31.3636H130.443ZM127.137 29.5341H128.937V36.7031C128.937 36.9451 128.973 37.1307 129.046 37.2599C129.122 37.3859 129.222 37.4721 129.344 37.5185C129.467 37.5649 129.603 37.5881 129.752 37.5881C129.865 37.5881 129.967 37.5798 130.06 37.5632C130.156 37.5466 130.229 37.5317 130.279 37.5185L130.582 38.9254C130.486 38.9586 130.349 38.995 130.17 39.0348C129.994 39.0746 129.778 39.0978 129.523 39.1044C129.073 39.1177 128.666 39.0497 128.305 38.9006C127.944 38.7481 127.657 38.5128 127.445 38.1946C127.236 37.8764 127.134 37.4787 127.137 37.0014V29.5341ZM131.948 39V31.3636H133.748V39H131.948ZM132.853 30.2798C132.568 30.2798 132.323 30.1854 132.117 29.9964C131.912 29.8042 131.809 29.5739 131.809 29.3054C131.809 29.0336 131.912 28.8033 132.117 28.6143C132.323 28.4221 132.568 28.326 132.853 28.326C133.141 28.326 133.387 28.4221 133.589 28.6143C133.794 28.8033 133.897 29.0336 133.897 29.3054C133.897 29.5739 133.794 29.8042 133.589 29.9964C133.387 30.1854 133.141 30.2798 132.853 30.2798ZM138.93 39.1491C138.184 39.1491 137.537 38.9851 136.991 38.657C136.444 38.3288 136.019 37.8698 135.718 37.2798C135.42 36.6899 135.27 36.0005 135.27 35.2116C135.27 34.4228 135.42 33.7318 135.718 33.1385C136.019 32.5452 136.444 32.0845 136.991 31.7564C137.537 31.4283 138.184 31.2642 138.93 31.2642C139.675 31.2642 140.322 31.4283 140.868 31.7564C141.415 32.0845 141.838 32.5452 142.136 33.1385C142.438 33.7318 142.589 34.4228 142.589 35.2116C142.589 36.0005 142.438 36.6899 142.136 37.2798C141.838 37.8698 141.415 38.3288 140.868 38.657C140.322 38.9851 139.675 39.1491 138.93 39.1491ZM138.939 37.7074C139.344 37.7074 139.682 37.5964 139.954 37.3743C140.225 37.1489 140.428 36.8473 140.56 36.4695C140.696 36.0916 140.764 35.6707 140.764 35.2067C140.764 34.7393 140.696 34.3168 140.56 33.9389C140.428 33.5578 140.225 33.2545 139.954 33.0291C139.682 32.8037 139.344 32.6911 138.939 32.6911C138.525 32.6911 138.18 32.8037 137.905 33.0291C137.634 33.2545 137.43 33.5578 137.294 33.9389C137.161 34.3168 137.095 34.7393 137.095 35.2067C137.095 35.6707 137.161 36.0916 137.294 36.4695C137.43 36.8473 137.634 37.1489 137.905 37.3743C138.18 37.5964 138.525 37.7074 138.939 37.7074ZM145.916 34.5256V39H144.116V31.3636H145.836V32.6612H145.926C146.101 32.2337 146.382 31.8939 146.766 31.642C147.154 31.3902 147.633 31.2642 148.203 31.2642C148.73 31.2642 149.189 31.3769 149.58 31.6023C149.974 31.8277 150.279 32.1541 150.495 32.5817C150.713 33.0092 150.821 33.5279 150.818 34.1378V39H149.018V34.4162C149.018 33.9058 148.886 33.5064 148.62 33.218C148.359 32.9297 147.996 32.7855 147.532 32.7855C147.217 32.7855 146.937 32.8551 146.691 32.9943C146.449 33.1302 146.259 33.3274 146.12 33.5859C145.984 33.8445 145.916 34.1577 145.916 34.5256Z" fill="#1C1C1C"/>
<mask id="mask0_549_8682" style="mask-type:alpha" maskUnits="userSpaceOnUse" x="90" y="98" width="74" height="120">
<path fill-rule="evenodd" clip-rule="evenodd" d="M90.4832 213.29C90.0477 214.916 91.0329 216.589 92.6858 216.904C96.3467 217.602 100.126 217.967 103.99 217.967C137.127 217.967 163.99 191.104 163.99 157.967C163.99 126.546 139.837 100.766 109.085 98.1806C107.395 98.0385 105.99 99.4045 105.99 101.1L105.99 125.224C105.99 126.804 107.22 128.097 108.781 128.348C123.072 130.641 133.99 143.029 133.99 157.967C133.99 174.536 120.558 187.967 103.99 187.967C102.737 187.967 101.502 187.89 100.289 187.741C98.6952 187.545 97.1317 188.478 96.716 190.029L90.4832 213.29Z" fill="url(#paint0_linear_549_8682)"/>
</mask>
<g mask="url(#mask0_549_8682)">
<path fill-rule="evenodd" clip-rule="evenodd" d="M90.4832 213.29C90.0477 214.916 91.0329 216.589 92.6858 216.904C96.3467 217.602 100.126 217.967 103.99 217.967C137.127 217.967 163.99 191.104 163.99 157.967C163.99 126.546 139.837 100.766 109.085 98.1806C107.395 98.0385 105.99 99.4045 105.99 101.1L105.99 125.224C105.99 126.804 107.22 128.097 108.781 128.348C123.072 130.641 133.99 143.029 133.99 157.967C133.99 174.536 120.558 187.967 103.99 187.967C102.737 187.967 101.502 187.89 100.289 187.741C98.6952 187.545 97.1317 188.478 96.716 190.029L90.4832 213.29Z" fill="url(#paint1_linear_549_8682)"/>
<path fill-rule="evenodd" clip-rule="evenodd" d="M90.4832 213.29C90.0477 214.916 91.0329 216.589 92.6858 216.904C96.3467 217.602 100.126 217.967 103.99 217.967C137.127 217.967 163.99 191.104 163.99 157.967C163.99 126.546 139.837 100.766 109.085 98.1806C107.395 98.0385 105.99 99.4045 105.99 101.1L105.99 125.224C105.99 126.804 107.22 128.097 108.781 128.348C123.072 130.641 133.99 143.029 133.99 157.967C133.99 174.536 120.558 187.967 103.99 187.967C102.737 187.967 101.502 187.89 100.289 187.741C98.6952 187.545 97.1317 188.478 96.716 190.029L90.4832 213.29Z" fill="#1C1C1C" style="mix-blend-mode:screen"/>
</g>
<mask id="mask1_549_8682" style="mask-type:alpha" maskUnits="userSpaceOnUse" x="44" y="143" width="51" height="73">
<path fill-rule="evenodd" clip-rule="evenodd" d="M44.1567 158.408C44.1567 154.475 44.5352 150.631 45.2576 146.909C45.6793 144.736 47.8901 143.465 50.0282 144.038L71.2942 149.736C73.4206 150.306 74.6585 152.487 74.3871 154.672C74.2351 155.896 74.1567 157.143 74.1567 158.408C74.1567 170.659 81.4996 181.194 92.0241 185.854C94.0102 186.733 95.2407 188.872 94.6785 190.97L88.9691 212.277C88.3927 214.429 86.1629 215.707 84.0642 214.961C60.8087 206.699 44.1567 184.498 44.1567 158.408Z" fill="url(#paint2_linear_549_8682)"/>
</mask>
<g mask="url(#mask1_549_8682)">
<path fill-rule="evenodd" clip-rule="evenodd" d="M44.1567 158.408C44.1567 154.475 44.5352 150.631 45.2576 146.909C45.6793 144.736 47.8901 143.465 50.0282 144.038L71.2942 149.736C73.4206 150.306 74.6585 152.487 74.3871 154.672C74.2351 155.896 74.1567 157.143 74.1567 158.408C74.1567 170.659 81.4996 181.194 92.0241 185.854C94.0102 186.733 95.2407 188.872 94.6785 190.97L88.9691 212.277C88.3927 214.429 86.1629 215.707 84.0642 214.961C60.8087 206.699 44.1567 184.498 44.1567 158.408Z" fill="#B1E3FF"/>
</g>
<mask id="mask2_549_8682" style="mask-type:alpha" maskUnits="userSpaceOnUse" x="47" y="107" width="41" height="41">
<path fill-rule="evenodd" clip-rule="evenodd" d="M76.1631 109.48C75.055 107.561 72.5888 106.897 70.7535 108.14C60.5786 115.028 52.6306 124.957 48.2145 136.622C47.4153 138.733 48.6928 141.011 50.8733 141.596L72.2718 147.329C74.3123 147.876 76.401 146.726 77.3202 144.824C79.3312 140.663 82.2748 137.037 85.8797 134.217C87.6098 132.864 88.2712 130.452 87.173 128.55L76.1631 109.48Z" fill="url(#paint3_linear_549_8682)"/>
</mask>
<g mask="url(#mask2_549_8682)">
<path fill-rule="evenodd" clip-rule="evenodd" d="M76.1631 109.48C75.055 107.561 72.5888 106.897 70.7535 108.14C60.5786 115.028 52.6306 124.957 48.2145 136.622C47.4153 138.733 48.6928 141.011 50.8733 141.596L72.2718 147.329C74.3123 147.876 76.401 146.726 77.3202 144.824C79.3312 140.663 82.2748 137.037 85.8797 134.217C87.6098 132.864 88.2712 130.452 87.173 128.55L76.1631 109.48Z" fill="#A1E3CB"/>
</g>
<mask id="mask3_549_8682" style="mask-type:alpha" maskUnits="userSpaceOnUse" x="76" y="98" width="28" height="32">
<path fill-rule="evenodd" clip-rule="evenodd" d="M88.5695 127.902C89.6285 129.736 91.9269 130.398 93.9248 129.694C95.8354 129.022 97.8346 128.537 99.9001 128.263C102.09 127.972 103.889 126.209 103.889 124V102C103.889 99.7909 102.096 97.986 99.8912 98.131C92.528 98.6154 85.5276 100.428 79.1273 103.331C77.0744 104.263 76.371 106.773 77.4982 108.726L88.5695 127.902Z" fill="url(#paint4_linear_549_8682)"/>
</mask>
<g mask="url(#mask3_549_8682)">
<path fill-rule="evenodd" clip-rule="evenodd" d="M88.5695 127.902C89.6285 129.736 91.9269 130.398 93.9248 129.694C95.8354 129.022 97.8346 128.537 99.9001 128.263C102.09 127.972 103.889 126.209 103.889 124V102C103.889 99.7909 102.096 97.986 99.8912 98.131C92.528 98.6154 85.5276 100.428 79.1273 103.331C77.0744 104.263 76.371 106.773 77.4982 108.726L88.5695 127.902Z" fill="#A8C5DA"/>
</g>
<path d="M219 107C219 108.657 217.657 110 216 110C214.343 110 213 108.657 213 107C213 105.343 214.343 104 216 104C217.657 104 219 105.343 219 107Z" fill="#1C1C1C"/>
<path d="M230.784 102.273H231.841V108.051C231.841 108.648 231.7 109.18 231.419 109.649C231.141 110.115 230.747 110.483 230.239 110.753C229.73 111.02 229.134 111.153 228.449 111.153C227.764 111.153 227.168 111.02 226.659 110.753C226.151 110.483 225.756 110.115 225.474 109.649C225.196 109.18 225.057 108.648 225.057 108.051V102.273H226.114V107.966C226.114 108.392 226.207 108.771 226.395 109.104C226.582 109.433 226.849 109.693 227.196 109.884C227.545 110.071 227.963 110.165 228.449 110.165C228.935 110.165 229.352 110.071 229.702 109.884C230.051 109.693 230.318 109.433 230.503 109.104C230.69 108.771 230.784 108.392 230.784 107.966V102.273ZM234.821 107.062V111H233.815V104.455H234.787V105.477H234.872C235.025 105.145 235.258 104.878 235.571 104.676C235.883 104.472 236.287 104.369 236.781 104.369C237.224 104.369 237.612 104.46 237.944 104.642C238.277 104.821 238.535 105.094 238.72 105.46C238.904 105.824 238.997 106.284 238.997 106.841V111H237.991V106.909C237.991 106.395 237.858 105.994 237.591 105.707C237.324 105.418 236.957 105.273 236.491 105.273C236.17 105.273 235.883 105.342 235.63 105.482C235.38 105.621 235.183 105.824 235.038 106.091C234.893 106.358 234.821 106.682 234.821 107.062ZM240.835 111V104.455H241.84V111H240.835ZM241.346 103.364C241.15 103.364 240.981 103.297 240.839 103.163C240.7 103.03 240.63 102.869 240.63 102.682C240.63 102.494 240.7 102.334 240.839 102.2C240.981 102.067 241.15 102 241.346 102C241.542 102 241.71 102.067 241.849 102.2C241.991 102.334 242.062 102.494 242.062 102.682C242.062 102.869 241.991 103.03 241.849 103.163C241.71 103.297 241.542 103.364 241.346 103.364ZM246.529 104.455V105.307H243.137V104.455H246.529ZM244.125 102.886H245.131V109.125C245.131 109.409 245.172 109.622 245.255 109.764C245.34 109.903 245.448 109.997 245.578 110.045C245.712 110.091 245.853 110.114 246 110.114C246.111 110.114 246.202 110.108 246.273 110.097C246.344 110.082 246.401 110.071 246.444 110.062L246.648 110.966C246.58 110.991 246.485 111.017 246.363 111.043C246.24 111.071 246.086 111.085 245.898 111.085C245.614 111.085 245.336 111.024 245.063 110.902C244.793 110.78 244.569 110.594 244.39 110.344C244.213 110.094 244.125 109.778 244.125 109.398V102.886ZM250.716 111.136C250.085 111.136 249.541 110.997 249.083 110.719C248.629 110.438 248.278 110.045 248.031 109.543C247.787 109.037 247.664 108.449 247.664 107.778C247.664 107.108 247.787 106.517 248.031 106.006C248.278 105.491 248.622 105.091 249.062 104.804C249.505 104.514 250.022 104.369 250.613 104.369C250.954 104.369 251.291 104.426 251.623 104.54C251.956 104.653 252.258 104.838 252.531 105.094C252.804 105.347 253.021 105.682 253.183 106.099C253.345 106.517 253.426 107.031 253.426 107.642V108.068H248.38V107.199H252.403C252.403 106.83 252.329 106.5 252.181 106.21C252.037 105.92 251.829 105.692 251.559 105.524C251.292 105.357 250.977 105.273 250.613 105.273C250.213 105.273 249.866 105.372 249.574 105.571C249.284 105.767 249.061 106.023 248.904 106.338C248.748 106.653 248.67 106.991 248.67 107.352V107.932C248.67 108.426 248.755 108.845 248.926 109.189C249.099 109.53 249.339 109.79 249.646 109.969C249.953 110.145 250.309 110.233 250.716 110.233C250.98 110.233 251.218 110.196 251.431 110.122C251.647 110.045 251.833 109.932 251.99 109.781C252.146 109.628 252.267 109.437 252.352 109.21L253.324 109.483C253.221 109.812 253.049 110.102 252.808 110.352C252.566 110.599 252.268 110.793 251.913 110.932C251.558 111.068 251.159 111.136 250.716 111.136ZM257.427 111.136C256.882 111.136 256.4 110.999 255.983 110.723C255.565 110.445 255.238 110.053 255.002 109.547C254.767 109.038 254.649 108.438 254.649 107.744C254.649 107.057 254.767 106.46 255.002 105.955C255.238 105.449 255.566 105.058 255.987 104.783C256.407 104.507 256.893 104.369 257.444 104.369C257.87 104.369 258.207 104.44 258.454 104.582C258.704 104.722 258.895 104.881 259.025 105.06C259.159 105.236 259.262 105.381 259.336 105.494H259.422V102.273H260.427V111H259.456V109.994H259.336C259.262 110.114 259.157 110.264 259.021 110.446C258.885 110.625 258.69 110.786 258.437 110.928C258.184 111.067 257.848 111.136 257.427 111.136ZM257.564 110.233C257.967 110.233 258.308 110.128 258.586 109.918C258.865 109.705 259.076 109.411 259.221 109.036C259.366 108.658 259.439 108.222 259.439 107.727C259.439 107.239 259.368 106.811 259.225 106.445C259.083 106.075 258.873 105.788 258.595 105.584C258.316 105.376 257.973 105.273 257.564 105.273C257.137 105.273 256.782 105.382 256.498 105.601C256.217 105.817 256.005 106.111 255.863 106.483C255.724 106.852 255.654 107.267 255.654 107.727C255.654 108.193 255.725 108.616 255.868 108.997C256.012 109.375 256.225 109.676 256.507 109.901C256.791 110.122 257.143 110.233 257.564 110.233ZM270.693 104.455C270.642 104.023 270.434 103.688 270.071 103.449C269.707 103.21 269.261 103.091 268.733 103.091C268.346 103.091 268.008 103.153 267.718 103.278C267.431 103.403 267.207 103.575 267.045 103.794C266.886 104.013 266.806 104.261 266.806 104.54C266.806 104.773 266.862 104.973 266.973 105.141C267.086 105.305 267.231 105.443 267.407 105.554C267.583 105.662 267.768 105.751 267.961 105.822C268.154 105.891 268.332 105.946 268.494 105.989L269.38 106.227C269.608 106.287 269.86 106.369 270.139 106.474C270.42 106.58 270.689 106.723 270.944 106.905C271.203 107.084 271.416 107.314 271.583 107.595C271.751 107.876 271.835 108.222 271.835 108.631C271.835 109.102 271.711 109.528 271.464 109.909C271.22 110.29 270.862 110.592 270.39 110.817C269.922 111.041 269.352 111.153 268.681 111.153C268.056 111.153 267.515 111.053 267.058 110.851C266.603 110.649 266.245 110.368 265.984 110.007C265.725 109.646 265.579 109.227 265.545 108.75H266.636C266.664 109.08 266.775 109.352 266.968 109.568C267.164 109.781 267.412 109.94 267.71 110.045C268.011 110.148 268.335 110.199 268.681 110.199C269.085 110.199 269.447 110.134 269.768 110.003C270.089 109.869 270.343 109.685 270.531 109.449C270.718 109.21 270.812 108.932 270.812 108.614C270.812 108.324 270.731 108.088 270.569 107.906C270.407 107.724 270.194 107.577 269.93 107.463C269.666 107.349 269.38 107.25 269.074 107.165L268 106.858C267.318 106.662 266.778 106.382 266.38 106.018C265.983 105.655 265.784 105.179 265.784 104.591C265.784 104.102 265.916 103.676 266.18 103.312C266.447 102.946 266.805 102.662 267.254 102.46C267.706 102.256 268.21 102.153 268.767 102.153C269.329 102.153 269.829 102.254 270.267 102.456C270.704 102.655 271.051 102.928 271.306 103.274C271.565 103.621 271.701 104.014 271.716 104.455H270.693ZM276.283 104.455V105.307H272.891V104.455H276.283ZM273.879 102.886H274.885V109.125C274.885 109.409 274.926 109.622 275.009 109.764C275.094 109.903 275.202 109.997 275.332 110.045C275.466 110.091 275.607 110.114 275.754 110.114C275.865 110.114 275.956 110.108 276.027 110.097C276.098 110.082 276.155 110.071 276.197 110.062L276.402 110.966C276.334 110.991 276.239 111.017 276.116 111.043C275.994 111.071 275.839 111.085 275.652 111.085C275.368 111.085 275.089 111.024 274.817 110.902C274.547 110.78 274.322 110.594 274.143 110.344C273.967 110.094 273.879 109.778 273.879 109.398V102.886ZM280.197 111.136C279.651 111.136 279.17 110.999 278.752 110.723C278.335 110.445 278.008 110.053 277.772 109.547C277.536 109.038 277.418 108.438 277.418 107.744C277.418 107.057 277.536 106.46 277.772 105.955C278.008 105.449 278.336 105.058 278.756 104.783C279.177 104.507 279.663 104.369 280.214 104.369C280.64 104.369 280.977 104.44 281.224 104.582C281.474 104.722 281.664 104.881 281.795 105.06C281.928 105.236 282.032 105.381 282.106 105.494H282.191V104.455H283.197V111H282.225V109.994H282.106C282.032 110.114 281.927 110.264 281.79 110.446C281.654 110.625 281.46 110.786 281.207 110.928C280.954 111.067 280.617 111.136 280.197 111.136ZM280.333 110.233C280.737 110.233 281.077 110.128 281.356 109.918C281.634 109.705 281.846 109.411 281.991 109.036C282.136 108.658 282.208 108.222 282.208 107.727C282.208 107.239 282.137 106.811 281.995 106.445C281.853 106.075 281.643 105.788 281.364 105.584C281.086 105.376 280.742 105.273 280.333 105.273C279.907 105.273 279.552 105.382 279.268 105.601C278.987 105.817 278.775 106.111 278.633 106.483C278.494 106.852 278.424 107.267 278.424 107.727C278.424 108.193 278.495 108.616 278.637 108.997C278.782 109.375 278.995 109.676 279.276 109.901C279.56 110.122 279.913 110.233 280.333 110.233ZM288.025 104.455V105.307H284.633V104.455H288.025ZM285.621 102.886H286.627V109.125C286.627 109.409 286.668 109.622 286.751 109.764C286.836 109.903 286.944 109.997 287.075 110.045C287.208 110.091 287.349 110.114 287.496 110.114C287.607 110.114 287.698 110.108 287.769 110.097C287.84 110.082 287.897 110.071 287.94 110.062L288.144 110.966C288.076 110.991 287.981 111.017 287.859 111.043C287.737 111.071 287.582 111.085 287.394 111.085C287.11 111.085 286.832 111.024 286.559 110.902C286.289 110.78 286.065 110.594 285.886 110.344C285.71 110.094 285.621 109.778 285.621 109.398V102.886ZM292.212 111.136C291.581 111.136 291.037 110.997 290.58 110.719C290.125 110.438 289.774 110.045 289.527 109.543C289.283 109.037 289.161 108.449 289.161 107.778C289.161 107.108 289.283 106.517 289.527 106.006C289.774 105.491 290.118 105.091 290.558 104.804C291.001 104.514 291.518 104.369 292.109 104.369C292.45 104.369 292.787 104.426 293.119 104.54C293.452 104.653 293.754 104.838 294.027 105.094C294.3 105.347 294.517 105.682 294.679 106.099C294.841 106.517 294.922 107.031 294.922 107.642V108.068H289.876V107.199H293.899C293.899 106.83 293.825 106.5 293.678 106.21C293.533 105.92 293.325 105.692 293.055 105.524C292.788 105.357 292.473 105.273 292.109 105.273C291.709 105.273 291.362 105.372 291.07 105.571C290.78 105.767 290.557 106.023 290.401 106.338C290.244 106.653 290.166 106.991 290.166 107.352V107.932C290.166 108.426 290.251 108.845 290.422 109.189C290.595 109.53 290.835 109.79 291.142 109.969C291.449 110.145 291.805 110.233 292.212 110.233C292.476 110.233 292.714 110.196 292.928 110.122C293.143 110.045 293.33 109.932 293.486 109.781C293.642 109.628 293.763 109.437 293.848 109.21L294.82 109.483C294.717 109.812 294.545 110.102 294.304 110.352C294.063 110.599 293.764 110.793 293.409 110.932C293.054 111.068 292.655 111.136 292.212 111.136ZM301.088 105.92L300.185 106.176C300.128 106.026 300.044 105.879 299.933 105.737C299.825 105.592 299.678 105.473 299.49 105.379C299.303 105.286 299.062 105.239 298.77 105.239C298.369 105.239 298.036 105.331 297.768 105.516C297.504 105.697 297.372 105.929 297.372 106.21C297.372 106.46 297.463 106.658 297.645 106.803C297.827 106.947 298.111 107.068 298.497 107.165L299.469 107.403C300.054 107.545 300.49 107.763 300.777 108.055C301.064 108.345 301.207 108.719 301.207 109.176C301.207 109.551 301.099 109.886 300.884 110.182C300.67 110.477 300.372 110.71 299.989 110.881C299.605 111.051 299.159 111.136 298.651 111.136C297.983 111.136 297.43 110.991 296.993 110.702C296.555 110.412 296.278 109.989 296.162 109.432L297.116 109.193C297.207 109.545 297.379 109.81 297.632 109.986C297.888 110.162 298.222 110.25 298.634 110.25C299.102 110.25 299.474 110.151 299.75 109.952C300.028 109.75 300.168 109.509 300.168 109.227C300.168 109 300.088 108.81 299.929 108.656C299.77 108.5 299.526 108.384 299.196 108.307L298.105 108.051C297.506 107.909 297.065 107.689 296.784 107.391C296.506 107.089 296.366 106.713 296.366 106.261C296.366 105.892 296.47 105.565 296.678 105.281C296.888 104.997 297.173 104.774 297.534 104.612C297.898 104.45 298.31 104.369 298.77 104.369C299.418 104.369 299.926 104.511 300.295 104.795C300.668 105.08 300.932 105.455 301.088 105.92Z" fill="#1C1C1C"/>
<path d="M353.767 108.818H354.841C354.872 109.114 354.973 109.364 355.143 109.568C355.317 109.77 355.541 109.923 355.817 110.028C356.092 110.131 356.398 110.182 356.733 110.182C357.097 110.182 357.423 110.121 357.713 109.999C358.003 109.876 358.233 109.695 358.403 109.453C358.574 109.209 358.659 108.906 358.659 108.545C358.659 108.23 358.585 107.937 358.438 107.668C358.29 107.395 358.053 107.175 357.726 107.007C357.399 106.839 356.966 106.756 356.426 106.756H355.727V105.903L357.909 103.278V103.21H354.193V102.273H359.358V103.04L357.023 105.869V105.938C357.398 105.955 357.747 106.031 358.071 106.168C358.398 106.304 358.682 106.489 358.923 106.722C359.168 106.955 359.358 107.226 359.494 107.536C359.631 107.845 359.699 108.182 359.699 108.545C359.699 109.043 359.571 109.486 359.315 109.875C359.063 110.261 358.712 110.565 358.263 110.787C357.817 111.009 357.301 111.119 356.716 111.119C356.199 111.119 355.723 111.028 355.288 110.847C354.854 110.665 354.5 110.402 354.227 110.058C353.955 109.714 353.801 109.301 353.767 108.818ZM364.234 111.119C363.649 111.119 363.132 111.016 362.683 110.808C362.237 110.598 361.889 110.31 361.639 109.943C361.389 109.574 361.265 109.153 361.268 108.682C361.265 108.312 361.338 107.972 361.485 107.659C361.633 107.344 361.835 107.081 362.091 106.871C362.349 106.658 362.637 106.523 362.956 106.466V106.415C362.538 106.307 362.206 106.072 361.958 105.712C361.711 105.348 361.589 104.935 361.592 104.472C361.589 104.028 361.701 103.632 361.929 103.283C362.156 102.933 362.468 102.658 362.866 102.456C363.267 102.254 363.723 102.153 364.234 102.153C364.74 102.153 365.191 102.254 365.589 102.456C365.987 102.658 366.299 102.933 366.527 103.283C366.757 103.632 366.873 104.028 366.876 104.472C366.873 104.935 366.747 105.348 366.497 105.712C366.25 106.072 365.922 106.307 365.512 106.415V106.466C365.828 106.523 366.112 106.658 366.365 106.871C366.618 107.081 366.819 107.344 366.97 107.659C367.12 107.972 367.197 108.312 367.2 108.682C367.197 109.153 367.069 109.574 366.816 109.943C366.566 110.31 366.218 110.598 365.772 110.808C365.329 111.016 364.816 111.119 364.234 111.119ZM364.234 110.182C364.629 110.182 364.97 110.118 365.257 109.99C365.544 109.862 365.765 109.682 365.922 109.449C366.078 109.216 366.157 108.943 366.16 108.631C366.157 108.301 366.072 108.01 365.904 107.757C365.737 107.504 365.508 107.305 365.218 107.161C364.931 107.016 364.603 106.943 364.234 106.943C363.862 106.943 363.529 107.016 363.237 107.161C362.947 107.305 362.718 107.504 362.551 107.757C362.386 108.01 362.305 108.301 362.308 108.631C362.305 108.943 362.38 109.216 362.534 109.449C362.69 109.682 362.913 109.862 363.203 109.99C363.493 110.118 363.836 110.182 364.234 110.182ZM364.234 106.04C364.547 106.04 364.824 105.977 365.065 105.852C365.309 105.727 365.501 105.553 365.64 105.328C365.779 105.104 365.85 104.841 365.853 104.54C365.85 104.244 365.781 103.987 365.645 103.768C365.508 103.547 365.319 103.376 365.078 103.257C364.836 103.135 364.555 103.074 364.234 103.074C363.907 103.074 363.622 103.135 363.377 103.257C363.133 103.376 362.944 103.547 362.811 103.768C362.677 103.987 362.612 104.244 362.615 104.54C362.612 104.841 362.679 105.104 362.815 105.328C362.954 105.553 363.146 105.727 363.39 105.852C363.635 105.977 363.916 106.04 364.234 106.04ZM369.314 111.068C369.103 111.068 368.923 110.993 368.772 110.842C368.622 110.692 368.547 110.511 368.547 110.301C368.547 110.091 368.622 109.911 368.772 109.76C368.923 109.609 369.103 109.534 369.314 109.534C369.524 109.534 369.704 109.609 369.855 109.76C370.005 109.911 370.081 110.091 370.081 110.301C370.081 110.44 370.045 110.568 369.974 110.685C369.906 110.801 369.814 110.895 369.697 110.966C369.583 111.034 369.456 111.068 369.314 111.068ZM371.664 108.239C371.669 107.966 371.711 107.683 371.787 107.391C371.864 107.098 371.993 106.773 372.175 106.415C372.357 106.057 372.607 105.642 372.925 105.17L374.885 102.273H376.044L373.743 105.631C373.846 105.597 373.951 105.568 374.059 105.545C374.169 105.523 374.28 105.511 374.391 105.511C374.919 105.511 375.391 105.634 375.806 105.878C376.223 106.122 376.551 106.456 376.79 106.879C377.032 107.303 377.152 107.784 377.152 108.324C377.152 108.864 377.033 109.344 376.794 109.764C376.559 110.185 376.233 110.516 375.819 110.757C375.407 110.999 374.936 111.119 374.408 111.119C373.874 111.119 373.4 110.996 372.985 110.749C372.57 110.499 372.245 110.158 372.009 109.726C371.773 109.291 371.658 108.795 371.664 108.239ZM372.669 108.307C372.669 108.676 372.743 109.003 372.891 109.287C373.039 109.571 373.243 109.794 373.505 109.956C373.766 110.118 374.067 110.199 374.408 110.199C374.749 110.199 375.05 110.119 375.311 109.96C375.573 109.798 375.777 109.577 375.925 109.295C376.073 109.011 376.147 108.687 376.147 108.324C376.147 107.955 376.073 107.629 375.925 107.348C375.777 107.067 375.573 106.847 375.311 106.688C375.05 106.528 374.749 106.449 374.408 106.449C374.067 106.449 373.766 106.528 373.505 106.688C373.243 106.844 373.039 107.062 372.891 107.344C372.743 107.622 372.669 107.943 372.669 108.307ZM383.208 109.364V108.903C383.208 108.585 383.273 108.294 383.404 108.03C383.537 107.763 383.73 107.55 383.983 107.391C384.239 107.229 384.549 107.148 384.912 107.148C385.282 107.148 385.591 107.229 385.841 107.391C386.091 107.55 386.28 107.763 386.408 108.03C386.536 108.294 386.6 108.585 386.6 108.903V109.364C386.6 109.682 386.534 109.974 386.404 110.241C386.276 110.506 386.086 110.719 385.833 110.881C385.583 111.04 385.276 111.119 384.912 111.119C384.543 111.119 384.232 111.04 383.979 110.881C383.726 110.719 383.534 110.506 383.404 110.241C383.273 109.974 383.208 109.682 383.208 109.364ZM384.077 108.903V109.364C384.077 109.628 384.14 109.865 384.265 110.075C384.39 110.283 384.605 110.386 384.912 110.386C385.211 110.386 385.421 110.283 385.543 110.075C385.668 109.865 385.73 109.628 385.73 109.364V108.903C385.73 108.639 385.671 108.403 385.551 108.196C385.432 107.986 385.219 107.881 384.912 107.881C384.614 107.881 384.4 107.986 384.269 108.196C384.141 108.403 384.077 108.639 384.077 108.903ZM378.861 104.369V103.909C378.861 103.591 378.926 103.3 379.057 103.036C379.191 102.768 379.384 102.555 379.637 102.396C379.892 102.234 380.202 102.153 380.566 102.153C380.935 102.153 381.245 102.234 381.495 102.396C381.745 102.555 381.934 102.768 382.061 103.036C382.189 103.3 382.253 103.591 382.253 103.909V104.369C382.253 104.687 382.188 104.98 382.057 105.247C381.929 105.511 381.739 105.724 381.486 105.886C381.236 106.045 380.929 106.125 380.566 106.125C380.196 106.125 379.885 106.045 379.632 105.886C379.38 105.724 379.188 105.511 379.057 105.247C378.926 104.98 378.861 104.687 378.861 104.369ZM379.73 103.909V104.369C379.73 104.634 379.793 104.871 379.918 105.081C380.043 105.288 380.259 105.392 380.566 105.392C380.864 105.392 381.074 105.288 381.196 105.081C381.321 104.871 381.384 104.634 381.384 104.369V103.909C381.384 103.645 381.324 103.409 381.205 103.202C381.086 102.991 380.873 102.886 380.566 102.886C380.267 102.886 380.053 102.991 379.922 103.202C379.794 103.409 379.73 103.645 379.73 103.909ZM379.185 111L385.185 102.273H386.157L380.157 111H379.185Z" fill="#1C1C1C"/>
<path d="M219 141C219 142.657 217.657 144 216 144C214.343 144 213 142.657 213 141C213 139.343 214.343 138 216 138C217.657 138 219 139.343 219 141Z" fill="#A1E3CB"/>
<path d="M232.08 139H231.023C230.96 138.696 230.851 138.429 230.695 138.199C230.541 137.969 230.354 137.776 230.132 137.619C229.913 137.46 229.67 137.341 229.403 137.261C229.136 137.182 228.858 137.142 228.568 137.142C228.04 137.142 227.561 137.276 227.132 137.543C226.706 137.81 226.366 138.203 226.114 138.723C225.864 139.243 225.739 139.881 225.739 140.636C225.739 141.392 225.864 142.03 226.114 142.55C226.366 143.07 226.706 143.463 227.132 143.73C227.561 143.997 228.04 144.131 228.568 144.131C228.858 144.131 229.136 144.091 229.403 144.011C229.67 143.932 229.913 143.814 230.132 143.658C230.354 143.499 230.541 143.304 230.695 143.074C230.851 142.841 230.96 142.574 231.023 142.273H232.08C232 142.719 231.855 143.118 231.645 143.47C231.435 143.822 231.173 144.122 230.861 144.369C230.548 144.614 230.197 144.8 229.808 144.928C229.422 145.055 229.009 145.119 228.568 145.119C227.824 145.119 227.162 144.938 226.582 144.574C226.003 144.21 225.547 143.693 225.214 143.023C224.882 142.352 224.716 141.557 224.716 140.636C224.716 139.716 224.882 138.92 225.214 138.25C225.547 137.58 226.003 137.062 226.582 136.699C227.162 136.335 227.824 136.153 228.568 136.153C229.009 136.153 229.422 136.217 229.808 136.345C230.197 136.473 230.548 136.661 230.861 136.908C231.173 137.152 231.435 137.45 231.645 137.803C231.855 138.152 232 138.551 232.08 139ZM236.123 145.136C235.577 145.136 235.096 144.999 234.678 144.723C234.26 144.445 233.934 144.053 233.698 143.547C233.462 143.038 233.344 142.438 233.344 141.744C233.344 141.057 233.462 140.46 233.698 139.955C233.934 139.449 234.262 139.058 234.682 138.783C235.103 138.507 235.588 138.369 236.14 138.369C236.566 138.369 236.902 138.44 237.15 138.582C237.4 138.722 237.59 138.881 237.721 139.06C237.854 139.236 237.958 139.381 238.032 139.494H238.117V138.455H239.123V145H238.151V143.994H238.032C237.958 144.114 237.853 144.264 237.716 144.446C237.58 144.625 237.385 144.786 237.132 144.928C236.88 145.067 236.543 145.136 236.123 145.136ZM236.259 144.233C236.662 144.233 237.003 144.128 237.282 143.918C237.56 143.705 237.772 143.411 237.917 143.036C238.061 142.658 238.134 142.222 238.134 141.727C238.134 141.239 238.063 140.811 237.921 140.445C237.779 140.075 237.569 139.788 237.29 139.584C237.012 139.376 236.668 139.273 236.259 139.273C235.833 139.273 235.478 139.382 235.194 139.601C234.912 139.817 234.701 140.111 234.559 140.483C234.419 140.852 234.35 141.267 234.35 141.727C234.35 142.193 234.421 142.616 234.563 142.997C234.708 143.375 234.921 143.676 235.202 143.901C235.486 144.122 235.838 144.233 236.259 144.233ZM242.11 141.062V145H241.104V138.455H242.076V139.477H242.161C242.314 139.145 242.547 138.878 242.86 138.676C243.172 138.472 243.576 138.369 244.07 138.369C244.513 138.369 244.901 138.46 245.233 138.642C245.566 138.821 245.824 139.094 246.009 139.46C246.194 139.824 246.286 140.284 246.286 140.841V145H245.28V140.909C245.28 140.395 245.147 139.994 244.88 139.707C244.613 139.418 244.246 139.273 243.78 139.273C243.459 139.273 243.172 139.342 242.919 139.482C242.669 139.621 242.472 139.824 242.327 140.091C242.182 140.358 242.11 140.682 242.11 141.062ZM250.595 145.136C250.05 145.136 249.568 144.999 249.151 144.723C248.733 144.445 248.406 144.053 248.17 143.547C247.935 143.038 247.817 142.438 247.817 141.744C247.817 141.057 247.935 140.46 248.17 139.955C248.406 139.449 248.734 139.058 249.155 138.783C249.575 138.507 250.061 138.369 250.612 138.369C251.038 138.369 251.375 138.44 251.622 138.582C251.872 138.722 252.063 138.881 252.193 139.06C252.327 139.236 252.43 139.381 252.504 139.494H252.589V138.455H253.595V145H252.624V143.994H252.504C252.43 144.114 252.325 144.264 252.189 144.446C252.053 144.625 251.858 144.786 251.605 144.928C251.352 145.067 251.016 145.136 250.595 145.136ZM250.732 144.233C251.135 144.233 251.476 144.128 251.754 143.918C252.033 143.705 252.244 143.411 252.389 143.036C252.534 142.658 252.607 142.222 252.607 141.727C252.607 141.239 252.536 140.811 252.393 140.445C252.251 140.075 252.041 139.788 251.763 139.584C251.484 139.376 251.141 139.273 250.732 139.273C250.305 139.273 249.95 139.382 249.666 139.601C249.385 139.817 249.173 140.111 249.031 140.483C248.892 140.852 248.822 141.267 248.822 141.727C248.822 142.193 248.893 142.616 249.036 142.997C249.18 143.375 249.393 143.676 249.675 143.901C249.959 144.122 250.311 144.233 250.732 144.233ZM258.048 145.136C257.503 145.136 257.021 144.999 256.604 144.723C256.186 144.445 255.859 144.053 255.624 143.547C255.388 143.038 255.27 142.438 255.27 141.744C255.27 141.057 255.388 140.46 255.624 139.955C255.859 139.449 256.188 139.058 256.608 138.783C257.028 138.507 257.514 138.369 258.065 138.369C258.491 138.369 258.828 138.44 259.075 138.582C259.325 138.722 259.516 138.881 259.646 139.06C259.78 139.236 259.884 139.381 259.957 139.494H260.043V136.273H261.048V145H260.077V143.994H259.957C259.884 144.114 259.778 144.264 259.642 144.446C259.506 144.625 259.311 144.786 259.058 144.928C258.805 145.067 258.469 145.136 258.048 145.136ZM258.185 144.233C258.588 144.233 258.929 144.128 259.207 143.918C259.486 143.705 259.697 143.411 259.842 143.036C259.987 142.658 260.06 142.222 260.06 141.727C260.06 141.239 259.989 140.811 259.847 140.445C259.705 140.075 259.494 139.788 259.216 139.584C258.938 139.376 258.594 139.273 258.185 139.273C257.759 139.273 257.403 139.382 257.119 139.601C256.838 139.817 256.626 140.111 256.484 140.483C256.345 140.852 256.276 141.267 256.276 141.727C256.276 142.193 256.347 142.616 256.489 142.997C256.634 143.375 256.847 143.676 257.128 143.901C257.412 144.122 257.764 144.233 258.185 144.233ZM265.501 145.136C264.956 145.136 264.474 144.999 264.057 144.723C263.639 144.445 263.313 144.053 263.077 143.547C262.841 143.038 262.723 142.438 262.723 141.744C262.723 141.057 262.841 140.46 263.077 139.955C263.313 139.449 263.641 139.058 264.061 138.783C264.482 138.507 264.967 138.369 265.518 138.369C265.945 138.369 266.281 138.44 266.528 138.582C266.778 138.722 266.969 138.881 267.099 139.06C267.233 139.236 267.337 139.381 267.411 139.494H267.496V138.455H268.501V145H267.53V143.994H267.411C267.337 144.114 267.232 144.264 267.095 144.446C266.959 144.625 266.764 144.786 266.511 144.928C266.259 145.067 265.922 145.136 265.501 145.136ZM265.638 144.233C266.041 144.233 266.382 144.128 266.661 143.918C266.939 143.705 267.151 143.411 267.295 143.036C267.44 142.658 267.513 142.222 267.513 141.727C267.513 141.239 267.442 140.811 267.3 140.445C267.158 140.075 266.947 139.788 266.669 139.584C266.391 139.376 266.047 139.273 265.638 139.273C265.212 139.273 264.857 139.382 264.572 139.601C264.291 139.817 264.08 140.111 263.938 140.483C263.798 140.852 263.729 141.267 263.729 141.727C263.729 142.193 263.8 142.616 263.942 142.997C264.087 143.375 264.3 143.676 264.581 143.901C264.865 144.122 265.217 144.233 265.638 144.233Z" fill="#1C1C1C"/>
<path d="M353.903 145V144.233L356.784 141.08C357.122 140.71 357.401 140.389 357.619 140.116C357.838 139.841 358 139.582 358.105 139.341C358.213 139.097 358.267 138.841 358.267 138.574C358.267 138.267 358.193 138.001 358.045 137.777C357.901 137.553 357.702 137.379 357.449 137.257C357.196 137.135 356.912 137.074 356.597 137.074C356.261 137.074 355.969 137.143 355.719 137.283C355.472 137.419 355.28 137.611 355.143 137.858C355.01 138.105 354.943 138.395 354.943 138.727H353.938C353.938 138.216 354.055 137.767 354.291 137.381C354.527 136.994 354.848 136.693 355.254 136.477C355.663 136.261 356.122 136.153 356.631 136.153C357.142 136.153 357.595 136.261 357.99 136.477C358.385 136.693 358.695 136.984 358.919 137.351C359.143 137.717 359.256 138.125 359.256 138.574C359.256 138.895 359.197 139.209 359.081 139.516C358.967 139.82 358.768 140.159 358.484 140.534C358.203 140.906 357.812 141.361 357.312 141.898L355.352 143.994V144.062H359.409V145H353.903ZM361.169 145V144.233L364.05 141.08C364.388 140.71 364.666 140.389 364.885 140.116C365.104 139.841 365.266 139.582 365.371 139.341C365.479 139.097 365.533 138.841 365.533 138.574C365.533 138.267 365.459 138.001 365.311 137.777C365.166 137.553 364.967 137.379 364.714 137.257C364.462 137.135 364.178 137.074 363.862 137.074C363.527 137.074 363.234 137.143 362.984 137.283C362.737 137.419 362.545 137.611 362.409 137.858C362.276 138.105 362.209 138.395 362.209 138.727H361.203C361.203 138.216 361.321 137.767 361.557 137.381C361.793 136.994 362.114 136.693 362.52 136.477C362.929 136.261 363.388 136.153 363.896 136.153C364.408 136.153 364.861 136.261 365.256 136.477C365.651 136.693 365.96 136.984 366.185 137.351C366.409 137.717 366.521 138.125 366.521 138.574C366.521 138.895 366.463 139.209 366.347 139.516C366.233 139.82 366.034 140.159 365.75 140.534C365.469 140.906 365.078 141.361 364.578 141.898L362.618 143.994V144.062H366.675V145H361.169ZM369.185 145.068C368.974 145.068 368.794 144.993 368.643 144.842C368.493 144.692 368.418 144.511 368.418 144.301C368.418 144.091 368.493 143.911 368.643 143.76C368.794 143.609 368.974 143.534 369.185 143.534C369.395 143.534 369.575 143.609 369.726 143.76C369.876 143.911 369.952 144.091 369.952 144.301C369.952 144.44 369.916 144.568 369.845 144.685C369.777 144.801 369.685 144.895 369.568 144.966C369.455 145.034 369.327 145.068 369.185 145.068ZM374.291 145.119C373.791 145.119 373.341 145.02 372.94 144.821C372.539 144.622 372.218 144.349 371.977 144.003C371.735 143.656 371.603 143.261 371.581 142.818H372.603C372.643 143.213 372.822 143.54 373.14 143.798C373.461 144.054 373.845 144.182 374.291 144.182C374.649 144.182 374.967 144.098 375.245 143.93C375.527 143.763 375.747 143.533 375.906 143.24C376.068 142.945 376.149 142.611 376.149 142.239C376.149 141.858 376.065 141.518 375.897 141.22C375.733 140.919 375.505 140.682 375.216 140.509C374.926 140.335 374.595 140.247 374.223 140.244C373.956 140.241 373.681 140.283 373.4 140.368C373.119 140.45 372.887 140.557 372.706 140.688L371.717 140.568L372.245 136.273H376.779V137.21H373.132L372.825 139.784H372.876C373.055 139.642 373.279 139.524 373.549 139.43C373.819 139.337 374.1 139.29 374.393 139.29C374.927 139.29 375.403 139.418 375.821 139.673C376.241 139.926 376.571 140.273 376.809 140.713C377.051 141.153 377.172 141.656 377.172 142.222C377.172 142.778 377.047 143.276 376.797 143.713C376.549 144.148 376.208 144.491 375.774 144.744C375.339 144.994 374.845 145.119 374.291 145.119ZM383.313 143.364V142.903C383.313 142.585 383.379 142.294 383.509 142.03C383.643 141.763 383.836 141.55 384.089 141.391C384.344 141.229 384.654 141.148 385.018 141.148C385.387 141.148 385.697 141.229 385.947 141.391C386.197 141.55 386.386 141.763 386.513 142.03C386.641 142.294 386.705 142.585 386.705 142.903V143.364C386.705 143.682 386.64 143.974 386.509 144.241C386.381 144.506 386.191 144.719 385.938 144.881C385.688 145.04 385.381 145.119 385.018 145.119C384.648 145.119 384.337 145.04 384.085 144.881C383.832 144.719 383.64 144.506 383.509 144.241C383.379 143.974 383.313 143.682 383.313 143.364ZM384.183 142.903V143.364C384.183 143.628 384.245 143.865 384.37 144.075C384.495 144.283 384.711 144.386 385.018 144.386C385.316 144.386 385.526 144.283 385.648 144.075C385.773 143.865 385.836 143.628 385.836 143.364V142.903C385.836 142.639 385.776 142.403 385.657 142.196C385.538 141.986 385.325 141.881 385.018 141.881C384.719 141.881 384.505 141.986 384.374 142.196C384.246 142.403 384.183 142.639 384.183 142.903ZM378.967 138.369V137.909C378.967 137.591 379.032 137.3 379.163 137.036C379.296 136.768 379.489 136.555 379.742 136.396C379.998 136.234 380.308 136.153 380.671 136.153C381.04 136.153 381.35 136.234 381.6 136.396C381.85 136.555 382.039 136.768 382.167 137.036C382.295 137.3 382.359 137.591 382.359 137.909V138.369C382.359 138.687 382.293 138.98 382.163 139.247C382.035 139.511 381.844 139.724 381.592 139.886C381.342 140.045 381.035 140.125 380.671 140.125C380.302 140.125 379.991 140.045 379.738 139.886C379.485 139.724 379.293 139.511 379.163 139.247C379.032 138.98 378.967 138.687 378.967 138.369ZM379.836 137.909V138.369C379.836 138.634 379.898 138.871 380.023 139.081C380.148 139.288 380.364 139.392 380.671 139.392C380.969 139.392 381.18 139.288 381.302 139.081C381.427 138.871 381.489 138.634 381.489 138.369V137.909C381.489 137.645 381.43 137.409 381.31 137.202C381.191 136.991 380.978 136.886 380.671 136.886C380.373 136.886 380.158 136.991 380.028 137.202C379.9 137.409 379.836 137.645 379.836 137.909ZM379.29 145L385.29 136.273H386.262L380.262 145H379.29Z" fill="#1C1C1C"/>
<path d="M219 175C219 176.657 217.657 178 216 178C214.343 178 213 176.657 213 175C213 173.343 214.343 172 216 172C217.657 172 219 173.343 219 175Z" fill="#B1E3FF"/>
<path d="M225.057 170.273H226.318L229.284 177.517H229.386L232.352 170.273H233.614V179H232.625V172.369H232.54L229.812 179H228.858L226.131 172.369H226.045V179H225.057V170.273ZM238.341 179.136C237.71 179.136 237.166 178.997 236.708 178.719C236.254 178.438 235.903 178.045 235.656 177.543C235.412 177.037 235.289 176.449 235.289 175.778C235.289 175.108 235.412 174.517 235.656 174.006C235.903 173.491 236.247 173.091 236.687 172.804C237.13 172.514 237.647 172.369 238.238 172.369C238.579 172.369 238.916 172.426 239.248 172.54C239.581 172.653 239.883 172.838 240.156 173.094C240.429 173.347 240.646 173.682 240.808 174.099C240.97 174.517 241.051 175.031 241.051 175.642V176.068H236.005V175.199H240.028C240.028 174.83 239.954 174.5 239.806 174.21C239.662 173.92 239.454 173.692 239.184 173.524C238.917 173.357 238.602 173.273 238.238 173.273C237.838 173.273 237.491 173.372 237.199 173.571C236.909 173.767 236.686 174.023 236.529 174.338C236.373 174.653 236.295 174.991 236.295 175.352V175.932C236.295 176.426 236.38 176.845 236.551 177.189C236.724 177.53 236.964 177.79 237.271 177.969C237.578 178.145 237.934 178.233 238.341 178.233C238.605 178.233 238.843 178.196 239.056 178.122C239.272 178.045 239.458 177.932 239.615 177.781C239.771 177.628 239.892 177.437 239.977 177.21L240.949 177.483C240.846 177.812 240.674 178.102 240.433 178.352C240.191 178.599 239.893 178.793 239.538 178.932C239.183 179.068 238.784 179.136 238.341 179.136ZM243.155 172.455L244.723 175.131L246.291 172.455H247.45L245.337 175.727L247.45 179H246.291L244.723 176.46L243.155 179H241.996L244.075 175.727L241.996 172.455H243.155ZM248.885 179V172.455H249.891V179H248.885ZM249.397 171.364C249.201 171.364 249.032 171.297 248.89 171.163C248.75 171.03 248.681 170.869 248.681 170.682C248.681 170.494 248.75 170.334 248.89 170.2C249.032 170.067 249.201 170 249.397 170C249.593 170 249.76 170.067 249.9 170.2C250.042 170.334 250.113 170.494 250.113 170.682C250.113 170.869 250.042 171.03 249.9 171.163C249.76 171.297 249.593 171.364 249.397 171.364ZM254.392 179.136C253.778 179.136 253.25 178.991 252.807 178.702C252.364 178.412 252.023 178.013 251.784 177.504C251.545 176.996 251.426 176.415 251.426 175.761C251.426 175.097 251.548 174.51 251.793 174.001C252.04 173.49 252.384 173.091 252.824 172.804C253.267 172.514 253.784 172.369 254.375 172.369C254.835 172.369 255.25 172.455 255.619 172.625C255.989 172.795 256.291 173.034 256.527 173.341C256.763 173.648 256.909 174.006 256.966 174.415H255.96C255.884 174.116 255.713 173.852 255.449 173.622C255.188 173.389 254.835 173.273 254.392 173.273C254 173.273 253.656 173.375 253.361 173.58C253.068 173.781 252.839 174.067 252.675 174.436C252.513 174.803 252.432 175.233 252.432 175.727C252.432 176.233 252.511 176.673 252.67 177.048C252.832 177.423 253.06 177.714 253.352 177.922C253.648 178.129 253.994 178.233 254.392 178.233C254.653 178.233 254.891 178.188 255.104 178.097C255.317 178.006 255.497 177.875 255.645 177.705C255.793 177.534 255.898 177.33 255.96 177.091H256.966C256.909 177.477 256.768 177.825 256.544 178.135C256.322 178.442 256.028 178.686 255.662 178.868C255.298 179.047 254.875 179.136 254.392 179.136ZM261.095 179.136C260.504 179.136 259.986 178.996 259.54 178.714C259.097 178.433 258.75 178.04 258.5 177.534C258.253 177.028 258.129 176.437 258.129 175.761C258.129 175.08 258.253 174.484 258.5 173.976C258.75 173.467 259.097 173.072 259.54 172.791C259.986 172.51 260.504 172.369 261.095 172.369C261.686 172.369 262.203 172.51 262.646 172.791C263.092 173.072 263.439 173.467 263.686 173.976C263.936 174.484 264.061 175.08 264.061 175.761C264.061 176.437 263.936 177.028 263.686 177.534C263.439 178.04 263.092 178.433 262.646 178.714C262.203 178.996 261.686 179.136 261.095 179.136ZM261.095 178.233C261.544 178.233 261.913 178.118 262.203 177.888C262.493 177.658 262.707 177.355 262.847 176.98C262.986 176.605 263.055 176.199 263.055 175.761C263.055 175.324 262.986 174.916 262.847 174.538C262.707 174.161 262.493 173.855 262.203 173.622C261.913 173.389 261.544 173.273 261.095 173.273C260.646 173.273 260.277 173.389 259.987 173.622C259.697 173.855 259.483 174.161 259.344 174.538C259.205 174.916 259.135 175.324 259.135 175.761C259.135 176.199 259.205 176.605 259.344 176.98C259.483 177.355 259.697 177.658 259.987 177.888C260.277 178.118 260.646 178.233 261.095 178.233Z" fill="#1C1C1C"/>
<path d="M353.767 176.818H354.841C354.872 177.114 354.973 177.364 355.143 177.568C355.317 177.77 355.541 177.923 355.817 178.028C356.092 178.131 356.398 178.182 356.733 178.182C357.097 178.182 357.423 178.121 357.713 177.999C358.003 177.876 358.233 177.695 358.403 177.453C358.574 177.209 358.659 176.906 358.659 176.545C358.659 176.23 358.585 175.937 358.438 175.668C358.29 175.395 358.053 175.175 357.726 175.007C357.399 174.839 356.966 174.756 356.426 174.756H355.727V173.903L357.909 171.278V171.21H354.193V170.273H359.358V171.04L357.023 173.869V173.938C357.398 173.955 357.747 174.031 358.071 174.168C358.398 174.304 358.682 174.489 358.923 174.722C359.168 174.955 359.358 175.226 359.494 175.536C359.631 175.845 359.699 176.182 359.699 176.545C359.699 177.043 359.571 177.486 359.315 177.875C359.063 178.261 358.712 178.565 358.263 178.787C357.817 179.009 357.301 179.119 356.716 179.119C356.199 179.119 355.723 179.028 355.288 178.847C354.854 178.665 354.5 178.402 354.227 178.058C353.955 177.714 353.801 177.301 353.767 176.818ZM364.285 179.119C363.643 179.119 363.096 178.945 362.645 178.595C362.193 178.243 361.848 177.733 361.609 177.065C361.37 176.395 361.251 175.585 361.251 174.636C361.251 173.693 361.37 172.888 361.609 172.22C361.85 171.55 362.197 171.038 362.649 170.686C363.103 170.331 363.649 170.153 364.285 170.153C364.922 170.153 365.466 170.331 365.917 170.686C366.372 171.038 366.718 171.55 366.957 172.22C367.199 172.888 367.319 173.693 367.319 174.636C367.319 175.585 367.2 176.395 366.961 177.065C366.723 177.733 366.377 178.243 365.926 178.595C365.474 178.945 364.927 179.119 364.285 179.119ZM364.285 178.182C364.922 178.182 365.416 177.875 365.768 177.261C366.12 176.648 366.297 175.773 366.297 174.636C366.297 173.881 366.216 173.237 366.054 172.706C365.895 172.175 365.664 171.77 365.363 171.491C365.065 171.213 364.706 171.074 364.285 171.074C363.654 171.074 363.162 171.385 362.806 172.007C362.451 172.626 362.274 173.503 362.274 174.636C362.274 175.392 362.353 176.034 362.512 176.562C362.672 177.091 362.9 177.493 363.199 177.768C363.5 178.044 363.862 178.182 364.285 178.182ZM369.384 179.068C369.174 179.068 368.993 178.993 368.843 178.842C368.692 178.692 368.617 178.511 368.617 178.301C368.617 178.091 368.692 177.911 368.843 177.76C368.993 177.609 369.174 177.534 369.384 177.534C369.594 177.534 369.775 177.609 369.925 177.76C370.076 177.911 370.151 178.091 370.151 178.301C370.151 178.44 370.115 178.568 370.044 178.685C369.976 178.801 369.884 178.895 369.767 178.966C369.654 179.034 369.526 179.068 369.384 179.068ZM374.464 179.119C373.879 179.119 373.362 179.016 372.913 178.808C372.467 178.598 372.119 178.31 371.869 177.943C371.619 177.574 371.496 177.153 371.499 176.682C371.496 176.312 371.568 175.972 371.716 175.659C371.864 175.344 372.065 175.081 372.321 174.871C372.58 174.658 372.868 174.523 373.186 174.466V174.415C372.768 174.307 372.436 174.072 372.189 173.712C371.942 173.348 371.82 172.935 371.822 172.472C371.82 172.028 371.932 171.632 372.159 171.283C372.386 170.933 372.699 170.658 373.097 170.456C373.497 170.254 373.953 170.153 374.464 170.153C374.97 170.153 375.422 170.254 375.82 170.456C376.217 170.658 376.53 170.933 376.757 171.283C376.987 171.632 377.104 172.028 377.107 172.472C377.104 172.935 376.977 173.348 376.727 173.712C376.48 174.072 376.152 174.307 375.743 174.415V174.466C376.058 174.523 376.342 174.658 376.595 174.871C376.848 175.081 377.05 175.344 377.2 175.659C377.351 175.972 377.428 176.312 377.43 176.682C377.428 177.153 377.3 177.574 377.047 177.943C376.797 178.31 376.449 178.598 376.003 178.808C375.56 179.016 375.047 179.119 374.464 179.119ZM374.464 178.182C374.859 178.182 375.2 178.118 375.487 177.99C375.774 177.862 375.996 177.682 376.152 177.449C376.308 177.216 376.388 176.943 376.391 176.631C376.388 176.301 376.303 176.01 376.135 175.757C375.967 175.504 375.739 175.305 375.449 175.161C375.162 175.016 374.834 174.943 374.464 174.943C374.092 174.943 373.76 175.016 373.467 175.161C373.178 175.305 372.949 175.504 372.781 175.757C372.616 176.01 372.536 176.301 372.538 176.631C372.536 176.943 372.611 177.216 372.764 177.449C372.92 177.682 373.143 177.862 373.433 177.99C373.723 178.118 374.067 178.182 374.464 178.182ZM374.464 174.04C374.777 174.04 375.054 173.977 375.295 173.852C375.54 173.727 375.732 173.553 375.871 173.328C376.01 173.104 376.081 172.841 376.084 172.54C376.081 172.244 376.011 171.987 375.875 171.768C375.739 171.547 375.55 171.376 375.308 171.257C375.067 171.135 374.786 171.074 374.464 171.074C374.138 171.074 373.852 171.135 373.608 171.257C373.364 171.376 373.175 171.547 373.041 171.768C372.908 171.987 372.842 172.244 372.845 172.54C372.842 172.841 372.909 173.104 373.045 173.328C373.185 173.553 373.376 173.727 373.621 173.852C373.865 173.977 374.146 174.04 374.464 174.04ZM383.512 177.364V176.903C383.512 176.585 383.578 176.294 383.708 176.03C383.842 175.763 384.035 175.55 384.288 175.391C384.544 175.229 384.853 175.148 385.217 175.148C385.586 175.148 385.896 175.229 386.146 175.391C386.396 175.55 386.585 175.763 386.713 176.03C386.841 176.294 386.904 176.585 386.904 176.903V177.364C386.904 177.682 386.839 177.974 386.708 178.241C386.581 178.506 386.39 178.719 386.137 178.881C385.887 179.04 385.581 179.119 385.217 179.119C384.848 179.119 384.537 179.04 384.284 178.881C384.031 178.719 383.839 178.506 383.708 178.241C383.578 177.974 383.512 177.682 383.512 177.364ZM384.382 176.903V177.364C384.382 177.628 384.444 177.865 384.569 178.075C384.694 178.283 384.91 178.386 385.217 178.386C385.515 178.386 385.725 178.283 385.848 178.075C385.973 177.865 386.035 177.628 386.035 177.364V176.903C386.035 176.639 385.975 176.403 385.856 176.196C385.737 175.986 385.524 175.881 385.217 175.881C384.919 175.881 384.704 175.986 384.574 176.196C384.446 176.403 384.382 176.639 384.382 176.903ZM379.166 172.369V171.909C379.166 171.591 379.231 171.3 379.362 171.036C379.495 170.768 379.689 170.555 379.941 170.396C380.197 170.234 380.507 170.153 380.87 170.153C381.24 170.153 381.549 170.234 381.799 170.396C382.049 170.555 382.238 170.768 382.366 171.036C382.494 171.3 382.558 171.591 382.558 171.909V172.369C382.558 172.687 382.493 172.98 382.362 173.247C382.234 173.511 382.044 173.724 381.791 173.886C381.541 174.045 381.234 174.125 380.87 174.125C380.501 174.125 380.19 174.045 379.937 173.886C379.684 173.724 379.493 173.511 379.362 173.247C379.231 172.98 379.166 172.687 379.166 172.369ZM380.035 171.909V172.369C380.035 172.634 380.098 172.871 380.223 173.081C380.348 173.288 380.564 173.392 380.87 173.392C381.169 173.392 381.379 173.288 381.501 173.081C381.626 172.871 381.689 172.634 381.689 172.369V171.909C381.689 171.645 381.629 171.409 381.51 171.202C381.39 170.991 381.177 170.886 380.87 170.886C380.572 170.886 380.358 170.991 380.227 171.202C380.099 171.409 380.035 171.645 380.035 171.909ZM379.49 179L385.49 170.273H386.461L380.461 179H379.49Z" fill="#1C1C1C"/>
<path d="M219 209C219 210.657 217.657 212 216 212C214.343 212 213 210.657 213 209C213 207.343 214.343 206 216 206C217.657 206 219 207.343 219 209Z" fill="#A8C5DA"/>
<path d="M232.42 208.636C232.42 209.557 232.254 210.352 231.922 211.023C231.589 211.693 231.134 212.21 230.554 212.574C229.974 212.938 229.313 213.119 228.568 213.119C227.824 213.119 227.162 212.938 226.582 212.574C226.003 212.21 225.547 211.693 225.214 211.023C224.882 210.352 224.716 209.557 224.716 208.636C224.716 207.716 224.882 206.92 225.214 206.25C225.547 205.58 226.003 205.062 226.582 204.699C227.162 204.335 227.824 204.153 228.568 204.153C229.313 204.153 229.974 204.335 230.554 204.699C231.134 205.062 231.589 205.58 231.922 206.25C232.254 206.92 232.42 207.716 232.42 208.636ZM231.398 208.636C231.398 207.881 231.271 207.243 231.018 206.723C230.768 206.203 230.429 205.81 230 205.543C229.574 205.276 229.097 205.142 228.568 205.142C228.04 205.142 227.561 205.276 227.132 205.543C226.706 205.81 226.366 206.203 226.114 206.723C225.864 207.243 225.739 207.881 225.739 208.636C225.739 209.392 225.864 210.03 226.114 210.55C226.366 211.07 226.706 211.463 227.132 211.73C227.561 211.997 228.04 212.131 228.568 212.131C229.097 212.131 229.574 211.997 230 211.73C230.429 211.463 230.768 211.07 231.018 210.55C231.271 210.03 231.398 209.392 231.398 208.636ZM236.908 206.455V207.307H233.516V206.455H236.908ZM234.504 204.886H235.51V211.125C235.51 211.409 235.551 211.622 235.634 211.764C235.719 211.903 235.827 211.997 235.957 212.045C236.091 212.091 236.232 212.114 236.379 212.114C236.49 212.114 236.581 212.108 236.652 212.097C236.723 212.082 236.78 212.071 236.822 212.062L237.027 212.966C236.959 212.991 236.864 213.017 236.741 213.043C236.619 213.071 236.464 213.085 236.277 213.085C235.993 213.085 235.714 213.024 235.442 212.902C235.172 212.78 234.947 212.594 234.768 212.344C234.592 212.094 234.504 211.778 234.504 211.398V204.886ZM239.567 209.062V213H238.561V204.273H239.567V207.477H239.652C239.805 207.139 240.036 206.871 240.342 206.672C240.652 206.47 241.064 206.369 241.578 206.369C242.024 206.369 242.415 206.459 242.75 206.638C243.085 206.814 243.345 207.085 243.53 207.452C243.717 207.815 243.811 208.278 243.811 208.841V213H242.805V208.909C242.805 208.389 242.67 207.987 242.401 207.703C242.134 207.416 241.763 207.273 241.288 207.273C240.959 207.273 240.663 207.342 240.402 207.482C240.143 207.621 239.939 207.824 239.788 208.091C239.641 208.358 239.567 208.682 239.567 209.062ZM248.395 213.136C247.765 213.136 247.221 212.997 246.763 212.719C246.309 212.438 245.958 212.045 245.711 211.543C245.466 211.037 245.344 210.449 245.344 209.778C245.344 209.108 245.466 208.517 245.711 208.006C245.958 207.491 246.301 207.091 246.742 206.804C247.185 206.514 247.702 206.369 248.293 206.369C248.634 206.369 248.971 206.426 249.303 206.54C249.635 206.653 249.938 206.838 250.211 207.094C250.483 207.347 250.701 207.682 250.863 208.099C251.025 208.517 251.105 209.031 251.105 209.642V210.068H246.06V209.199H250.083C250.083 208.83 250.009 208.5 249.861 208.21C249.716 207.92 249.509 207.692 249.239 207.524C248.972 207.357 248.657 207.273 248.293 207.273C247.892 207.273 247.546 207.372 247.253 207.571C246.963 207.767 246.74 208.023 246.584 208.338C246.428 208.653 246.35 208.991 246.35 209.352V209.932C246.35 210.426 246.435 210.845 246.605 211.189C246.779 211.53 247.019 211.79 247.326 211.969C247.632 212.145 247.989 212.233 248.395 212.233C248.659 212.233 248.898 212.196 249.111 212.122C249.327 212.045 249.513 211.932 249.669 211.781C249.826 211.628 249.946 211.437 250.032 211.21L251.003 211.483C250.901 211.812 250.729 212.102 250.488 212.352C250.246 212.599 249.948 212.793 249.593 212.932C249.238 213.068 248.838 213.136 248.395 213.136ZM252.635 213V206.455H253.607V207.443H253.675C253.794 207.119 254.01 206.857 254.323 206.655C254.635 206.453 254.988 206.352 255.38 206.352C255.453 206.352 255.546 206.354 255.657 206.357C255.767 206.359 255.851 206.364 255.908 206.369V207.392C255.874 207.384 255.796 207.371 255.674 207.354C255.554 207.334 255.428 207.324 255.294 207.324C254.976 207.324 254.692 207.391 254.442 207.524C254.195 207.655 253.999 207.837 253.854 208.07C253.712 208.3 253.641 208.562 253.641 208.858V213H252.635Z" fill="#1C1C1C"/>
<path d="M366.699 213.119C366.114 213.119 365.597 213.016 365.148 212.808C364.702 212.598 364.354 212.31 364.104 211.943C363.854 211.574 363.73 211.153 363.733 210.682C363.73 210.312 363.803 209.972 363.95 209.659C364.098 209.344 364.3 209.081 364.555 208.871C364.814 208.658 365.102 208.523 365.42 208.466V208.415C365.003 208.307 364.67 208.072 364.423 207.712C364.176 207.348 364.054 206.935 364.057 206.472C364.054 206.028 364.166 205.632 364.393 205.283C364.621 204.933 364.933 204.658 365.331 204.456C365.732 204.254 366.188 204.153 366.699 204.153C367.205 204.153 367.656 204.254 368.054 204.456C368.452 204.658 368.764 204.933 368.991 205.283C369.222 205.632 369.338 206.028 369.341 206.472C369.338 206.935 369.212 207.348 368.962 207.712C368.714 208.072 368.386 208.307 367.977 208.415V208.466C368.293 208.523 368.577 208.658 368.83 208.871C369.082 209.081 369.284 209.344 369.435 209.659C369.585 209.972 369.662 210.312 369.665 210.682C369.662 211.153 369.534 211.574 369.281 211.943C369.031 212.31 368.683 212.598 368.237 212.808C367.794 213.016 367.281 213.119 366.699 213.119ZM366.699 212.182C367.094 212.182 367.435 212.118 367.722 211.99C368.009 211.862 368.23 211.682 368.386 211.449C368.543 211.216 368.622 210.943 368.625 210.631C368.622 210.301 368.537 210.01 368.369 209.757C368.202 209.504 367.973 209.305 367.683 209.161C367.396 209.016 367.068 208.943 366.699 208.943C366.327 208.943 365.994 209.016 365.702 209.161C365.412 209.305 365.183 209.504 365.016 209.757C364.851 210.01 364.77 210.301 364.773 210.631C364.77 210.943 364.845 211.216 364.999 211.449C365.155 211.682 365.378 211.862 365.668 211.99C365.957 212.118 366.301 212.182 366.699 212.182ZM366.699 208.04C367.011 208.04 367.288 207.977 367.53 207.852C367.774 207.727 367.966 207.553 368.105 207.328C368.244 207.104 368.315 206.841 368.318 206.54C368.315 206.244 368.246 205.987 368.109 205.768C367.973 205.547 367.784 205.376 367.543 205.257C367.301 205.135 367.02 205.074 366.699 205.074C366.372 205.074 366.087 205.135 365.842 205.257C365.598 205.376 365.409 205.547 365.276 205.768C365.142 205.987 365.077 206.244 365.08 206.54C365.077 206.841 365.143 207.104 365.28 207.328C365.419 207.553 365.611 207.727 365.855 207.852C366.099 207.977 366.381 208.04 366.699 208.04ZM371.778 213.068C371.568 213.068 371.388 212.993 371.237 212.842C371.087 212.692 371.011 212.511 371.011 212.301C371.011 212.091 371.087 211.911 371.237 211.76C371.388 211.609 371.568 211.534 371.778 211.534C371.989 211.534 372.169 211.609 372.32 211.76C372.47 211.911 372.545 212.091 372.545 212.301C372.545 212.44 372.51 212.568 372.439 212.685C372.371 212.801 372.278 212.895 372.162 212.966C372.048 213.034 371.92 213.068 371.778 213.068ZM376.086 204.273V213H375.029V205.807H374.961C374.921 205.886 374.819 205.977 374.654 206.08C374.489 206.179 374.276 206.267 374.015 206.344C373.753 206.418 373.455 206.455 373.12 206.455V205.568C373.458 205.568 373.75 205.507 373.998 205.385C374.245 205.263 374.451 205.119 374.615 204.955C374.783 204.79 374.909 204.641 374.995 204.507C375.083 204.374 375.134 204.295 375.148 204.273H376.086ZM383.036 211.364V210.903C383.036 210.585 383.101 210.294 383.232 210.03C383.365 209.763 383.559 209.55 383.811 209.391C384.067 209.229 384.377 209.148 384.74 209.148C385.11 209.148 385.419 209.229 385.669 209.391C385.919 209.55 386.108 209.763 386.236 210.03C386.364 210.294 386.428 210.585 386.428 210.903V211.364C386.428 211.682 386.363 211.974 386.232 212.241C386.104 212.506 385.914 212.719 385.661 212.881C385.411 213.04 385.104 213.119 384.74 213.119C384.371 213.119 384.06 213.04 383.807 212.881C383.554 212.719 383.363 212.506 383.232 212.241C383.101 211.974 383.036 211.682 383.036 211.364ZM383.905 210.903V211.364C383.905 211.628 383.968 211.865 384.093 212.075C384.218 212.283 384.434 212.386 384.74 212.386C385.039 212.386 385.249 212.283 385.371 212.075C385.496 211.865 385.559 211.628 385.559 211.364V210.903C385.559 210.639 385.499 210.403 385.38 210.196C385.26 209.986 385.047 209.881 384.74 209.881C384.442 209.881 384.228 209.986 384.097 210.196C383.969 210.403 383.905 210.639 383.905 210.903ZM378.689 206.369V205.909C378.689 205.591 378.755 205.3 378.885 205.036C379.019 204.768 379.212 204.555 379.465 204.396C379.721 204.234 380.03 204.153 380.394 204.153C380.763 204.153 381.073 204.234 381.323 204.396C381.573 204.555 381.762 204.768 381.89 205.036C382.017 205.3 382.081 205.591 382.081 205.909V206.369C382.081 206.687 382.016 206.98 381.885 207.247C381.757 207.511 381.567 207.724 381.314 207.886C381.064 208.045 380.757 208.125 380.394 208.125C380.025 208.125 379.713 208.045 379.461 207.886C379.208 207.724 379.016 207.511 378.885 207.247C378.755 206.98 378.689 206.687 378.689 206.369ZM379.559 205.909V206.369C379.559 206.634 379.621 206.871 379.746 207.081C379.871 207.288 380.087 207.392 380.394 207.392C380.692 207.392 380.902 207.288 381.025 207.081C381.15 206.871 381.212 206.634 381.212 206.369V205.909C381.212 205.645 381.152 205.409 381.033 205.202C380.914 204.991 380.701 204.886 380.394 204.886C380.096 204.886 379.881 204.991 379.75 205.202C379.623 205.409 379.559 205.645 379.559 205.909ZM379.013 213L385.013 204.273H385.985L379.985 213H379.013Z" fill="#1C1C1C"/>
<defs>
<linearGradient id="paint0_linear_549_8682" x1="163.99" y1="98" x2="123.362" y2="141.067" gradientUnits="userSpaceOnUse">
<stop/>
<stop offset="1"/>
</linearGradient>
<linearGradient id="paint1_linear_549_8682" x1="126.84" y1="98" x2="126.84" y2="217.967" gradientUnits="userSpaceOnUse">
<stop/>
<stop offset="1" stop-color="#1C1C1C" stop-opacity="0.6"/>
<stop offset="1" stop-opacity="0.6"/>
</linearGradient>
<linearGradient id="paint2_linear_549_8682" x1="95.6894" y1="143" x2="71.2884" y2="172.408" gradientUnits="userSpaceOnUse">
<stop/>
<stop offset="1"/>
</linearGradient>
<linearGradient id="paint3_linear_549_8682" x1="89.1567" y1="106" x2="76.6506" y2="127.388" gradientUnits="userSpaceOnUse">
<stop/>
<stop offset="1"/>
</linearGradient>
<linearGradient id="paint4_linear_549_8682" x1="103.889" y1="98" x2="93.418" y2="113.371" gradientUnits="userSpaceOnUse">
<stop/>
<stop offset="1"/>
</linearGradient>
</defs>
</svg>
