<svg width="202" height="330" viewBox="0 0 202 330" fill="none" xmlns="http://www.w3.org/2000/svg">
<path d="M0 16C0 7.16345 7.16344 0 16 0H186C194.837 0 202 7.16344 202 16V314C202 322.837 194.837 330 186 330H16C7.16344 330 0 322.837 0 314V16Z" fill="#F7F9FB"/>
<path d="M24.5568 30.3643V28.8182H32.6804V30.3643H29.5334V39H27.7038V30.3643H24.5568ZM33.3739 39V31.3636H35.119V32.6364H35.1985C35.3377 32.1955 35.5763 31.8558 35.9144 31.6172C36.2558 31.3752 36.6452 31.2543 37.0827 31.2543C37.1822 31.2543 37.2932 31.2592 37.4158 31.2692C37.5418 31.2758 37.6462 31.2874 37.729 31.304V32.9595C37.6528 32.933 37.5318 32.9098 37.3661 32.8899C37.2037 32.8667 37.0463 32.8551 36.8938 32.8551C36.5657 32.8551 36.2707 32.9264 36.0089 33.0689C35.7504 33.2081 35.5465 33.402 35.3974 33.6506C35.2482 33.8991 35.1737 34.1858 35.1737 34.5107V39H33.3739ZM41.4441 39.1342C40.8442 39.1342 40.3072 38.9801 39.8333 38.6719C39.3593 38.3636 38.9848 37.9162 38.7097 37.3295C38.4346 36.7429 38.2971 36.0303 38.2971 35.1918C38.2971 34.3433 38.4363 33.6274 38.7147 33.044C38.9964 32.4574 39.3759 32.0149 39.8532 31.7166C40.3304 31.415 40.8624 31.2642 41.449 31.2642C41.8965 31.2642 42.2644 31.3404 42.5527 31.4929C42.8411 31.642 43.0698 31.8227 43.2388 32.0348C43.4078 32.2436 43.5388 32.4408 43.6316 32.6264H43.7061V31.3636H45.5108V39H43.7409V37.7969H43.6316C43.5388 37.9825 43.4045 38.1797 43.2289 38.3885C43.0532 38.594 42.8212 38.7696 42.5328 38.9155C42.2445 39.0613 41.8816 39.1342 41.4441 39.1342ZM41.9462 37.6577C42.3274 37.6577 42.6522 37.5549 42.9206 37.3494C43.1891 37.1406 43.3929 36.8506 43.5321 36.4794C43.6713 36.1082 43.7409 35.6757 43.7409 35.1818C43.7409 34.688 43.6713 34.2588 43.5321 33.8942C43.3962 33.5296 43.1941 33.2462 42.9256 33.044C42.6605 32.8419 42.334 32.7408 41.9462 32.7408C41.5452 32.7408 41.2104 32.8452 40.9419 33.054C40.6735 33.2628 40.4713 33.5511 40.3354 33.919C40.1995 34.2869 40.1316 34.7079 40.1316 35.1818C40.1316 35.6591 40.1995 36.085 40.3354 36.4595C40.4746 36.8307 40.6784 37.1241 40.9469 37.3395C41.2187 37.5516 41.5518 37.6577 41.9462 37.6577ZM51.2965 31.3636V32.7557H46.7823V31.3636H51.2965ZM47.9109 39V30.6428C47.9109 30.129 48.0169 29.7015 48.229 29.3601C48.4445 29.0187 48.7328 28.7635 49.0941 28.5945C49.4554 28.4254 49.8564 28.3409 50.2972 28.3409C50.6088 28.3409 50.8855 28.3658 51.1275 28.4155C51.3694 28.4652 51.5484 28.5099 51.6644 28.5497L51.3065 29.9418C51.2302 29.9186 51.1341 29.8954 51.0181 29.8722C50.9021 29.8456 50.7728 29.8324 50.6303 29.8324C50.2956 29.8324 50.0586 29.9136 49.9194 30.076C49.7835 30.2351 49.7156 30.4638 49.7156 30.7621V39H47.9109ZM56.5739 31.3636V32.7557H52.0597V31.3636H56.5739ZM53.1882 39V30.6428C53.1882 30.129 53.2943 29.7015 53.5064 29.3601C53.7218 29.0187 54.0102 28.7635 54.3714 28.5945C54.7327 28.4254 55.1338 28.3409 55.5746 28.3409C55.8861 28.3409 56.1629 28.3658 56.4048 28.4155C56.6468 28.4652 56.8258 28.5099 56.9418 28.5497L56.5838 29.9418C56.5076 29.9186 56.4115 29.8954 56.2955 29.8722C56.1795 29.8456 56.0502 29.8324 55.9077 29.8324C55.5729 29.8324 55.3359 29.9136 55.1967 30.076C55.0608 30.2351 54.9929 30.4638 54.9929 30.7621V39H53.1882ZM57.9833 39V31.3636H59.783V39H57.9833ZM58.8881 30.2798C58.6031 30.2798 58.3578 30.1854 58.1523 29.9964C57.9469 29.8042 57.8441 29.5739 57.8441 29.3054C57.8441 29.0336 57.9469 28.8033 58.1523 28.6143C58.3578 28.4221 58.6031 28.326 58.8881 28.326C59.1765 28.326 59.4218 28.4221 59.6239 28.6143C59.8294 28.8033 59.9322 29.0336 59.9322 29.3054C59.9322 29.5739 59.8294 29.8042 59.6239 29.9964C59.4218 30.1854 59.1765 30.2798 58.8881 30.2798ZM64.9647 39.1491C64.2024 39.1491 63.5478 38.9818 63.0009 38.647C62.4573 38.3123 62.0381 37.8499 61.7431 37.2599C61.4514 36.6667 61.3056 35.9839 61.3056 35.2116C61.3056 34.4361 61.4547 33.7517 61.753 33.1584C62.0513 32.5618 62.4722 32.0978 63.0158 31.7663C63.5627 31.4316 64.209 31.2642 64.9547 31.2642C65.5745 31.2642 66.123 31.3786 66.6003 31.6072C67.0809 31.8326 67.4637 32.1525 67.7488 32.5668C68.0338 32.9777 68.1962 33.4583 68.236 34.0085H66.5158C66.4462 33.6406 66.2805 33.334 66.0186 33.0888C65.7601 32.8402 65.4138 32.7159 64.9796 32.7159C64.6117 32.7159 64.2885 32.8153 64.0101 33.0142C63.7317 33.2098 63.5146 33.4915 63.3588 33.8594C63.2064 34.2273 63.1301 34.6681 63.1301 35.1818C63.1301 35.7022 63.2064 36.1496 63.3588 36.5241C63.5113 36.8954 63.7251 37.1821 64.0002 37.3842C64.2786 37.5831 64.6051 37.6825 64.9796 37.6825C65.2447 37.6825 65.4817 37.6328 65.6905 37.5334C65.9026 37.4306 66.08 37.2831 66.2225 37.0909C66.365 36.8987 66.4628 36.665 66.5158 36.3899H68.236C68.1929 36.9302 68.0338 37.4091 67.7587 37.8267C67.4836 38.241 67.1091 38.5658 66.6351 38.8011C66.1612 39.0331 65.6043 39.1491 64.9647 39.1491ZM73.266 39V28.8182H75.0657V32.6264H75.1403C75.2331 32.4408 75.364 32.2436 75.533 32.0348C75.7021 31.8227 75.9308 31.642 76.2191 31.4929C76.5075 31.3404 76.8754 31.2642 77.3228 31.2642C77.9128 31.2642 78.4447 31.415 78.9187 31.7166C79.396 32.0149 79.7738 32.4574 80.0522 33.044C80.3339 33.6274 80.4748 34.3433 80.4748 35.1918C80.4748 36.0303 80.3372 36.7429 80.0621 37.3295C79.7871 37.9162 79.4125 38.3636 78.9386 38.6719C78.4646 38.9801 77.9277 39.1342 77.3278 39.1342C76.8903 39.1342 76.5273 39.0613 76.239 38.9155C75.9506 38.7696 75.7186 38.594 75.543 38.3885C75.3706 38.1797 75.2364 37.9825 75.1403 37.7969H75.0359V39H73.266ZM75.0309 35.1818C75.0309 35.6757 75.1005 36.1082 75.2397 36.4794C75.3822 36.8506 75.5861 37.1406 75.8512 37.3494C76.1197 37.5549 76.4445 37.6577 76.8256 37.6577C77.2234 37.6577 77.5565 37.5516 77.8249 37.3395C78.0934 37.1241 78.2956 36.8307 78.4315 36.4595C78.5707 36.085 78.6403 35.6591 78.6403 35.1818C78.6403 34.7079 78.5723 34.2869 78.4364 33.919C78.3005 33.5511 78.0984 33.2628 77.8299 33.054C77.5614 32.8452 77.2267 32.7408 76.8256 32.7408C76.4412 32.7408 76.1147 32.8419 75.8462 33.044C75.5778 33.2462 75.3739 33.5296 75.2347 33.8942C75.0988 34.2588 75.0309 34.688 75.0309 35.1818ZM82.8636 41.8636C82.6184 41.8636 82.3913 41.8438 82.1825 41.804C81.977 41.7675 81.813 41.7244 81.6903 41.6747L82.108 40.2727C82.3698 40.349 82.6035 40.3854 82.8089 40.3821C83.0144 40.3788 83.1951 40.3142 83.3509 40.1882C83.5099 40.0656 83.6442 39.8601 83.7536 39.5717L83.9077 39.1591L81.1385 31.3636H83.0476L84.8075 37.1307H84.8871L86.652 31.3636H88.5661L85.5085 39.9247C85.366 40.3291 85.1771 40.6754 84.9418 40.9638C84.7064 41.2554 84.4181 41.4775 84.0767 41.63C83.7386 41.7857 83.3343 41.8636 82.8636 41.8636ZM95.5064 39L92.6328 28.8182H94.6165L96.451 36.3004H96.5455L98.5043 28.8182H100.309L102.273 36.3054H102.362L104.197 28.8182H106.18L103.307 39H101.487L99.4489 31.8558H99.3693L97.326 39H95.5064ZM109.981 39.1491C109.216 39.1491 108.554 38.9901 107.998 38.6719C107.444 38.3504 107.018 37.8963 106.72 37.3097C106.422 36.7197 106.272 36.0253 106.272 35.2266C106.272 34.4411 106.422 33.7517 106.72 33.1584C107.021 32.5618 107.442 32.0978 107.983 31.7663C108.523 31.4316 109.158 31.2642 109.887 31.2642C110.357 31.2642 110.801 31.3404 111.219 31.4929C111.64 31.642 112.011 31.8741 112.333 32.1889C112.658 32.5038 112.913 32.9048 113.098 33.392C113.284 33.8759 113.377 34.4527 113.377 35.1222V35.674H107.118V34.4609H111.652C111.648 34.1162 111.574 33.8097 111.428 33.5412C111.282 33.2694 111.078 33.0556 110.816 32.8999C110.558 32.7441 110.256 32.6662 109.912 32.6662C109.544 32.6662 109.221 32.7557 108.942 32.9347C108.664 33.1103 108.447 33.3423 108.291 33.6307C108.138 33.9157 108.06 34.2289 108.057 34.5703V35.6293C108.057 36.0734 108.138 36.4545 108.301 36.7727C108.463 37.0876 108.69 37.3295 108.982 37.4986C109.274 37.6643 109.615 37.7472 110.006 37.7472C110.268 37.7472 110.505 37.7107 110.717 37.6378C110.929 37.5616 111.113 37.4505 111.269 37.3047C111.425 37.1589 111.542 36.9782 111.622 36.7628L113.302 36.9517C113.196 37.3958 112.994 37.7836 112.696 38.1151C112.401 38.4432 112.023 38.6984 111.562 38.8807C111.101 39.0597 110.574 39.1491 109.981 39.1491ZM114.979 39V28.8182H116.779V32.6264H116.853C116.946 32.4408 117.077 32.2436 117.246 32.0348C117.415 31.8227 117.644 31.642 117.932 31.4929C118.22 31.3404 118.588 31.2642 119.036 31.2642C119.626 31.2642 120.158 31.415 120.632 31.7166C121.109 32.0149 121.487 32.4574 121.765 33.044C122.047 33.6274 122.188 34.3433 122.188 35.1918C122.188 36.0303 122.05 36.7429 121.775 37.3295C121.5 37.9162 121.125 38.3636 120.651 38.6719C120.177 38.9801 119.641 39.1342 119.041 39.1342C118.603 39.1342 118.24 39.0613 117.952 38.9155C117.664 38.7696 117.432 38.594 117.256 38.3885C117.084 38.1797 116.949 37.9825 116.853 37.7969H116.749V39H114.979ZM116.744 35.1818C116.744 35.6757 116.813 36.1082 116.953 36.4794C117.095 36.8506 117.299 37.1406 117.564 37.3494C117.833 37.5549 118.157 37.6577 118.539 37.6577C118.936 37.6577 119.269 37.5516 119.538 37.3395C119.806 37.1241 120.008 36.8307 120.144 36.4595C120.284 36.085 120.353 35.6591 120.353 35.1818C120.353 34.7079 120.285 34.2869 120.149 33.919C120.013 33.5511 119.811 33.2628 119.543 33.054C119.274 32.8452 118.94 32.7408 118.539 32.7408C118.154 32.7408 117.828 32.8419 117.559 33.044C117.291 33.2462 117.087 33.5296 116.948 33.8942C116.812 34.2588 116.744 34.688 116.744 35.1818ZM129.753 33.3821L128.113 33.5611C128.066 33.3954 127.985 33.2396 127.869 33.0938C127.756 32.9479 127.604 32.8303 127.412 32.7408C127.219 32.6513 126.984 32.6065 126.706 32.6065C126.331 32.6065 126.016 32.6877 125.761 32.8501C125.509 33.0125 125.385 33.223 125.388 33.4815C125.385 33.7036 125.466 33.8842 125.632 34.0234C125.801 34.1626 126.079 34.277 126.467 34.3665L127.77 34.6449C128.492 34.8007 129.029 35.0476 129.38 35.3857C129.735 35.7237 129.914 36.1662 129.917 36.7131C129.914 37.1937 129.773 37.6179 129.495 37.9858C129.22 38.3504 128.837 38.6354 128.346 38.8409C127.856 39.0464 127.292 39.1491 126.656 39.1491C125.721 39.1491 124.969 38.9536 124.399 38.5625C123.829 38.1681 123.489 37.6196 123.38 36.9169L125.135 36.7479C125.214 37.0926 125.383 37.3527 125.642 37.5284C125.9 37.7041 126.237 37.7919 126.651 37.7919C127.078 37.7919 127.422 37.7041 127.68 37.5284C127.942 37.3527 128.073 37.1357 128.073 36.8771C128.073 36.6584 127.988 36.4777 127.819 36.3352C127.654 36.1927 127.395 36.0833 127.044 36.0071L125.741 35.7337C125.009 35.5812 124.467 35.3243 124.115 34.9631C123.764 34.5985 123.59 34.1378 123.593 33.581C123.59 33.1103 123.718 32.7027 123.976 32.358C124.238 32.0099 124.601 31.7415 125.065 31.5526C125.532 31.3603 126.071 31.2642 126.681 31.2642C127.576 31.2642 128.28 31.4548 128.794 31.8359C129.311 32.2171 129.631 32.7325 129.753 33.3821ZM131.401 39V31.3636H133.201V39H131.401ZM132.306 30.2798C132.021 30.2798 131.776 30.1854 131.57 29.9964C131.365 29.8042 131.262 29.5739 131.262 29.3054C131.262 29.0336 131.365 28.8033 131.57 28.6143C131.776 28.4221 132.021 28.326 132.306 28.326C132.594 28.326 132.84 28.4221 133.042 28.6143C133.247 28.8033 133.35 29.0336 133.35 29.3054C133.35 29.5739 133.247 29.8042 133.042 29.9964C132.84 30.1854 132.594 30.2798 132.306 30.2798ZM138.865 31.3636V32.7557H134.475V31.3636H138.865ZM135.559 29.5341H137.358V36.7031C137.358 36.9451 137.395 37.1307 137.468 37.2599C137.544 37.3859 137.644 37.4721 137.766 37.5185C137.889 37.5649 138.025 37.5881 138.174 37.5881C138.287 37.5881 138.389 37.5798 138.482 37.5632C138.578 37.5466 138.651 37.5317 138.701 37.5185L139.004 38.9254C138.908 38.9586 138.77 38.995 138.591 39.0348C138.416 39.0746 138.2 39.0978 137.945 39.1044C137.494 39.1177 137.088 39.0497 136.727 38.9006C136.366 38.7481 136.079 38.5128 135.867 38.1946C135.658 37.8764 135.555 37.4787 135.559 37.0014V29.5341ZM143.669 39.1491C142.903 39.1491 142.242 38.9901 141.685 38.6719C141.132 38.3504 140.706 37.8963 140.407 37.3097C140.109 36.7197 139.96 36.0253 139.96 35.2266C139.96 34.4411 140.109 33.7517 140.407 33.1584C140.709 32.5618 141.13 32.0978 141.67 31.7663C142.21 31.4316 142.845 31.2642 143.574 31.2642C144.045 31.2642 144.489 31.3404 144.907 31.4929C145.328 31.642 145.699 31.8741 146.02 32.1889C146.345 32.5038 146.6 32.9048 146.786 33.392C146.971 33.8759 147.064 34.4527 147.064 35.1222V35.674H140.805V34.4609H145.339C145.336 34.1162 145.261 33.8097 145.115 33.5412C144.97 33.2694 144.766 33.0556 144.504 32.8999C144.245 32.7441 143.944 32.6662 143.599 32.6662C143.231 32.6662 142.908 32.7557 142.63 32.9347C142.351 33.1103 142.134 33.3423 141.978 33.6307C141.826 33.9157 141.748 34.2289 141.745 34.5703V35.6293C141.745 36.0734 141.826 36.4545 141.988 36.7727C142.151 37.0876 142.378 37.3295 142.669 37.4986C142.961 37.6643 143.302 37.7472 143.694 37.7472C143.955 37.7472 144.192 37.7107 144.404 37.6378C144.617 37.5616 144.801 37.4505 144.956 37.3047C145.112 37.1589 145.23 36.9782 145.309 36.7628L146.99 36.9517C146.884 37.3958 146.681 37.7836 146.383 38.1151C146.088 38.4432 145.71 38.6984 145.25 38.8807C144.789 39.0597 144.262 39.1491 143.669 39.1491Z" fill="#1C1C1C"/>
<path d="M31.0227 75C30.929 74.7131 30.8054 74.456 30.652 74.2287C30.5014 73.9986 30.321 73.8026 30.1108 73.6406C29.9034 73.4787 29.6676 73.3551 29.4034 73.2699C29.1392 73.1847 28.8494 73.142 28.5341 73.142C28.017 73.142 27.5469 73.2756 27.1236 73.5426C26.7003 73.8097 26.3636 74.2031 26.1136 74.723C25.8636 75.2429 25.7386 75.8807 25.7386 76.6364C25.7386 77.392 25.8651 78.0298 26.1179 78.5497C26.3707 79.0696 26.7131 79.4631 27.1449 79.7301C27.5767 79.9972 28.0625 80.1307 28.6023 80.1307C29.1023 80.1307 29.5426 80.0241 29.9233 79.8111C30.3068 79.5952 30.6051 79.2912 30.8182 78.8991C31.0341 78.5043 31.142 78.0398 31.142 77.5057L31.4659 77.5739H28.8409V76.6364H32.1648V77.5739C32.1648 78.2926 32.0114 78.9176 31.7045 79.4489C31.4006 79.9801 30.9801 80.392 30.4432 80.6847C29.9091 80.9744 29.2955 81.1193 28.6023 81.1193C27.8295 81.1193 27.1506 80.9375 26.5653 80.5739C25.983 80.2102 25.5284 79.6932 25.2017 79.0227C24.8778 78.3523 24.7159 77.5568 24.7159 76.6364C24.7159 75.946 24.8082 75.3253 24.9929 74.7741C25.1804 74.2202 25.4446 73.7486 25.7855 73.3594C26.1264 72.9702 26.5298 72.6719 26.9957 72.4645C27.4616 72.2571 27.9744 72.1534 28.5341 72.1534C28.9943 72.1534 29.4233 72.223 29.821 72.3622C30.2216 72.4986 30.5781 72.6932 30.8906 72.946C31.206 73.196 31.4688 73.4957 31.679 73.8452C31.8892 74.1918 32.0341 74.5767 32.1136 75H31.0227ZM36.4975 81.1364C35.9066 81.1364 35.3881 80.9957 34.9421 80.7145C34.4989 80.4332 34.1523 80.0398 33.9023 79.5341C33.6552 79.0284 33.5316 78.4375 33.5316 77.7614C33.5316 77.0795 33.6552 76.4844 33.9023 75.9759C34.1523 75.4673 34.4989 75.0724 34.9421 74.7912C35.3881 74.5099 35.9066 74.3693 36.4975 74.3693C37.0884 74.3693 37.6055 74.5099 38.0487 74.7912C38.4947 75.0724 38.8413 75.4673 39.0884 75.9759C39.3384 76.4844 39.4634 77.0795 39.4634 77.7614C39.4634 78.4375 39.3384 79.0284 39.0884 79.5341C38.8413 80.0398 38.4947 80.4332 38.0487 80.7145C37.6055 80.9957 37.0884 81.1364 36.4975 81.1364ZM36.4975 80.233C36.9464 80.233 37.3157 80.1179 37.6055 79.8878C37.8952 79.6577 38.1097 79.3551 38.2489 78.9801C38.3881 78.6051 38.4577 78.1989 38.4577 77.7614C38.4577 77.3239 38.3881 76.9162 38.2489 76.5384C38.1097 76.1605 37.8952 75.8551 37.6055 75.6222C37.3157 75.3892 36.9464 75.2727 36.4975 75.2727C36.0487 75.2727 35.6793 75.3892 35.3896 75.6222C35.0998 75.8551 34.8853 76.1605 34.7461 76.5384C34.6069 76.9162 34.5373 77.3239 34.5373 77.7614C34.5373 78.1989 34.6069 78.6051 34.7461 78.9801C34.8853 79.3551 35.0998 79.6577 35.3896 79.8878C35.6793 80.1179 36.0487 80.233 36.4975 80.233ZM43.6577 81.1364C43.0668 81.1364 42.5483 80.9957 42.1023 80.7145C41.6591 80.4332 41.3125 80.0398 41.0625 79.5341C40.8153 79.0284 40.6918 78.4375 40.6918 77.7614C40.6918 77.0795 40.8153 76.4844 41.0625 75.9759C41.3125 75.4673 41.6591 75.0724 42.1023 74.7912C42.5483 74.5099 43.0668 74.3693 43.6577 74.3693C44.2486 74.3693 44.7656 74.5099 45.2088 74.7912C45.6548 75.0724 46.0014 75.4673 46.2486 75.9759C46.4986 76.4844 46.6236 77.0795 46.6236 77.7614C46.6236 78.4375 46.4986 79.0284 46.2486 79.5341C46.0014 80.0398 45.6548 80.4332 45.2088 80.7145C44.7656 80.9957 44.2486 81.1364 43.6577 81.1364ZM43.6577 80.233C44.1065 80.233 44.4759 80.1179 44.7656 79.8878C45.0554 79.6577 45.2699 79.3551 45.4091 78.9801C45.5483 78.6051 45.6179 78.1989 45.6179 77.7614C45.6179 77.3239 45.5483 76.9162 45.4091 76.5384C45.2699 76.1605 45.0554 75.8551 44.7656 75.6222C44.4759 75.3892 44.1065 75.2727 43.6577 75.2727C43.2088 75.2727 42.8395 75.3892 42.5497 75.6222C42.2599 75.8551 42.0455 76.1605 41.9062 76.5384C41.767 76.9162 41.6974 77.3239 41.6974 77.7614C41.6974 78.1989 41.767 78.6051 41.9062 78.9801C42.0455 79.3551 42.2599 79.6577 42.5497 79.8878C42.8395 80.1179 43.2088 80.233 43.6577 80.233ZM50.8008 83.5909C50.315 83.5909 49.8974 83.5284 49.5479 83.4034C49.1985 83.2812 48.9073 83.1193 48.6744 82.9176C48.4442 82.7188 48.261 82.5057 48.1246 82.2784L48.9258 81.7159C49.0167 81.8352 49.1317 81.9716 49.271 82.125C49.4102 82.2812 49.6005 82.4162 49.842 82.5298C50.0863 82.6463 50.4059 82.7045 50.8008 82.7045C51.3292 82.7045 51.7653 82.5767 52.109 82.321C52.4528 82.0653 52.6246 81.6648 52.6246 81.1193V79.7898H52.5394C52.4656 79.9091 52.3604 80.0568 52.2241 80.233C52.0906 80.4062 51.8974 80.5611 51.6445 80.6974C51.3945 80.831 51.0565 80.8977 50.6303 80.8977C50.1019 80.8977 49.6275 80.7727 49.207 80.5227C48.7894 80.2727 48.4585 79.9091 48.2141 79.4318C47.9727 78.9545 47.8519 78.375 47.8519 77.6932C47.8519 77.0227 47.9698 76.4389 48.2056 75.9418C48.4414 75.4418 48.7695 75.0554 49.19 74.7827C49.6104 74.5071 50.0962 74.3693 50.6474 74.3693C51.0735 74.3693 51.4116 74.4403 51.6616 74.5824C51.9144 74.7216 52.1076 74.8807 52.2411 75.0597C52.3775 75.2358 52.4826 75.3807 52.5565 75.4943H52.6587V74.4545H53.6303V81.1875C53.6303 81.75 53.5025 82.2074 53.2468 82.5597C52.994 82.9148 52.6531 83.1747 52.2241 83.3395C51.7979 83.5071 51.3235 83.5909 50.8008 83.5909ZM50.7667 79.9943C51.1701 79.9943 51.511 79.902 51.7894 79.7173C52.0678 79.5327 52.2795 79.267 52.4244 78.9205C52.5692 78.5739 52.6417 78.1591 52.6417 77.6761C52.6417 77.2045 52.5707 76.7884 52.4286 76.4276C52.2866 76.0668 52.0763 75.7841 51.7979 75.5795C51.5195 75.375 51.1758 75.2727 50.7667 75.2727C50.3406 75.2727 49.9854 75.3807 49.7013 75.5966C49.4201 75.8125 49.2085 76.1023 49.0664 76.4659C48.9272 76.8295 48.8576 77.233 48.8576 77.6761C48.8576 78.1307 48.9286 78.5327 49.0707 78.8821C49.2156 79.2287 49.4286 79.5014 49.7099 79.7003C49.994 79.8963 50.3462 79.9943 50.7667 79.9943ZM56.4769 72.2727V81H55.4712V72.2727H56.4769ZM61.0632 81.1364C60.4325 81.1364 59.8885 80.9972 59.4311 80.7188C58.9766 80.4375 58.6257 80.0455 58.3786 79.5426C58.1342 79.0369 58.0121 78.4489 58.0121 77.7784C58.0121 77.108 58.1342 76.517 58.3786 76.0057C58.6257 75.4915 58.9695 75.0909 59.4098 74.804C59.853 74.5142 60.37 74.3693 60.9609 74.3693C61.3018 74.3693 61.6385 74.4261 61.9709 74.5398C62.3033 74.6534 62.6058 74.8381 62.8786 75.0938C63.1513 75.3466 63.3686 75.6818 63.5305 76.0994C63.6925 76.517 63.7734 77.0312 63.7734 77.642V78.0682H58.728V77.1989H62.7507C62.7507 76.8295 62.6768 76.5 62.5291 76.2102C62.3842 75.9205 62.1768 75.6918 61.907 75.5241C61.6399 75.3565 61.3246 75.2727 60.9609 75.2727C60.5604 75.2727 60.2138 75.3722 59.9212 75.571C59.6314 75.767 59.4084 76.0227 59.2521 76.3381C59.0959 76.6534 59.0178 76.9915 59.0178 77.3523V77.9318C59.0178 78.4261 59.103 78.8452 59.2734 79.1889C59.4467 79.5298 59.6868 79.7898 59.9936 79.9688C60.3004 80.1449 60.657 80.233 61.0632 80.233C61.3274 80.233 61.5661 80.196 61.7791 80.1222C61.995 80.0455 62.1811 79.9318 62.3374 79.7812C62.4936 79.6278 62.6143 79.4375 62.6996 79.2102L63.6712 79.483C63.5689 79.8125 63.397 80.1023 63.1555 80.3523C62.9141 80.5994 62.6158 80.7926 62.2607 80.9318C61.9055 81.0682 61.5064 81.1364 61.0632 81.1364Z" fill="#1C1C1C"/>
<path d="M24.3068 114.673H25.517L27.9375 118.747H28.0398L30.4602 114.673H31.6705L28.517 119.803V123.4H27.4602V119.803L24.3068 114.673ZM34.6342 123.536C34.0433 123.536 33.5249 123.396 33.0788 123.114C32.6357 122.833 32.2891 122.44 32.0391 121.934C31.7919 121.428 31.6683 120.837 31.6683 120.161C31.6683 119.48 31.7919 118.884 32.0391 118.376C32.2891 117.867 32.6357 117.472 33.0788 117.191C33.5249 116.91 34.0433 116.769 34.6342 116.769C35.2251 116.769 35.7422 116.91 36.1854 117.191C36.6314 117.472 36.978 117.867 37.2251 118.376C37.4751 118.884 37.6001 119.48 37.6001 120.161C37.6001 120.837 37.4751 121.428 37.2251 121.934C36.978 122.44 36.6314 122.833 36.1854 123.114C35.7422 123.396 35.2251 123.536 34.6342 123.536ZM34.6342 122.633C35.0831 122.633 35.4524 122.518 35.7422 122.288C36.032 122.058 36.2464 121.755 36.3857 121.38C36.5249 121.005 36.5945 120.599 36.5945 120.161C36.5945 119.724 36.5249 119.316 36.3857 118.938C36.2464 118.561 36.032 118.255 35.7422 118.022C35.4524 117.789 35.0831 117.673 34.6342 117.673C34.1854 117.673 33.8161 117.789 33.5263 118.022C33.2365 118.255 33.022 118.561 32.8828 118.938C32.7436 119.316 32.674 119.724 32.674 120.161C32.674 120.599 32.7436 121.005 32.8828 121.38C33.022 121.755 33.2365 122.058 33.5263 122.288C33.8161 122.518 34.1854 122.633 34.6342 122.633ZM43.2603 120.724V116.855H44.266V123.4H43.2603V122.292H43.1921C43.0387 122.624 42.8001 122.907 42.4762 123.14C42.1523 123.37 41.7433 123.485 41.2489 123.485C40.8398 123.485 40.4762 123.396 40.158 123.217C39.8398 123.035 39.5898 122.762 39.408 122.399C39.2262 122.032 39.1353 121.57 39.1353 121.014V116.855H40.141V120.945C40.141 121.423 40.2745 121.803 40.5415 122.087C40.8114 122.372 41.1552 122.514 41.5728 122.514C41.8228 122.514 42.0771 122.45 42.3356 122.322C42.5969 122.194 42.8157 121.998 42.9918 121.734C43.1708 121.47 43.2603 121.133 43.2603 120.724ZM45.1577 115.61V114.673H51.7031V115.61H48.9588V123.4H47.902V115.61H45.1577ZM56.4322 120.724V116.855H57.4379V123.4H56.4322V122.292H56.364C56.2106 122.624 55.9719 122.907 55.6481 123.14C55.3242 123.37 54.9151 123.485 54.4208 123.485C54.0117 123.485 53.6481 123.396 53.3299 123.217C53.0117 123.035 52.7617 122.762 52.5799 122.399C52.3981 122.032 52.3072 121.57 52.3072 121.014V116.855H53.3129V120.945C53.3129 121.423 53.4464 121.803 53.7134 122.087C53.9833 122.372 54.3271 122.514 54.7447 122.514C54.9947 122.514 55.2489 122.45 55.5075 122.322C55.7688 122.194 55.9876 121.998 56.1637 121.734C56.3427 121.47 56.4322 121.133 56.4322 120.724ZM59.4162 123.4V114.673H60.4219V117.894H60.5071C60.581 117.781 60.6832 117.636 60.8139 117.46C60.9474 117.281 61.1378 117.122 61.3849 116.982C61.6349 116.84 61.973 116.769 62.3991 116.769C62.9503 116.769 63.4361 116.907 63.8565 117.183C64.277 117.458 64.6051 117.849 64.8409 118.355C65.0767 118.86 65.1946 119.457 65.1946 120.144C65.1946 120.837 65.0767 121.438 64.8409 121.947C64.6051 122.453 64.2784 122.845 63.8608 123.123C63.4432 123.399 62.9616 123.536 62.4162 123.536C61.9957 123.536 61.6591 123.467 61.4062 123.328C61.1534 123.186 60.9588 123.025 60.8224 122.846C60.6861 122.664 60.581 122.514 60.5071 122.394H60.3878V123.4H59.4162ZM60.4048 120.127C60.4048 120.622 60.4773 121.058 60.6222 121.436C60.767 121.811 60.9787 122.105 61.2571 122.318C61.5355 122.528 61.8764 122.633 62.2798 122.633C62.7003 122.633 63.0511 122.522 63.3324 122.301C63.6165 122.076 63.8295 121.775 63.9716 121.397C64.1165 121.016 64.1889 120.593 64.1889 120.127C64.1889 119.667 64.1179 119.252 63.9759 118.883C63.8366 118.511 63.625 118.217 63.3409 118.001C63.0597 117.782 62.706 117.673 62.2798 117.673C61.8707 117.673 61.527 117.776 61.2486 117.984C60.9702 118.188 60.7599 118.475 60.6179 118.845C60.4759 119.211 60.4048 119.639 60.4048 120.127ZM69.4773 123.536C68.8466 123.536 68.3026 123.397 67.8452 123.119C67.3906 122.837 67.0398 122.445 66.7926 121.943C66.5483 121.437 66.4261 120.849 66.4261 120.178C66.4261 119.508 66.5483 118.917 66.7926 118.406C67.0398 117.891 67.3835 117.491 67.8239 117.204C68.267 116.914 68.7841 116.769 69.375 116.769C69.7159 116.769 70.0526 116.826 70.3849 116.94C70.7173 117.053 71.0199 117.238 71.2926 117.494C71.5653 117.747 71.7827 118.082 71.9446 118.499C72.1065 118.917 72.1875 119.431 72.1875 120.042V120.468H67.142V119.599H71.1648C71.1648 119.23 71.0909 118.9 70.9432 118.61C70.7983 118.32 70.5909 118.092 70.321 117.924C70.054 117.757 69.7386 117.673 69.375 117.673C68.9744 117.673 68.6278 117.772 68.3352 117.971C68.0455 118.167 67.8224 118.423 67.6662 118.738C67.5099 119.053 67.4318 119.391 67.4318 119.752V120.332C67.4318 120.826 67.517 121.245 67.6875 121.589C67.8608 121.93 68.1009 122.19 68.4077 122.369C68.7145 122.545 69.071 122.633 69.4773 122.633C69.7415 122.633 69.9801 122.596 70.1932 122.522C70.4091 122.445 70.5952 122.332 70.7514 122.181C70.9077 122.028 71.0284 121.837 71.1136 121.61L72.0852 121.883C71.983 122.212 71.8111 122.502 71.5696 122.752C71.3281 122.999 71.0298 123.193 70.6747 123.332C70.3196 123.468 69.9205 123.536 69.4773 123.536Z" fill="#1C1C1C"/>
<path d="M26.1136 157.073V165.8H25.0568V157.073H26.1136ZM29.1019 161.862V165.8H28.0962V159.255H29.0678V160.277H29.1531C29.3065 159.945 29.5394 159.678 29.8519 159.476C30.1644 159.272 30.5678 159.169 31.0621 159.169C31.5053 159.169 31.8931 159.26 32.2255 159.442C32.5579 159.621 32.8164 159.894 33.0011 160.26C33.1857 160.624 33.2781 161.084 33.2781 161.641V165.8H32.2724V161.709C32.2724 161.195 32.1388 160.794 31.8718 160.507C31.6048 160.218 31.2383 160.073 30.7724 160.073C30.4513 160.073 30.1644 160.142 29.9116 160.282C29.6616 160.421 29.4641 160.624 29.3192 160.891C29.1744 161.158 29.1019 161.482 29.1019 161.862ZM39.7521 160.72L38.8487 160.976C38.7919 160.826 38.7081 160.679 38.5973 160.537C38.4893 160.392 38.3416 160.273 38.1541 160.179C37.9666 160.085 37.7266 160.039 37.4339 160.039C37.0334 160.039 36.6996 160.131 36.4325 160.316C36.1683 160.497 36.0362 160.729 36.0362 161.01C36.0362 161.26 36.1271 161.458 36.3089 161.603C36.4908 161.747 36.7749 161.868 37.1612 161.965L38.1328 162.203C38.718 162.345 39.1541 162.563 39.4411 162.855C39.728 163.145 39.8714 163.519 39.8714 163.976C39.8714 164.351 39.7635 164.686 39.5476 164.982C39.3345 165.277 39.0362 165.51 38.6527 165.681C38.2692 165.851 37.8232 165.936 37.3146 165.936C36.647 165.936 36.0945 165.791 35.657 165.502C35.2195 165.212 34.9425 164.789 34.826 164.232L35.7805 163.993C35.8714 164.345 36.0433 164.61 36.2962 164.786C36.5518 164.962 36.8857 165.05 37.2976 165.05C37.7663 165.05 38.1385 164.951 38.4141 164.752C38.6925 164.55 38.8317 164.309 38.8317 164.027C38.8317 163.8 38.7521 163.61 38.593 163.456C38.4339 163.3 38.1896 163.184 37.8601 163.107L36.7692 162.851C36.1697 162.709 35.7294 162.489 35.4482 162.191C35.1697 161.889 35.0305 161.513 35.0305 161.061C35.0305 160.692 35.1342 160.365 35.3416 160.081C35.5518 159.797 35.8374 159.574 36.1982 159.412C36.5618 159.25 36.9737 159.169 37.4339 159.169C38.0817 159.169 38.5902 159.311 38.9595 159.595C39.3317 159.88 39.5959 160.255 39.7521 160.72ZM44.2319 159.255V160.107H40.8398V159.255H44.2319ZM41.8285 157.686H42.8342V163.925C42.8342 164.209 42.8754 164.422 42.9577 164.564C43.043 164.703 43.1509 164.797 43.2816 164.845C43.4151 164.891 43.5558 164.914 43.7035 164.914C43.8143 164.914 43.9052 164.908 43.9762 164.897C44.0472 164.882 44.104 164.871 44.1467 164.862L44.3512 165.766C44.283 165.791 44.1879 165.817 44.0657 165.843C43.9435 165.871 43.7887 165.885 43.6012 165.885C43.3171 165.885 43.0387 165.824 42.766 165.702C42.4961 165.58 42.2717 165.394 42.0927 165.144C41.9165 164.894 41.8285 164.578 41.8285 164.198V157.686ZM48.146 165.936C47.6005 165.936 47.119 165.799 46.7013 165.523C46.2837 165.245 45.957 164.853 45.7212 164.347C45.4854 163.838 45.3675 163.237 45.3675 162.544C45.3675 161.857 45.4854 161.26 45.7212 160.755C45.957 160.249 46.2852 159.858 46.7056 159.583C47.1261 159.307 47.6119 159.169 48.163 159.169C48.5891 159.169 48.9258 159.24 49.1729 159.382C49.4229 159.522 49.6133 159.681 49.744 159.86C49.8775 160.036 49.9812 160.181 50.055 160.294H50.1403V159.255H51.146V165.8H50.1744V164.794H50.055C49.9812 164.914 49.8761 165.064 49.7397 165.246C49.6033 165.425 49.4087 165.585 49.1559 165.728C48.9031 165.867 48.5664 165.936 48.146 165.936ZM48.2823 165.033C48.6857 165.033 49.0266 164.928 49.305 164.718C49.5835 164.505 49.7951 164.21 49.94 163.835C50.0849 163.458 50.1573 163.022 50.1573 162.527C50.1573 162.039 50.0863 161.611 49.9442 161.245C49.8022 160.875 49.592 160.588 49.3136 160.384C49.0352 160.176 48.6914 160.073 48.2823 160.073C47.8562 160.073 47.5011 160.182 47.217 160.401C46.9357 160.617 46.7241 160.911 46.582 161.283C46.4428 161.652 46.3732 162.067 46.3732 162.527C46.3732 162.993 46.4442 163.416 46.5863 163.797C46.7312 164.175 46.9442 164.476 47.2255 164.701C47.5096 164.922 47.8619 165.033 48.2823 165.033ZM55.7695 168.391C55.2837 168.391 54.8661 168.328 54.5167 168.203C54.1673 168.081 53.8761 167.919 53.6431 167.718C53.413 167.519 53.2298 167.306 53.0934 167.078L53.8945 166.516C53.9854 166.635 54.1005 166.772 54.2397 166.925C54.3789 167.081 54.5692 167.216 54.8107 167.33C55.055 167.446 55.3746 167.505 55.7695 167.505C56.2979 167.505 56.734 167.377 57.0778 167.121C57.4215 166.865 57.5934 166.465 57.5934 165.919V164.59H57.5082C57.4343 164.709 57.3292 164.857 57.1928 165.033C57.0593 165.206 56.8661 165.361 56.6133 165.497C56.3633 165.631 56.0252 165.698 55.5991 165.698C55.0707 165.698 54.5962 165.573 54.1758 165.323C53.7582 165.073 53.4272 164.709 53.1829 164.232C52.9414 163.755 52.8207 163.175 52.8207 162.493C52.8207 161.823 52.9386 161.239 53.1744 160.742C53.4102 160.242 53.7383 159.855 54.1587 159.583C54.5792 159.307 55.065 159.169 55.6161 159.169C56.0423 159.169 56.3803 159.24 56.6303 159.382C56.8832 159.522 57.0763 159.681 57.2099 159.86C57.3462 160.036 57.4513 160.181 57.5252 160.294H57.6275V159.255H58.5991V165.987C58.5991 166.55 58.4712 167.007 58.2156 167.36C57.9627 167.715 57.6218 167.975 57.1928 168.139C56.7667 168.307 56.2923 168.391 55.7695 168.391ZM55.7354 164.794C56.1388 164.794 56.4798 164.702 56.7582 164.517C57.0366 164.333 57.2482 164.067 57.3931 163.72C57.538 163.374 57.6104 162.959 57.6104 162.476C57.6104 162.005 57.5394 161.588 57.3974 161.228C57.2553 160.867 57.0451 160.584 56.7667 160.38C56.4883 160.175 56.1445 160.073 55.7354 160.073C55.3093 160.073 54.9542 160.181 54.6701 160.397C54.3888 160.612 54.1772 160.902 54.0352 161.266C53.896 161.63 53.8263 162.033 53.8263 162.476C53.8263 162.931 53.8974 163.333 54.0394 163.682C54.1843 164.029 54.3974 164.301 54.6786 164.5C54.9627 164.696 55.315 164.794 55.7354 164.794ZM60.44 165.8V159.255H61.4116V160.243H61.4798C61.5991 159.919 61.815 159.657 62.1275 159.455C62.44 159.253 62.7923 159.152 63.1843 159.152C63.2582 159.152 63.3505 159.154 63.4613 159.157C63.5721 159.159 63.6559 159.164 63.7127 159.169V160.192C63.6786 160.184 63.6005 160.171 63.4783 160.154C63.359 160.134 63.2326 160.124 63.0991 160.124C62.7809 160.124 62.4968 160.191 62.2468 160.324C61.9996 160.455 61.8036 160.637 61.6587 160.87C61.5167 161.1 61.4457 161.362 61.4457 161.658V165.8H60.44ZM67.1772 165.936C66.6317 165.936 66.1502 165.799 65.7326 165.523C65.315 165.245 64.9883 164.853 64.7525 164.347C64.5167 163.838 64.3988 163.237 64.3988 162.544C64.3988 161.857 64.5167 161.26 64.7525 160.755C64.9883 160.249 65.3164 159.858 65.7369 159.583C66.1573 159.307 66.6431 159.169 67.1942 159.169C67.6204 159.169 67.957 159.24 68.2042 159.382C68.4542 159.522 68.6445 159.681 68.7752 159.86C68.9087 160.036 69.0124 160.181 69.0863 160.294H69.1715V159.255H70.1772V165.8H69.2056V164.794H69.0863C69.0124 164.914 68.9073 165.064 68.771 165.246C68.6346 165.425 68.44 165.585 68.1871 165.728C67.9343 165.867 67.5977 165.936 67.1772 165.936ZM67.3136 165.033C67.717 165.033 68.0579 164.928 68.3363 164.718C68.6147 164.505 68.8263 164.21 68.9712 163.835C69.1161 163.458 69.1886 163.022 69.1886 162.527C69.1886 162.039 69.1175 161.611 68.9755 161.245C68.8335 160.875 68.6232 160.588 68.3448 160.384C68.0664 160.176 67.7227 160.073 67.3136 160.073C66.8874 160.073 66.5323 160.182 66.2482 160.401C65.967 160.617 65.7553 160.911 65.6133 161.283C65.4741 161.652 65.4045 162.067 65.4045 162.527C65.4045 162.993 65.4755 163.416 65.6175 163.797C65.7624 164.175 65.9755 164.476 66.2567 164.701C66.5408 164.922 66.8931 165.033 67.3136 165.033ZM72.1587 165.8V159.255H73.1303V160.277H73.2156C73.3519 159.928 73.5721 159.657 73.8761 159.463C74.18 159.267 74.5451 159.169 74.9712 159.169C75.4031 159.169 75.7624 159.267 76.0494 159.463C76.3391 159.657 76.565 159.928 76.7269 160.277H76.7951C76.9627 159.939 77.2141 159.671 77.5494 159.472C77.8846 159.27 78.2866 159.169 78.7553 159.169C79.3406 159.169 79.8192 159.353 80.1914 159.719C80.5636 160.083 80.7496 160.649 80.7496 161.419V165.8H79.744V161.419C79.744 160.936 79.6119 160.591 79.3477 160.384C79.0835 160.176 78.7724 160.073 78.4144 160.073C77.9542 160.073 77.5977 160.212 77.3448 160.49C77.092 160.766 76.9656 161.115 76.9656 161.539V165.8H75.9428V161.317C75.9428 160.945 75.8221 160.645 75.5806 160.418C75.3391 160.188 75.0281 160.073 74.6474 160.073C74.386 160.073 74.1417 160.142 73.9144 160.282C73.69 160.421 73.5082 160.614 73.369 160.861C73.2326 161.105 73.1644 161.388 73.1644 161.709V165.8H72.1587Z" fill="#1C1C1C"/>
<path d="M25.0568 208.2V199.473H28.0057C28.6903 199.473 29.25 199.596 29.6847 199.843C30.1222 200.088 30.446 200.419 30.6562 200.836C30.8665 201.254 30.9716 201.72 30.9716 202.234C30.9716 202.748 30.8665 203.216 30.6562 203.636C30.4489 204.057 30.1278 204.392 29.6932 204.642C29.2585 204.889 28.7017 205.013 28.0227 205.013H25.9091V204.075H27.9886C28.4574 204.075 28.8338 203.994 29.1179 203.832C29.402 203.67 29.608 203.451 29.7358 203.176C29.8665 202.897 29.9318 202.584 29.9318 202.234C29.9318 201.885 29.8665 201.572 29.7358 201.297C29.608 201.021 29.4006 200.805 29.1136 200.649C28.8267 200.49 28.446 200.41 27.9716 200.41H26.1136V208.2H25.0568ZM32.5376 208.2V201.655H33.5433V208.2H32.5376ZM33.049 200.564C32.853 200.564 32.6839 200.497 32.5419 200.363C32.4027 200.23 32.3331 200.069 32.3331 199.882C32.3331 199.694 32.4027 199.534 32.5419 199.4C32.6839 199.267 32.853 199.2 33.049 199.2C33.245 199.2 33.4126 199.267 33.5518 199.4C33.6939 199.534 33.7649 199.694 33.7649 199.882C33.7649 200.069 33.6939 200.23 33.5518 200.363C33.4126 200.497 33.245 200.564 33.049 200.564ZM36.391 204.263V208.2H35.3853V201.655H36.3569V202.677H36.4421C36.5955 202.345 36.8285 202.078 37.141 201.876C37.4535 201.672 37.8569 201.569 38.3512 201.569C38.7944 201.569 39.1822 201.66 39.5146 201.842C39.8469 202.021 40.1055 202.294 40.2901 202.66C40.4748 203.024 40.5671 203.484 40.5671 204.041V208.2H39.5614V204.109C39.5614 203.595 39.4279 203.194 39.1609 202.907C38.8938 202.618 38.5273 202.473 38.0614 202.473C37.7404 202.473 37.4535 202.542 37.2006 202.682C36.9506 202.821 36.7532 203.024 36.6083 203.291C36.4634 203.558 36.391 203.882 36.391 204.263ZM45.2514 201.655V202.507H41.8594V201.655H45.2514ZM42.848 200.086H43.8537V206.325C43.8537 206.609 43.8949 206.822 43.9773 206.964C44.0625 207.103 44.1705 207.197 44.3011 207.245C44.4347 207.291 44.5753 207.314 44.723 207.314C44.8338 207.314 44.9247 207.308 44.9957 207.297C45.0668 207.282 45.1236 207.271 45.1662 207.263L45.3707 208.166C45.3026 208.191 45.2074 208.217 45.0852 208.243C44.9631 208.271 44.8082 208.285 44.6207 208.285C44.3366 208.285 44.0582 208.224 43.7855 208.102C43.5156 207.98 43.2912 207.794 43.1122 207.544C42.9361 207.294 42.848 206.978 42.848 206.598V200.086ZM49.4382 208.336C48.8075 208.336 48.2635 208.197 47.8061 207.919C47.3516 207.638 47.0007 207.245 46.7536 206.743C46.5092 206.237 46.3871 205.649 46.3871 204.978C46.3871 204.308 46.5092 203.717 46.7536 203.206C47.0007 202.691 47.3445 202.291 47.7848 202.004C48.228 201.714 48.745 201.569 49.3359 201.569C49.6768 201.569 50.0135 201.626 50.3459 201.74C50.6783 201.853 50.9808 202.038 51.2536 202.294C51.5263 202.547 51.7436 202.882 51.9055 203.299C52.0675 203.717 52.1484 204.231 52.1484 204.842V205.268H47.103V204.399H51.1257C51.1257 204.03 51.0518 203.7 50.9041 203.41C50.7592 203.12 50.5518 202.892 50.282 202.724C50.0149 202.557 49.6996 202.473 49.3359 202.473C48.9354 202.473 48.5888 202.572 48.2962 202.771C48.0064 202.967 47.7834 203.223 47.6271 203.538C47.4709 203.853 47.3928 204.191 47.3928 204.552V205.132C47.3928 205.626 47.478 206.045 47.6484 206.389C47.8217 206.73 48.0618 206.99 48.3686 207.169C48.6754 207.345 49.032 207.433 49.4382 207.433C49.7024 207.433 49.9411 207.396 50.1541 207.322C50.37 207.245 50.5561 207.132 50.7124 206.981C50.8686 206.828 50.9893 206.638 51.0746 206.41L52.0462 206.683C51.9439 207.013 51.772 207.302 51.5305 207.552C51.2891 207.799 50.9908 207.993 50.6357 208.132C50.2805 208.268 49.8814 208.336 49.4382 208.336ZM53.6783 208.2V201.655H54.6499V202.643H54.718C54.8374 202.319 55.0533 202.057 55.3658 201.855C55.6783 201.653 56.0305 201.552 56.4226 201.552C56.4964 201.552 56.5888 201.554 56.6996 201.557C56.8104 201.559 56.8942 201.564 56.951 201.569V202.592C56.9169 202.584 56.8388 202.571 56.7166 202.554C56.5973 202.534 56.4709 202.524 56.3374 202.524C56.0192 202.524 55.7351 202.591 55.4851 202.724C55.2379 202.855 55.0419 203.037 54.897 203.27C54.755 203.5 54.6839 203.763 54.6839 204.058V208.2H53.6783ZM60.6882 208.336C60.0575 208.336 59.5135 208.197 59.0561 207.919C58.6016 207.638 58.2507 207.245 58.0036 206.743C57.7592 206.237 57.6371 205.649 57.6371 204.978C57.6371 204.308 57.7592 203.717 58.0036 203.206C58.2507 202.691 58.5945 202.291 59.0348 202.004C59.478 201.714 59.995 201.569 60.5859 201.569C60.9268 201.569 61.2635 201.626 61.5959 201.74C61.9283 201.853 62.2308 202.038 62.5036 202.294C62.7763 202.547 62.9936 202.882 63.1555 203.299C63.3175 203.717 63.3984 204.231 63.3984 204.842V205.268H58.353V204.399H62.3757C62.3757 204.03 62.3018 203.7 62.1541 203.41C62.0092 203.12 61.8018 202.892 61.532 202.724C61.2649 202.557 60.9496 202.473 60.5859 202.473C60.1854 202.473 59.8388 202.572 59.5462 202.771C59.2564 202.967 59.0334 203.223 58.8771 203.538C58.7209 203.853 58.6428 204.191 58.6428 204.552V205.132C58.6428 205.626 58.728 206.045 58.8984 206.389C59.0717 206.73 59.3118 206.99 59.6186 207.169C59.9254 207.345 60.282 207.433 60.6882 207.433C60.9524 207.433 61.1911 207.396 61.4041 207.322C61.62 207.245 61.8061 207.132 61.9624 206.981C62.1186 206.828 62.2393 206.638 62.3246 206.41L63.2962 206.683C63.1939 207.013 63.022 207.302 62.7805 207.552C62.5391 207.799 62.2408 207.993 61.8857 208.132C61.5305 208.268 61.1314 208.336 60.6882 208.336ZM69.5646 203.12L68.6612 203.376C68.6044 203.226 68.5206 203.079 68.4098 202.937C68.3018 202.792 68.1541 202.673 67.9666 202.579C67.7791 202.486 67.5391 202.439 67.2464 202.439C66.8459 202.439 66.5121 202.531 66.245 202.716C65.9808 202.897 65.8487 203.129 65.8487 203.41C65.8487 203.66 65.9396 203.858 66.1214 204.003C66.3033 204.147 66.5874 204.268 66.9737 204.365L67.9453 204.603C68.5305 204.745 68.9666 204.963 69.2536 205.255C69.5405 205.545 69.6839 205.919 69.6839 206.376C69.6839 206.751 69.576 207.086 69.3601 207.382C69.147 207.677 68.8487 207.91 68.4652 208.081C68.0817 208.251 67.6357 208.336 67.1271 208.336C66.4595 208.336 65.907 208.191 65.4695 207.902C65.032 207.612 64.755 207.189 64.6385 206.632L65.593 206.393C65.6839 206.745 65.8558 207.01 66.1087 207.186C66.3643 207.362 66.6982 207.45 67.1101 207.45C67.5788 207.45 67.951 207.351 68.2266 207.152C68.505 206.95 68.6442 206.709 68.6442 206.427C68.6442 206.2 68.5646 206.01 68.4055 205.856C68.2464 205.7 68.0021 205.584 67.6726 205.507L66.5817 205.251C65.9822 205.109 65.5419 204.889 65.2607 204.591C64.9822 204.29 64.843 203.913 64.843 203.461C64.843 203.092 64.9467 202.765 65.1541 202.481C65.3643 202.197 65.6499 201.974 66.0107 201.812C66.3743 201.65 66.7862 201.569 67.2464 201.569C67.8942 201.569 68.4027 201.711 68.772 201.995C69.1442 202.28 69.4084 202.655 69.5646 203.12ZM74.0444 201.655V202.507H70.6523V201.655H74.0444ZM71.641 200.086H72.6467V206.325C72.6467 206.609 72.6879 206.822 72.7702 206.964C72.8555 207.103 72.9634 207.197 73.0941 207.245C73.2276 207.291 73.3683 207.314 73.516 207.314C73.6268 207.314 73.7177 207.308 73.7887 207.297C73.8597 207.282 73.9165 207.271 73.9592 207.263L74.1637 208.166C74.0955 208.191 74.0004 208.217 73.8782 208.243C73.756 208.271 73.6012 208.285 73.4137 208.285C73.1296 208.285 72.8512 208.224 72.5785 208.102C72.3086 207.98 72.0842 207.794 71.9052 207.544C71.729 207.294 71.641 206.978 71.641 206.598V200.086Z" fill="#1C1C1C"/>
<path d="M25.0568 250.6V241.873H30.2898V242.81H26.1136V245.759H29.8977V246.697H26.1136V250.6H25.0568ZM33.9545 250.736C33.4091 250.736 32.9276 250.599 32.5099 250.323C32.0923 250.045 31.7656 249.653 31.5298 249.147C31.294 248.638 31.1761 248.037 31.1761 247.344C31.1761 246.657 31.294 246.06 31.5298 245.555C31.7656 245.049 32.0938 244.658 32.5142 244.383C32.9347 244.107 33.4205 243.969 33.9716 243.969C34.3977 243.969 34.7344 244.04 34.9815 244.182C35.2315 244.322 35.4219 244.481 35.5526 244.66C35.6861 244.836 35.7898 244.981 35.8636 245.094H35.9489V244.055H36.9545V250.6H35.983V249.594H35.8636C35.7898 249.714 35.6847 249.864 35.5483 250.046C35.4119 250.225 35.2173 250.385 34.9645 250.528C34.7116 250.667 34.375 250.736 33.9545 250.736ZM34.0909 249.833C34.4943 249.833 34.8352 249.728 35.1136 249.518C35.392 249.305 35.6037 249.01 35.7486 248.635C35.8935 248.258 35.9659 247.822 35.9659 247.327C35.9659 246.839 35.8949 246.411 35.7528 246.045C35.6108 245.675 35.4006 245.388 35.1222 245.184C34.8438 244.976 34.5 244.873 34.0909 244.873C33.6648 244.873 33.3097 244.982 33.0256 245.201C32.7443 245.417 32.5327 245.711 32.3906 246.083C32.2514 246.452 32.1818 246.867 32.1818 247.327C32.1818 247.793 32.2528 248.216 32.3949 248.597C32.5398 248.975 32.7528 249.276 33.0341 249.501C33.3182 249.722 33.6705 249.833 34.0909 249.833ZM41.5952 250.736C40.9815 250.736 40.4531 250.591 40.0099 250.302C39.5668 250.012 39.2259 249.613 38.9872 249.104C38.7486 248.596 38.6293 248.015 38.6293 247.361C38.6293 246.697 38.7514 246.11 38.9957 245.601C39.2429 245.09 39.5866 244.691 40.027 244.404C40.4702 244.114 40.9872 243.969 41.5781 243.969C42.0384 243.969 42.4531 244.055 42.8224 244.225C43.1918 244.395 43.4943 244.634 43.7301 244.941C43.9659 245.248 44.1122 245.606 44.169 246.015H43.1634C43.0866 245.716 42.9162 245.452 42.652 245.222C42.3906 244.989 42.0384 244.873 41.5952 244.873C41.2031 244.873 40.8594 244.975 40.5639 245.18C40.2713 245.381 40.0426 245.667 39.8778 246.036C39.7159 246.403 39.6349 246.833 39.6349 247.327C39.6349 247.833 39.7145 248.273 39.8736 248.648C40.0355 249.023 40.2628 249.314 40.5554 249.522C40.8509 249.729 41.1974 249.833 41.5952 249.833C41.8565 249.833 42.0938 249.787 42.3068 249.697C42.5199 249.606 42.7003 249.475 42.848 249.305C42.9957 249.134 43.1009 248.93 43.1634 248.691H44.169C44.1122 249.077 43.9716 249.425 43.7472 249.735C43.5256 250.042 43.2315 250.286 42.8651 250.468C42.5014 250.647 42.0781 250.736 41.5952 250.736ZM48.3835 250.736C47.7528 250.736 47.2088 250.597 46.7514 250.319C46.2969 250.037 45.946 249.645 45.6989 249.143C45.4545 248.637 45.3324 248.049 45.3324 247.378C45.3324 246.708 45.4545 246.117 45.6989 245.606C45.946 245.091 46.2898 244.691 46.7301 244.404C47.1733 244.114 47.6903 243.969 48.2812 243.969C48.6222 243.969 48.9588 244.026 49.2912 244.14C49.6236 244.253 49.9261 244.438 50.1989 244.694C50.4716 244.947 50.6889 245.282 50.8509 245.699C51.0128 246.117 51.0938 246.631 51.0938 247.242V247.668H46.0483V246.799H50.071C50.071 246.43 49.9972 246.1 49.8494 245.81C49.7045 245.52 49.4972 245.292 49.2273 245.124C48.9602 244.957 48.6449 244.873 48.2812 244.873C47.8807 244.873 47.5341 244.972 47.2415 245.171C46.9517 245.367 46.7287 245.623 46.5724 245.938C46.4162 246.253 46.3381 246.591 46.3381 246.952V247.532C46.3381 248.026 46.4233 248.445 46.5938 248.789C46.767 249.13 47.0071 249.39 47.3139 249.569C47.6207 249.745 47.9773 249.833 48.3835 249.833C48.6477 249.833 48.8864 249.796 49.0994 249.722C49.3153 249.645 49.5014 249.532 49.6577 249.381C49.8139 249.228 49.9347 249.037 50.0199 248.81L50.9915 249.083C50.8892 249.412 50.7173 249.702 50.4759 249.952C50.2344 250.199 49.9361 250.393 49.581 250.532C49.2259 250.668 48.8267 250.736 48.3835 250.736ZM52.7599 250.6V241.873H53.7656V245.094H53.8509C53.9247 244.981 54.027 244.836 54.1577 244.66C54.2912 244.481 54.4815 244.322 54.7287 244.182C54.9787 244.04 55.3168 243.969 55.7429 243.969C56.294 243.969 56.7798 244.107 57.2003 244.383C57.6207 244.658 57.9489 245.049 58.1847 245.555C58.4205 246.06 58.5384 246.657 58.5384 247.344C58.5384 248.037 58.4205 248.638 58.1847 249.147C57.9489 249.653 57.6222 250.045 57.2045 250.323C56.7869 250.599 56.3054 250.736 55.7599 250.736C55.3395 250.736 55.0028 250.667 54.75 250.528C54.4972 250.385 54.3026 250.225 54.1662 250.046C54.0298 249.864 53.9247 249.714 53.8509 249.594H53.7315V250.6H52.7599ZM53.7486 247.327C53.7486 247.822 53.821 248.258 53.9659 248.635C54.1108 249.01 54.3224 249.305 54.6009 249.518C54.8793 249.728 55.2202 249.833 55.6236 249.833C56.044 249.833 56.3949 249.722 56.6761 249.501C56.9602 249.276 57.1733 248.975 57.3153 248.597C57.4602 248.216 57.5327 247.793 57.5327 247.327C57.5327 246.867 57.4616 246.452 57.3196 246.083C57.1804 245.711 56.9688 245.417 56.6847 245.201C56.4034 244.982 56.0497 244.873 55.6236 244.873C55.2145 244.873 54.8707 244.976 54.5923 245.184C54.3139 245.388 54.1037 245.675 53.9616 246.045C53.8196 246.411 53.7486 246.839 53.7486 247.327ZM62.7358 250.736C62.1449 250.736 61.6264 250.596 61.1804 250.314C60.7372 250.033 60.3906 249.64 60.1406 249.134C59.8935 248.628 59.7699 248.037 59.7699 247.361C59.7699 246.68 59.8935 246.084 60.1406 245.576C60.3906 245.067 60.7372 244.672 61.1804 244.391C61.6264 244.11 62.1449 243.969 62.7358 243.969C63.3267 243.969 63.8438 244.11 64.2869 244.391C64.733 244.672 65.0795 245.067 65.3267 245.576C65.5767 246.084 65.7017 246.68 65.7017 247.361C65.7017 248.037 65.5767 248.628 65.3267 249.134C65.0795 249.64 64.733 250.033 64.2869 250.314C63.8438 250.596 63.3267 250.736 62.7358 250.736ZM62.7358 249.833C63.1847 249.833 63.554 249.718 63.8438 249.488C64.1335 249.258 64.348 248.955 64.4872 248.58C64.6264 248.205 64.696 247.799 64.696 247.361C64.696 246.924 64.6264 246.516 64.4872 246.138C64.348 245.76 64.1335 245.455 63.8438 245.222C63.554 244.989 63.1847 244.873 62.7358 244.873C62.2869 244.873 61.9176 244.989 61.6278 245.222C61.3381 245.455 61.1236 245.76 60.9844 246.138C60.8452 246.516 60.7756 246.924 60.7756 247.361C60.7756 247.799 60.8452 248.205 60.9844 248.58C61.1236 248.955 61.3381 249.258 61.6278 249.488C61.9176 249.718 62.2869 249.833 62.7358 249.833ZM69.896 250.736C69.305 250.736 68.7866 250.596 68.3406 250.314C67.8974 250.033 67.5508 249.64 67.3008 249.134C67.0536 248.628 66.93 248.037 66.93 247.361C66.93 246.68 67.0536 246.084 67.3008 245.576C67.5508 245.067 67.8974 244.672 68.3406 244.391C68.7866 244.11 69.305 243.969 69.896 243.969C70.4869 243.969 71.0039 244.11 71.4471 244.391C71.8931 244.672 72.2397 245.067 72.4869 245.576C72.7369 246.084 72.8619 246.68 72.8619 247.361C72.8619 248.037 72.7369 248.628 72.4869 249.134C72.2397 249.64 71.8931 250.033 71.4471 250.314C71.0039 250.596 70.4869 250.736 69.896 250.736ZM69.896 249.833C70.3448 249.833 70.7141 249.718 71.0039 249.488C71.2937 249.258 71.5082 248.955 71.6474 248.58C71.7866 248.205 71.8562 247.799 71.8562 247.361C71.8562 246.924 71.7866 246.516 71.6474 246.138C71.5082 245.76 71.2937 245.455 71.0039 245.222C70.7141 244.989 70.3448 244.873 69.896 244.873C69.4471 244.873 69.0778 244.989 68.788 245.222C68.4982 245.455 68.2837 245.76 68.1445 246.138C68.0053 246.516 67.9357 246.924 67.9357 247.361C67.9357 247.799 68.0053 248.205 68.1445 248.58C68.2837 248.955 68.4982 249.258 68.788 249.488C69.0778 249.718 69.4471 249.833 69.896 249.833ZM75.3345 248.214L75.3175 246.969H75.522L78.3857 244.055H79.63L76.5788 247.14H76.4936L75.3345 248.214ZM74.397 250.6V241.873H75.4027V250.6H74.397ZM78.5561 250.6L75.9993 247.361L76.7152 246.662L79.8345 250.6H78.5561Z" fill="#1C1C1C"/>
<path d="M24.5795 285.21V284.273H31.125V285.21H28.3807V293H27.3239V285.21H24.5795ZM33.3526 293L31.3583 286.455H32.4151L33.8299 291.466H33.8981L35.2958 286.455H36.3697L37.7504 291.449H37.8185L39.2333 286.455H40.2901L38.2958 293H37.3072L35.8754 287.972H35.7731L34.3413 293H33.3526ZM41.6197 293V286.455H42.6254V293H41.6197ZM42.131 285.364C41.935 285.364 41.766 285.297 41.6239 285.163C41.4847 285.03 41.4151 284.869 41.4151 284.682C41.4151 284.494 41.4847 284.334 41.6239 284.2C41.766 284.067 41.935 284 42.131 284C42.3271 284 42.4947 284.067 42.6339 284.2C42.7759 284.334 42.8469 284.494 42.8469 284.682C42.8469 284.869 42.7759 285.03 42.6339 285.163C42.4947 285.297 42.3271 285.364 42.131 285.364ZM47.3139 286.455V287.307H43.9219V286.455H47.3139ZM44.9105 284.886H45.9162V291.125C45.9162 291.409 45.9574 291.622 46.0398 291.764C46.125 291.903 46.233 291.997 46.3636 292.045C46.4972 292.091 46.6378 292.114 46.7855 292.114C46.8963 292.114 46.9872 292.108 47.0582 292.097C47.1293 292.082 47.1861 292.071 47.2287 292.062L47.4332 292.966C47.3651 292.991 47.2699 293.017 47.1477 293.043C47.0256 293.071 46.8707 293.085 46.6832 293.085C46.3991 293.085 46.1207 293.024 45.848 292.902C45.5781 292.78 45.3537 292.594 45.1747 292.344C44.9986 292.094 44.9105 291.778 44.9105 291.398V284.886ZM51.6733 286.455V287.307H48.2812V286.455H51.6733ZM49.2699 284.886H50.2756V291.125C50.2756 291.409 50.3168 291.622 50.3991 291.764C50.4844 291.903 50.5923 291.997 50.723 292.045C50.8565 292.091 50.9972 292.114 51.1449 292.114C51.2557 292.114 51.3466 292.108 51.4176 292.097C51.4886 292.082 51.5455 292.071 51.5881 292.062L51.7926 292.966C51.7244 292.991 51.6293 293.017 51.5071 293.043C51.3849 293.071 51.2301 293.085 51.0426 293.085C50.7585 293.085 50.4801 293.024 50.2074 292.902C49.9375 292.78 49.7131 292.594 49.5341 292.344C49.358 292.094 49.2699 291.778 49.2699 291.398V284.886ZM55.8601 293.136C55.2294 293.136 54.6854 292.997 54.228 292.719C53.7734 292.438 53.4226 292.045 53.1754 291.543C52.9311 291.037 52.8089 290.449 52.8089 289.778C52.8089 289.108 52.9311 288.517 53.1754 288.006C53.4226 287.491 53.7663 287.091 54.2067 286.804C54.6499 286.514 55.1669 286.369 55.7578 286.369C56.0987 286.369 56.4354 286.426 56.7678 286.54C57.1001 286.653 57.4027 286.838 57.6754 287.094C57.9482 287.347 58.1655 287.682 58.3274 288.099C58.4893 288.517 58.5703 289.031 58.5703 289.642V290.068H53.5249V289.199H57.5476C57.5476 288.83 57.4737 288.5 57.326 288.21C57.1811 287.92 56.9737 287.692 56.7038 287.524C56.4368 287.357 56.1214 287.273 55.7578 287.273C55.3572 287.273 55.0107 287.372 54.718 287.571C54.4283 287.767 54.2053 288.023 54.049 288.338C53.8928 288.653 53.8146 288.991 53.8146 289.352V289.932C53.8146 290.426 53.8999 290.845 54.0703 291.189C54.2436 291.53 54.4837 291.79 54.7905 291.969C55.0973 292.145 55.4538 292.233 55.8601 292.233C56.1243 292.233 56.3629 292.196 56.576 292.122C56.7919 292.045 56.978 291.932 57.1342 291.781C57.2905 291.628 57.4112 291.437 57.4964 291.21L58.468 291.483C58.3658 291.812 58.1939 292.102 57.9524 292.352C57.7109 292.599 57.4126 292.793 57.0575 292.932C56.7024 293.068 56.3033 293.136 55.8601 293.136ZM60.1001 293V286.455H61.0717V287.443H61.1399C61.2592 287.119 61.4751 286.857 61.7876 286.655C62.1001 286.453 62.4524 286.352 62.8445 286.352C62.9183 286.352 63.0107 286.354 63.1214 286.357C63.2322 286.359 63.3161 286.364 63.3729 286.369V287.392C63.3388 287.384 63.2607 287.371 63.1385 287.354C63.0192 287.334 62.8928 287.324 62.7592 287.324C62.4411 287.324 62.157 287.391 61.907 287.524C61.6598 287.655 61.4638 287.837 61.3189 288.07C61.1768 288.3 61.1058 288.562 61.1058 288.858V293H60.1001Z" fill="#1C1C1C"/>
<path d="M98 77.1667C98 76.5223 98.5223 76 99.1667 76H106.548C107.192 76 107.714 76.5223 107.714 77.1667C107.714 77.811 107.192 78.3333 106.548 78.3333H99.1667C98.5223 78.3333 98 77.811 98 77.1667Z" fill="#1C1C1C"/>
<path d="M109.714 77.1667C109.714 76.5223 110.237 76 110.881 76H118.262C118.906 76 119.429 76.5223 119.429 77.1667C119.429 77.811 118.906 78.3333 118.262 78.3333H110.881C110.237 78.3333 109.714 77.811 109.714 77.1667Z" fill="#1C1C1C" fill-opacity="0.4"/>
<path d="M121.428 77.1667C121.428 76.5223 121.951 76 122.595 76H129.976C130.62 76 131.143 76.5223 131.143 77.1667C131.143 77.811 130.62 78.3333 129.976 78.3333H122.595C121.951 78.3333 121.428 77.811 121.428 77.1667Z" fill="#1C1C1C" fill-opacity="0.1"/>
<path d="M98 119.5C98 118.856 98.5223 118.333 99.1667 118.333H115.333C115.978 118.333 116.5 118.856 116.5 119.5C116.5 120.144 115.978 120.667 115.333 120.667H99.1667C98.5223 120.667 98 120.144 98 119.5Z" fill="#1C1C1C"/>
<path d="M118.5 119.5C118.5 118.856 119.022 118.333 119.667 118.333H135.833C136.478 118.333 137 118.856 137 119.5C137 120.144 136.478 120.667 135.833 120.667H119.667C119.022 120.667 118.5 120.144 118.5 119.5Z" fill="#1C1C1C" fill-opacity="0.4"/>
<path d="M139 119.5C139 118.856 139.522 118.333 140.167 118.333H156.333C156.978 118.333 157.5 118.856 157.5 119.5C157.5 120.144 156.978 120.667 156.333 120.667H140.167C139.522 120.667 139 120.144 139 119.5Z" fill="#1C1C1C" fill-opacity="0.1"/>
<path d="M98 161.833C98 161.189 98.5223 160.667 99.1667 160.667H108.5C109.144 160.667 109.667 161.189 109.667 161.833C109.667 162.478 109.144 163 108.5 163H99.1667C98.5223 163 98 162.478 98 161.833Z" fill="#1C1C1C"/>
<path d="M111.667 161.833C111.667 161.189 112.189 160.667 112.833 160.667H122.167C122.811 160.667 123.333 161.189 123.333 161.833C123.333 162.478 122.811 163 122.167 163H112.833C112.189 163 111.667 162.478 111.667 161.833Z" fill="#1C1C1C" fill-opacity="0.4"/>
<path d="M125.333 161.833C125.333 161.189 125.856 160.667 126.5 160.667H135.833C136.478 160.667 137 161.189 137 161.833C137 162.478 136.478 163 135.833 163H126.5C125.856 163 125.333 162.478 125.333 161.833Z" fill="#1C1C1C" fill-opacity="0.1"/>
<path d="M98 204.167C98 203.522 98.5223 203 99.1667 203H122.167C122.811 203 123.333 203.522 123.333 204.167C123.333 204.811 122.811 205.333 122.167 205.333H99.1667C98.5223 205.333 98 204.811 98 204.167Z" fill="#1C1C1C"/>
<path d="M125.333 204.167C125.333 203.522 125.856 203 126.5 203H149.5C150.144 203 150.667 203.522 150.667 204.167C150.667 204.811 150.144 205.333 149.5 205.333H126.5C125.856 205.333 125.333 204.811 125.333 204.167Z" fill="#1C1C1C" fill-opacity="0.4"/>
<path d="M152.667 204.167C152.667 203.522 153.189 203 153.833 203H176.833C177.478 203 178 203.522 178 204.167C178 204.811 177.478 205.333 176.833 205.333H153.833C153.189 205.333 152.667 204.811 152.667 204.167Z" fill="#1C1C1C" fill-opacity="0.1"/>
<path d="M98 246.5C98 245.856 98.5223 245.333 99.1667 245.333H105.083C105.728 245.333 106.25 245.856 106.25 246.5C106.25 247.144 105.728 247.667 105.083 247.667H99.1667C98.5223 247.667 98 247.144 98 246.5Z" fill="#1C1C1C"/>
<path d="M108.25 246.5C108.25 245.856 108.772 245.333 109.417 245.333H115.333C115.978 245.333 116.5 245.856 116.5 246.5C116.5 247.144 115.978 247.667 115.333 247.667H109.417C108.772 247.667 108.25 247.144 108.25 246.5Z" fill="#1C1C1C" fill-opacity="0.4"/>
<path d="M118.5 246.5C118.5 245.856 119.022 245.333 119.667 245.333H125.583C126.228 245.333 126.75 245.856 126.75 246.5C126.75 247.144 126.228 247.667 125.583 247.667H119.667C119.022 247.667 118.5 247.144 118.5 246.5Z" fill="#1C1C1C" fill-opacity="0.1"/>
<path d="M98 288.833C98 288.189 98.5223 287.667 99.1667 287.667H111.233C111.878 287.667 112.4 288.189 112.4 288.833C112.4 289.478 111.878 290 111.233 290H99.1667C98.5223 290 98 289.478 98 288.833Z" fill="#1C1C1C"/>
<path d="M114.4 288.833C114.4 288.189 114.922 287.667 115.567 287.667H127.633C128.278 287.667 128.8 288.189 128.8 288.833C128.8 289.478 128.278 290 127.633 290H115.567C114.922 290 114.4 289.478 114.4 288.833Z" fill="#1C1C1C" fill-opacity="0.4"/>
<path d="M130.8 288.833C130.8 288.189 131.322 287.667 131.967 287.667H144.033C144.678 287.667 145.2 288.189 145.2 288.833C145.2 289.478 144.678 290 144.033 290H131.967C131.322 290 130.8 289.478 130.8 288.833Z" fill="#1C1C1C" fill-opacity="0.1"/>
</svg>
